<?xml version="1.0" encoding="utf-8" standalone="no"?>
<!DOCTYPE svg PUBLIC "-//W3C//DTD SVG 1.1//EN"
  "http://www.w3.org/Graphics/SVG/1.1/DTD/svg11.dtd">
<!-- Created with matplotlib (https://matplotlib.org/) -->
<svg height="345.6pt" version="1.1" viewBox="0 0 460.8 345.6" width="460.8pt" xmlns="http://www.w3.org/2000/svg" xmlns:xlink="http://www.w3.org/1999/xlink">
 <metadata>
  <rdf:RDF xmlns:cc="http://creativecommons.org/ns#" xmlns:dc="http://purl.org/dc/elements/1.1/" xmlns:rdf="http://www.w3.org/1999/02/22-rdf-syntax-ns#">
   <cc:Work>
    <dc:type rdf:resource="http://purl.org/dc/dcmitype/StillImage"/>
    <dc:date>2021-03-30T08:33:32.505098</dc:date>
    <dc:format>image/svg+xml</dc:format>
    <dc:creator>
     <cc:Agent>
      <dc:title>Matplotlib v3.3.4, https://matplotlib.org/</dc:title>
     </cc:Agent>
    </dc:creator>
   </cc:Work>
  </rdf:RDF>
 </metadata>
 <defs>
  <style type="text/css">*{stroke-linecap:butt;stroke-linejoin:round;}</style>
 </defs>
 <g id="figure_1">
  <g id="patch_1">
   <path d="M 0 345.6 
L 460.8 345.6 
L 460.8 0 
L 0 0 
z
" style="fill:#ffffff;"/>
  </g>
  <g id="axes_1">
   <g id="patch_2">
    <path d="M 56.132054 291.976 
L 450 291.976 
L 450 36.24 
L 56.132054 36.24 
z
" style="fill:#ffffff;"/>
   </g>
   <g id="matplotlib.axis_1">
    <g id="xtick_1">
     <g id="line2d_1">
      <path clip-path="url(#p8be4982a84)" d="M 56.132054 291.976 
L 56.132054 36.24 
" style="fill:none;stroke:#b0b0b0;stroke-linecap:square;stroke-width:0.8;"/>
     </g>
     <g id="line2d_2">
      <defs>
       <path d="M 0 0 
L 0 3.5 
" id="mb7f0a6e7ca" style="stroke:#000000;stroke-width:0.8;"/>
      </defs>
      <g>
       <use style="stroke:#000000;stroke-width:0.8;" x="56.132054" xlink:href="#mb7f0a6e7ca" y="291.976"/>
      </g>
     </g>
    </g>
    <g id="xtick_2">
     <g id="line2d_3">
      <path clip-path="url(#p8be4982a84)" d="M 116.088533 291.976 
L 116.088533 36.24 
" style="fill:none;stroke:#b0b0b0;stroke-linecap:square;stroke-width:0.8;"/>
     </g>
     <g id="line2d_4">
      <g>
       <use style="stroke:#000000;stroke-width:0.8;" x="116.088533" xlink:href="#mb7f0a6e7ca" y="291.976"/>
      </g>
     </g>
     <g id="text_1">
      <!-- Apr -->
      <g transform="translate(107.438533 306.574437)scale(0.1 -0.1)">
       <defs>
        <path d="M 34.1875 63.1875 
L 20.796875 26.90625 
L 47.609375 26.90625 
z
M 28.609375 72.90625 
L 39.796875 72.90625 
L 67.578125 0 
L 57.328125 0 
L 50.6875 18.703125 
L 17.828125 18.703125 
L 11.1875 0 
L 0.78125 0 
z
" id="DejaVuSans-65"/>
        <path d="M 18.109375 8.203125 
L 18.109375 -20.796875 
L 9.078125 -20.796875 
L 9.078125 54.6875 
L 18.109375 54.6875 
L 18.109375 46.390625 
Q 20.953125 51.265625 25.265625 53.625 
Q 29.59375 56 35.59375 56 
Q 45.5625 56 51.78125 48.09375 
Q 58.015625 40.1875 58.015625 27.296875 
Q 58.015625 14.40625 51.78125 6.484375 
Q 45.5625 -1.421875 35.59375 -1.421875 
Q 29.59375 -1.421875 25.265625 0.953125 
Q 20.953125 3.328125 18.109375 8.203125 
z
M 48.6875 27.296875 
Q 48.6875 37.203125 44.609375 42.84375 
Q 40.53125 48.484375 33.40625 48.484375 
Q 26.265625 48.484375 22.1875 42.84375 
Q 18.109375 37.203125 18.109375 27.296875 
Q 18.109375 17.390625 22.1875 11.75 
Q 26.265625 6.109375 33.40625 6.109375 
Q 40.53125 6.109375 44.609375 11.75 
Q 48.6875 17.390625 48.6875 27.296875 
z
" id="DejaVuSans-112"/>
        <path d="M 41.109375 46.296875 
Q 39.59375 47.171875 37.8125 47.578125 
Q 36.03125 48 33.890625 48 
Q 26.265625 48 22.1875 43.046875 
Q 18.109375 38.09375 18.109375 28.8125 
L 18.109375 0 
L 9.078125 0 
L 9.078125 54.6875 
L 18.109375 54.6875 
L 18.109375 46.1875 
Q 20.953125 51.171875 25.484375 53.578125 
Q 30.03125 56 36.53125 56 
Q 37.453125 56 38.578125 55.875 
Q 39.703125 55.765625 41.0625 55.515625 
z
" id="DejaVuSans-114"/>
       </defs>
       <use xlink:href="#DejaVuSans-65"/>
       <use x="68.408203" xlink:href="#DejaVuSans-112"/>
       <use x="131.884766" xlink:href="#DejaVuSans-114"/>
      </g>
     </g>
    </g>
    <g id="xtick_3">
     <g id="line2d_5">
      <path clip-path="url(#p8be4982a84)" d="M 200.027603 291.976 
L 200.027603 36.24 
" style="fill:none;stroke:#b0b0b0;stroke-linecap:square;stroke-width:0.8;"/>
     </g>
     <g id="line2d_6">
      <g>
       <use style="stroke:#000000;stroke-width:0.8;" x="200.027603" xlink:href="#mb7f0a6e7ca" y="291.976"/>
      </g>
     </g>
     <g id="text_2">
      <!-- Jul -->
      <g transform="translate(193.994791 306.574437)scale(0.1 -0.1)">
       <defs>
        <path d="M 9.8125 72.90625 
L 19.671875 72.90625 
L 19.671875 5.078125 
Q 19.671875 -8.109375 14.671875 -14.0625 
Q 9.671875 -20.015625 -1.421875 -20.015625 
L -5.171875 -20.015625 
L -5.171875 -11.71875 
L -2.09375 -11.71875 
Q 4.4375 -11.71875 7.125 -8.046875 
Q 9.8125 -4.390625 9.8125 5.078125 
z
" id="DejaVuSans-74"/>
        <path d="M 8.5 21.578125 
L 8.5 54.6875 
L 17.484375 54.6875 
L 17.484375 21.921875 
Q 17.484375 14.15625 20.5 10.265625 
Q 23.53125 6.390625 29.59375 6.390625 
Q 36.859375 6.390625 41.078125 11.03125 
Q 45.3125 15.671875 45.3125 23.6875 
L 45.3125 54.6875 
L 54.296875 54.6875 
L 54.296875 0 
L 45.3125 0 
L 45.3125 8.40625 
Q 42.046875 3.421875 37.71875 1 
Q 33.40625 -1.421875 27.6875 -1.421875 
Q 18.265625 -1.421875 13.375 4.4375 
Q 8.5 10.296875 8.5 21.578125 
z
M 31.109375 56 
z
" id="DejaVuSans-117"/>
        <path d="M 9.421875 75.984375 
L 18.40625 75.984375 
L 18.40625 0 
L 9.421875 0 
z
" id="DejaVuSans-108"/>
       </defs>
       <use xlink:href="#DejaVuSans-74"/>
       <use x="29.492188" xlink:href="#DejaVuSans-117"/>
       <use x="92.871094" xlink:href="#DejaVuSans-108"/>
      </g>
     </g>
    </g>
    <g id="xtick_4">
     <g id="line2d_7">
      <path clip-path="url(#p8be4982a84)" d="M 284.889081 291.976 
L 284.889081 36.24 
" style="fill:none;stroke:#b0b0b0;stroke-linecap:square;stroke-width:0.8;"/>
     </g>
     <g id="line2d_8">
      <g>
       <use style="stroke:#000000;stroke-width:0.8;" x="284.889081" xlink:href="#mb7f0a6e7ca" y="291.976"/>
      </g>
     </g>
     <g id="text_3">
      <!-- Oct -->
      <g transform="translate(276.243769 306.574437)scale(0.1 -0.1)">
       <defs>
        <path d="M 39.40625 66.21875 
Q 28.65625 66.21875 22.328125 58.203125 
Q 16.015625 50.203125 16.015625 36.375 
Q 16.015625 22.609375 22.328125 14.59375 
Q 28.65625 6.59375 39.40625 6.59375 
Q 50.140625 6.59375 56.421875 14.59375 
Q 62.703125 22.609375 62.703125 36.375 
Q 62.703125 50.203125 56.421875 58.203125 
Q 50.140625 66.21875 39.40625 66.21875 
z
M 39.40625 74.21875 
Q 54.734375 74.21875 63.90625 63.9375 
Q 73.09375 53.65625 73.09375 36.375 
Q 73.09375 19.140625 63.90625 8.859375 
Q 54.734375 -1.421875 39.40625 -1.421875 
Q 24.03125 -1.421875 14.8125 8.828125 
Q 5.609375 19.09375 5.609375 36.375 
Q 5.609375 53.65625 14.8125 63.9375 
Q 24.03125 74.21875 39.40625 74.21875 
z
" id="DejaVuSans-79"/>
        <path d="M 48.78125 52.59375 
L 48.78125 44.1875 
Q 44.96875 46.296875 41.140625 47.34375 
Q 37.3125 48.390625 33.40625 48.390625 
Q 24.65625 48.390625 19.8125 42.84375 
Q 14.984375 37.3125 14.984375 27.296875 
Q 14.984375 17.28125 19.8125 11.734375 
Q 24.65625 6.203125 33.40625 6.203125 
Q 37.3125 6.203125 41.140625 7.25 
Q 44.96875 8.296875 48.78125 10.40625 
L 48.78125 2.09375 
Q 45.015625 0.34375 40.984375 -0.53125 
Q 36.96875 -1.421875 32.421875 -1.421875 
Q 20.0625 -1.421875 12.78125 6.34375 
Q 5.515625 14.109375 5.515625 27.296875 
Q 5.515625 40.671875 12.859375 48.328125 
Q 20.21875 56 33.015625 56 
Q 37.15625 56 41.109375 55.140625 
Q 45.0625 54.296875 48.78125 52.59375 
z
" id="DejaVuSans-99"/>
        <path d="M 18.3125 70.21875 
L 18.3125 54.6875 
L 36.8125 54.6875 
L 36.8125 47.703125 
L 18.3125 47.703125 
L 18.3125 18.015625 
Q 18.3125 11.328125 20.140625 9.421875 
Q 21.96875 7.515625 27.59375 7.515625 
L 36.8125 7.515625 
L 36.8125 0 
L 27.59375 0 
Q 17.1875 0 13.234375 3.875 
Q 9.28125 7.765625 9.28125 18.015625 
L 9.28125 47.703125 
L 2.6875 47.703125 
L 2.6875 54.6875 
L 9.28125 54.6875 
L 9.28125 70.21875 
z
" id="DejaVuSans-116"/>
       </defs>
       <use xlink:href="#DejaVuSans-79"/>
       <use x="78.710938" xlink:href="#DejaVuSans-99"/>
       <use x="133.691406" xlink:href="#DejaVuSans-116"/>
      </g>
     </g>
    </g>
    <g id="xtick_5">
     <g id="line2d_9">
      <path clip-path="url(#p8be4982a84)" d="M 369.750559 291.976 
L 369.750559 36.24 
" style="fill:none;stroke:#b0b0b0;stroke-linecap:square;stroke-width:0.8;"/>
     </g>
     <g id="line2d_10">
      <g>
       <use style="stroke:#000000;stroke-width:0.8;" x="369.750559" xlink:href="#mb7f0a6e7ca" y="291.976"/>
      </g>
     </g>
     <g id="text_4">
      <!-- Jan -->
      <g transform="translate(362.042746 306.574437)scale(0.1 -0.1)">
       <defs>
        <path d="M 34.28125 27.484375 
Q 23.390625 27.484375 19.1875 25 
Q 14.984375 22.515625 14.984375 16.5 
Q 14.984375 11.71875 18.140625 8.90625 
Q 21.296875 6.109375 26.703125 6.109375 
Q 34.1875 6.109375 38.703125 11.40625 
Q 43.21875 16.703125 43.21875 25.484375 
L 43.21875 27.484375 
z
M 52.203125 31.203125 
L 52.203125 0 
L 43.21875 0 
L 43.21875 8.296875 
Q 40.140625 3.328125 35.546875 0.953125 
Q 30.953125 -1.421875 24.3125 -1.421875 
Q 15.921875 -1.421875 10.953125 3.296875 
Q 6 8.015625 6 15.921875 
Q 6 25.140625 12.171875 29.828125 
Q 18.359375 34.515625 30.609375 34.515625 
L 43.21875 34.515625 
L 43.21875 35.40625 
Q 43.21875 41.609375 39.140625 45 
Q 35.0625 48.390625 27.6875 48.390625 
Q 23 48.390625 18.546875 47.265625 
Q 14.109375 46.140625 10.015625 43.890625 
L 10.015625 52.203125 
Q 14.9375 54.109375 19.578125 55.046875 
Q 24.21875 56 28.609375 56 
Q 40.484375 56 46.34375 49.84375 
Q 52.203125 43.703125 52.203125 31.203125 
z
" id="DejaVuSans-97"/>
        <path d="M 54.890625 33.015625 
L 54.890625 0 
L 45.90625 0 
L 45.90625 32.71875 
Q 45.90625 40.484375 42.875 44.328125 
Q 39.84375 48.1875 33.796875 48.1875 
Q 26.515625 48.1875 22.3125 43.546875 
Q 18.109375 38.921875 18.109375 30.90625 
L 18.109375 0 
L 9.078125 0 
L 9.078125 54.6875 
L 18.109375 54.6875 
L 18.109375 46.1875 
Q 21.34375 51.125 25.703125 53.5625 
Q 30.078125 56 35.796875 56 
Q 45.21875 56 50.046875 50.171875 
Q 54.890625 44.34375 54.890625 33.015625 
z
" id="DejaVuSans-110"/>
       </defs>
       <use xlink:href="#DejaVuSans-74"/>
       <use x="29.492188" xlink:href="#DejaVuSans-97"/>
       <use x="90.771484" xlink:href="#DejaVuSans-110"/>
      </g>
      <!-- 2021 -->
      <g transform="translate(357.025559 317.77225)scale(0.1 -0.1)">
       <defs>
        <path d="M 19.1875 8.296875 
L 53.609375 8.296875 
L 53.609375 0 
L 7.328125 0 
L 7.328125 8.296875 
Q 12.9375 14.109375 22.625 23.890625 
Q 32.328125 33.6875 34.8125 36.53125 
Q 39.546875 41.84375 41.421875 45.53125 
Q 43.3125 49.21875 43.3125 52.78125 
Q 43.3125 58.59375 39.234375 62.25 
Q 35.15625 65.921875 28.609375 65.921875 
Q 23.96875 65.921875 18.8125 64.3125 
Q 13.671875 62.703125 7.8125 59.421875 
L 7.8125 69.390625 
Q 13.765625 71.78125 18.9375 73 
Q 24.125 74.21875 28.421875 74.21875 
Q 39.75 74.21875 46.484375 68.546875 
Q 53.21875 62.890625 53.21875 53.421875 
Q 53.21875 48.921875 51.53125 44.890625 
Q 49.859375 40.875 45.40625 35.40625 
Q 44.1875 33.984375 37.640625 27.21875 
Q 31.109375 20.453125 19.1875 8.296875 
z
" id="DejaVuSans-50"/>
        <path d="M 31.78125 66.40625 
Q 24.171875 66.40625 20.328125 58.90625 
Q 16.5 51.421875 16.5 36.375 
Q 16.5 21.390625 20.328125 13.890625 
Q 24.171875 6.390625 31.78125 6.390625 
Q 39.453125 6.390625 43.28125 13.890625 
Q 47.125 21.390625 47.125 36.375 
Q 47.125 51.421875 43.28125 58.90625 
Q 39.453125 66.40625 31.78125 66.40625 
z
M 31.78125 74.21875 
Q 44.046875 74.21875 50.515625 64.515625 
Q 56.984375 54.828125 56.984375 36.375 
Q 56.984375 17.96875 50.515625 8.265625 
Q 44.046875 -1.421875 31.78125 -1.421875 
Q 19.53125 -1.421875 13.0625 8.265625 
Q 6.59375 17.96875 6.59375 36.375 
Q 6.59375 54.828125 13.0625 64.515625 
Q 19.53125 74.21875 31.78125 74.21875 
z
" id="DejaVuSans-48"/>
        <path d="M 12.40625 8.296875 
L 28.515625 8.296875 
L 28.515625 63.921875 
L 10.984375 60.40625 
L 10.984375 69.390625 
L 28.421875 72.90625 
L 38.28125 72.90625 
L 38.28125 8.296875 
L 54.390625 8.296875 
L 54.390625 0 
L 12.40625 0 
z
" id="DejaVuSans-49"/>
       </defs>
       <use xlink:href="#DejaVuSans-50"/>
       <use x="63.623047" xlink:href="#DejaVuSans-48"/>
       <use x="127.246094" xlink:href="#DejaVuSans-50"/>
       <use x="190.869141" xlink:href="#DejaVuSans-49"/>
      </g>
     </g>
    </g>
    <g id="xtick_6">
     <g id="line2d_11">
      <path clip-path="url(#p8be4982a84)" d="M 450 291.976 
L 450 36.24 
" style="fill:none;stroke:#b0b0b0;stroke-linecap:square;stroke-width:0.8;"/>
     </g>
     <g id="line2d_12">
      <g>
       <use style="stroke:#000000;stroke-width:0.8;" x="450" xlink:href="#mb7f0a6e7ca" y="291.976"/>
      </g>
     </g>
    </g>
    <g id="xtick_7">
     <g id="line2d_13">
      <defs>
       <path d="M 0 0 
L 0 2 
" id="m6bb887d73a" style="stroke:#000000;stroke-width:0.6;"/>
      </defs>
      <g>
       <use style="stroke:#000000;stroke-width:0.6;" x="60.744091" xlink:href="#m6bb887d73a" y="291.976"/>
      </g>
     </g>
    </g>
    <g id="xtick_8">
     <g id="line2d_14">
      <g>
       <use style="stroke:#000000;stroke-width:0.6;" x="87.493904" xlink:href="#m6bb887d73a" y="291.976"/>
      </g>
     </g>
    </g>
    <g id="xtick_9">
     <g id="line2d_15">
      <g>
       <use style="stroke:#000000;stroke-width:0.6;" x="143.760754" xlink:href="#m6bb887d73a" y="291.976"/>
      </g>
     </g>
    </g>
    <g id="xtick_10">
     <g id="line2d_16">
      <g>
       <use style="stroke:#000000;stroke-width:0.6;" x="172.355382" xlink:href="#m6bb887d73a" y="291.976"/>
      </g>
     </g>
    </g>
    <g id="xtick_11">
     <g id="line2d_17">
      <g>
       <use style="stroke:#000000;stroke-width:0.6;" x="228.622232" xlink:href="#m6bb887d73a" y="291.976"/>
      </g>
     </g>
    </g>
    <g id="xtick_12">
     <g id="line2d_18">
      <g>
       <use style="stroke:#000000;stroke-width:0.6;" x="257.21686" xlink:href="#m6bb887d73a" y="291.976"/>
      </g>
     </g>
    </g>
    <g id="xtick_13">
     <g id="line2d_19">
      <g>
       <use style="stroke:#000000;stroke-width:0.6;" x="313.48371" xlink:href="#m6bb887d73a" y="291.976"/>
      </g>
     </g>
    </g>
    <g id="xtick_14">
     <g id="line2d_20">
      <g>
       <use style="stroke:#000000;stroke-width:0.6;" x="341.155931" xlink:href="#m6bb887d73a" y="291.976"/>
      </g>
     </g>
    </g>
    <g id="xtick_15">
     <g id="line2d_21">
      <g>
       <use style="stroke:#000000;stroke-width:0.6;" x="398.345187" xlink:href="#m6bb887d73a" y="291.976"/>
      </g>
     </g>
    </g>
    <g id="xtick_16">
     <g id="line2d_22">
      <g>
       <use style="stroke:#000000;stroke-width:0.6;" x="424.172594" xlink:href="#m6bb887d73a" y="291.976"/>
      </g>
     </g>
    </g>
    <g id="text_5">
     <!-- datum -->
     <g transform="translate(236.828527 331.450375)scale(0.1 -0.1)">
      <defs>
       <path d="M 45.40625 46.390625 
L 45.40625 75.984375 
L 54.390625 75.984375 
L 54.390625 0 
L 45.40625 0 
L 45.40625 8.203125 
Q 42.578125 3.328125 38.25 0.953125 
Q 33.9375 -1.421875 27.875 -1.421875 
Q 17.96875 -1.421875 11.734375 6.484375 
Q 5.515625 14.40625 5.515625 27.296875 
Q 5.515625 40.1875 11.734375 48.09375 
Q 17.96875 56 27.875 56 
Q 33.9375 56 38.25 53.625 
Q 42.578125 51.265625 45.40625 46.390625 
z
M 14.796875 27.296875 
Q 14.796875 17.390625 18.875 11.75 
Q 22.953125 6.109375 30.078125 6.109375 
Q 37.203125 6.109375 41.296875 11.75 
Q 45.40625 17.390625 45.40625 27.296875 
Q 45.40625 37.203125 41.296875 42.84375 
Q 37.203125 48.484375 30.078125 48.484375 
Q 22.953125 48.484375 18.875 42.84375 
Q 14.796875 37.203125 14.796875 27.296875 
z
" id="DejaVuSans-100"/>
       <path d="M 52 44.1875 
Q 55.375 50.25 60.0625 53.125 
Q 64.75 56 71.09375 56 
Q 79.640625 56 84.28125 50.015625 
Q 88.921875 44.046875 88.921875 33.015625 
L 88.921875 0 
L 79.890625 0 
L 79.890625 32.71875 
Q 79.890625 40.578125 77.09375 44.375 
Q 74.3125 48.1875 68.609375 48.1875 
Q 61.625 48.1875 57.5625 43.546875 
Q 53.515625 38.921875 53.515625 30.90625 
L 53.515625 0 
L 44.484375 0 
L 44.484375 32.71875 
Q 44.484375 40.625 41.703125 44.40625 
Q 38.921875 48.1875 33.109375 48.1875 
Q 26.21875 48.1875 22.15625 43.53125 
Q 18.109375 38.875 18.109375 30.90625 
L 18.109375 0 
L 9.078125 0 
L 9.078125 54.6875 
L 18.109375 54.6875 
L 18.109375 46.1875 
Q 21.1875 51.21875 25.484375 53.609375 
Q 29.78125 56 35.6875 56 
Q 41.65625 56 45.828125 52.96875 
Q 50 49.953125 52 44.1875 
z
" id="DejaVuSans-109"/>
      </defs>
      <use xlink:href="#DejaVuSans-100"/>
      <use x="63.476562" xlink:href="#DejaVuSans-97"/>
      <use x="124.755859" xlink:href="#DejaVuSans-116"/>
      <use x="163.964844" xlink:href="#DejaVuSans-117"/>
      <use x="227.34375" xlink:href="#DejaVuSans-109"/>
     </g>
    </g>
   </g>
   <g id="matplotlib.axis_2">
    <g id="ytick_1">
     <g id="line2d_23">
      <path clip-path="url(#p8be4982a84)" d="M 56.132054 274.92984 
L 450 274.92984 
" style="fill:none;stroke:#b0b0b0;stroke-linecap:square;stroke-width:0.8;"/>
     </g>
     <g id="line2d_24">
      <defs>
       <path d="M 0 0 
L -3.5 0 
" id="m38db26b2af" style="stroke:#000000;stroke-width:0.8;"/>
      </defs>
      <g>
       <use style="stroke:#000000;stroke-width:0.8;" x="56.132054" xlink:href="#m38db26b2af" y="274.92984"/>
      </g>
     </g>
     <g id="text_6">
      <!-- $\mathdefault{10^{-1}}$ -->
      <g transform="translate(25.632054 278.729059)scale(0.1 -0.1)">
       <defs>
        <path d="M 10.59375 35.5 
L 73.1875 35.5 
L 73.1875 27.203125 
L 10.59375 27.203125 
z
" id="DejaVuSans-8722"/>
       </defs>
       <use transform="translate(0 0.684375)" xlink:href="#DejaVuSans-49"/>
       <use transform="translate(63.623047 0.684375)" xlink:href="#DejaVuSans-48"/>
       <use transform="translate(128.203125 38.965625)scale(0.7)" xlink:href="#DejaVuSans-8722"/>
       <use transform="translate(186.855469 38.965625)scale(0.7)" xlink:href="#DejaVuSans-49"/>
      </g>
     </g>
    </g>
    <g id="ytick_2">
     <g id="line2d_25">
      <path clip-path="url(#p8be4982a84)" d="M 56.132054 237.826787 
L 450 237.826787 
" style="fill:none;stroke:#b0b0b0;stroke-linecap:square;stroke-width:0.8;"/>
     </g>
     <g id="line2d_26">
      <g>
       <use style="stroke:#000000;stroke-width:0.8;" x="56.132054" xlink:href="#m38db26b2af" y="237.826787"/>
      </g>
     </g>
     <g id="text_7">
      <!-- $\mathdefault{10^{0}}$ -->
      <g transform="translate(31.532054 241.626006)scale(0.1 -0.1)">
       <use transform="translate(0 0.765625)" xlink:href="#DejaVuSans-49"/>
       <use transform="translate(63.623047 0.765625)" xlink:href="#DejaVuSans-48"/>
       <use transform="translate(128.203125 39.046875)scale(0.7)" xlink:href="#DejaVuSans-48"/>
      </g>
     </g>
    </g>
    <g id="ytick_3">
     <g id="line2d_27">
      <path clip-path="url(#p8be4982a84)" d="M 56.132054 200.723734 
L 450 200.723734 
" style="fill:none;stroke:#b0b0b0;stroke-linecap:square;stroke-width:0.8;"/>
     </g>
     <g id="line2d_28">
      <g>
       <use style="stroke:#000000;stroke-width:0.8;" x="56.132054" xlink:href="#m38db26b2af" y="200.723734"/>
      </g>
     </g>
     <g id="text_8">
      <!-- $\mathdefault{10^{1}}$ -->
      <g transform="translate(31.532054 204.522953)scale(0.1 -0.1)">
       <use transform="translate(0 0.684375)" xlink:href="#DejaVuSans-49"/>
       <use transform="translate(63.623047 0.684375)" xlink:href="#DejaVuSans-48"/>
       <use transform="translate(128.203125 38.965625)scale(0.7)" xlink:href="#DejaVuSans-49"/>
      </g>
     </g>
    </g>
    <g id="ytick_4">
     <g id="line2d_29">
      <path clip-path="url(#p8be4982a84)" d="M 56.132054 163.620681 
L 450 163.620681 
" style="fill:none;stroke:#b0b0b0;stroke-linecap:square;stroke-width:0.8;"/>
     </g>
     <g id="line2d_30">
      <g>
       <use style="stroke:#000000;stroke-width:0.8;" x="56.132054" xlink:href="#m38db26b2af" y="163.620681"/>
      </g>
     </g>
     <g id="text_9">
      <!-- $\mathdefault{10^{2}}$ -->
      <g transform="translate(31.532054 167.4199)scale(0.1 -0.1)">
       <use transform="translate(0 0.765625)" xlink:href="#DejaVuSans-49"/>
       <use transform="translate(63.623047 0.765625)" xlink:href="#DejaVuSans-48"/>
       <use transform="translate(128.203125 39.046875)scale(0.7)" xlink:href="#DejaVuSans-50"/>
      </g>
     </g>
    </g>
    <g id="ytick_5">
     <g id="line2d_31">
      <path clip-path="url(#p8be4982a84)" d="M 56.132054 126.517628 
L 450 126.517628 
" style="fill:none;stroke:#b0b0b0;stroke-linecap:square;stroke-width:0.8;"/>
     </g>
     <g id="line2d_32">
      <g>
       <use style="stroke:#000000;stroke-width:0.8;" x="56.132054" xlink:href="#m38db26b2af" y="126.517628"/>
      </g>
     </g>
     <g id="text_10">
      <!-- $\mathdefault{10^{3}}$ -->
      <g transform="translate(31.532054 130.316847)scale(0.1 -0.1)">
       <defs>
        <path d="M 40.578125 39.3125 
Q 47.65625 37.796875 51.625 33 
Q 55.609375 28.21875 55.609375 21.1875 
Q 55.609375 10.40625 48.1875 4.484375 
Q 40.765625 -1.421875 27.09375 -1.421875 
Q 22.515625 -1.421875 17.65625 -0.515625 
Q 12.796875 0.390625 7.625 2.203125 
L 7.625 11.71875 
Q 11.71875 9.328125 16.59375 8.109375 
Q 21.484375 6.890625 26.8125 6.890625 
Q 36.078125 6.890625 40.9375 10.546875 
Q 45.796875 14.203125 45.796875 21.1875 
Q 45.796875 27.640625 41.28125 31.265625 
Q 36.765625 34.90625 28.71875 34.90625 
L 20.21875 34.90625 
L 20.21875 43.015625 
L 29.109375 43.015625 
Q 36.375 43.015625 40.234375 45.921875 
Q 44.09375 48.828125 44.09375 54.296875 
Q 44.09375 59.90625 40.109375 62.90625 
Q 36.140625 65.921875 28.71875 65.921875 
Q 24.65625 65.921875 20.015625 65.03125 
Q 15.375 64.15625 9.8125 62.3125 
L 9.8125 71.09375 
Q 15.4375 72.65625 20.34375 73.4375 
Q 25.25 74.21875 29.59375 74.21875 
Q 40.828125 74.21875 47.359375 69.109375 
Q 53.90625 64.015625 53.90625 55.328125 
Q 53.90625 49.265625 50.4375 45.09375 
Q 46.96875 40.921875 40.578125 39.3125 
z
" id="DejaVuSans-51"/>
       </defs>
       <use transform="translate(0 0.765625)" xlink:href="#DejaVuSans-49"/>
       <use transform="translate(63.623047 0.765625)" xlink:href="#DejaVuSans-48"/>
       <use transform="translate(128.203125 39.046875)scale(0.7)" xlink:href="#DejaVuSans-51"/>
      </g>
     </g>
    </g>
    <g id="ytick_6">
     <g id="line2d_33">
      <path clip-path="url(#p8be4982a84)" d="M 56.132054 89.414575 
L 450 89.414575 
" style="fill:none;stroke:#b0b0b0;stroke-linecap:square;stroke-width:0.8;"/>
     </g>
     <g id="line2d_34">
      <g>
       <use style="stroke:#000000;stroke-width:0.8;" x="56.132054" xlink:href="#m38db26b2af" y="89.414575"/>
      </g>
     </g>
     <g id="text_11">
      <!-- $\mathdefault{10^{4}}$ -->
      <g transform="translate(31.532054 93.213793)scale(0.1 -0.1)">
       <defs>
        <path d="M 37.796875 64.3125 
L 12.890625 25.390625 
L 37.796875 25.390625 
z
M 35.203125 72.90625 
L 47.609375 72.90625 
L 47.609375 25.390625 
L 58.015625 25.390625 
L 58.015625 17.1875 
L 47.609375 17.1875 
L 47.609375 0 
L 37.796875 0 
L 37.796875 17.1875 
L 4.890625 17.1875 
L 4.890625 26.703125 
z
" id="DejaVuSans-52"/>
       </defs>
       <use transform="translate(0 0.684375)" xlink:href="#DejaVuSans-49"/>
       <use transform="translate(63.623047 0.684375)" xlink:href="#DejaVuSans-48"/>
       <use transform="translate(128.203125 38.965625)scale(0.7)" xlink:href="#DejaVuSans-52"/>
      </g>
     </g>
    </g>
    <g id="ytick_7">
     <g id="line2d_35">
      <path clip-path="url(#p8be4982a84)" d="M 56.132054 52.311522 
L 450 52.311522 
" style="fill:none;stroke:#b0b0b0;stroke-linecap:square;stroke-width:0.8;"/>
     </g>
     <g id="line2d_36">
      <g>
       <use style="stroke:#000000;stroke-width:0.8;" x="56.132054" xlink:href="#m38db26b2af" y="52.311522"/>
      </g>
     </g>
     <g id="text_12">
      <!-- $\mathdefault{10^{5}}$ -->
      <g transform="translate(31.532054 56.11074)scale(0.1 -0.1)">
       <defs>
        <path d="M 10.796875 72.90625 
L 49.515625 72.90625 
L 49.515625 64.59375 
L 19.828125 64.59375 
L 19.828125 46.734375 
Q 21.96875 47.46875 24.109375 47.828125 
Q 26.265625 48.1875 28.421875 48.1875 
Q 40.625 48.1875 47.75 41.5 
Q 54.890625 34.8125 54.890625 23.390625 
Q 54.890625 11.625 47.5625 5.09375 
Q 40.234375 -1.421875 26.90625 -1.421875 
Q 22.3125 -1.421875 17.546875 -0.640625 
Q 12.796875 0.140625 7.71875 1.703125 
L 7.71875 11.625 
Q 12.109375 9.234375 16.796875 8.0625 
Q 21.484375 6.890625 26.703125 6.890625 
Q 35.15625 6.890625 40.078125 11.328125 
Q 45.015625 15.765625 45.015625 23.390625 
Q 45.015625 31 40.078125 35.4375 
Q 35.15625 39.890625 26.703125 39.890625 
Q 22.75 39.890625 18.8125 39.015625 
Q 14.890625 38.140625 10.796875 36.28125 
z
" id="DejaVuSans-53"/>
       </defs>
       <use transform="translate(0 0.684375)" xlink:href="#DejaVuSans-49"/>
       <use transform="translate(63.623047 0.684375)" xlink:href="#DejaVuSans-48"/>
       <use transform="translate(128.203125 38.965625)scale(0.7)" xlink:href="#DejaVuSans-53"/>
      </g>
     </g>
    </g>
    <g id="ytick_8">
     <g id="line2d_37">
      <defs>
       <path d="M 0 0 
L -2 0 
" id="m3b67f46035" style="stroke:#000000;stroke-width:0.6;"/>
      </defs>
      <g>
       <use style="stroke:#000000;stroke-width:0.6;" x="56.132054" xlink:href="#m3b67f46035" y="289.694629"/>
      </g>
     </g>
    </g>
    <g id="ytick_9">
     <g id="line2d_38">
      <g>
       <use style="stroke:#000000;stroke-width:0.6;" x="56.132054" xlink:href="#m3b67f46035" y="286.098972"/>
      </g>
     </g>
    </g>
    <g id="ytick_10">
     <g id="line2d_39">
      <g>
       <use style="stroke:#000000;stroke-width:0.6;" x="56.132054" xlink:href="#m3b67f46035" y="283.161106"/>
      </g>
     </g>
    </g>
    <g id="ytick_11">
     <g id="line2d_40">
      <g>
       <use style="stroke:#000000;stroke-width:0.6;" x="56.132054" xlink:href="#m3b67f46035" y="280.677176"/>
      </g>
     </g>
    </g>
    <g id="ytick_12">
     <g id="line2d_41">
      <g>
       <use style="stroke:#000000;stroke-width:0.6;" x="56.132054" xlink:href="#m3b67f46035" y="278.525497"/>
      </g>
     </g>
    </g>
    <g id="ytick_13">
     <g id="line2d_42">
      <g>
       <use style="stroke:#000000;stroke-width:0.6;" x="56.132054" xlink:href="#m3b67f46035" y="276.627583"/>
      </g>
     </g>
    </g>
    <g id="ytick_14">
     <g id="line2d_43">
      <g>
       <use style="stroke:#000000;stroke-width:0.6;" x="56.132054" xlink:href="#m3b67f46035" y="263.760708"/>
      </g>
     </g>
    </g>
    <g id="ytick_15">
     <g id="line2d_44">
      <g>
       <use style="stroke:#000000;stroke-width:0.6;" x="56.132054" xlink:href="#m3b67f46035" y="257.227185"/>
      </g>
     </g>
    </g>
    <g id="ytick_16">
     <g id="line2d_45">
      <g>
       <use style="stroke:#000000;stroke-width:0.6;" x="56.132054" xlink:href="#m3b67f46035" y="252.591576"/>
      </g>
     </g>
    </g>
    <g id="ytick_17">
     <g id="line2d_46">
      <g>
       <use style="stroke:#000000;stroke-width:0.6;" x="56.132054" xlink:href="#m3b67f46035" y="248.995919"/>
      </g>
     </g>
    </g>
    <g id="ytick_18">
     <g id="line2d_47">
      <g>
       <use style="stroke:#000000;stroke-width:0.6;" x="56.132054" xlink:href="#m3b67f46035" y="246.058053"/>
      </g>
     </g>
    </g>
    <g id="ytick_19">
     <g id="line2d_48">
      <g>
       <use style="stroke:#000000;stroke-width:0.6;" x="56.132054" xlink:href="#m3b67f46035" y="243.574123"/>
      </g>
     </g>
    </g>
    <g id="ytick_20">
     <g id="line2d_49">
      <g>
       <use style="stroke:#000000;stroke-width:0.6;" x="56.132054" xlink:href="#m3b67f46035" y="241.422444"/>
      </g>
     </g>
    </g>
    <g id="ytick_21">
     <g id="line2d_50">
      <g>
       <use style="stroke:#000000;stroke-width:0.6;" x="56.132054" xlink:href="#m3b67f46035" y="239.52453"/>
      </g>
     </g>
    </g>
    <g id="ytick_22">
     <g id="line2d_51">
      <g>
       <use style="stroke:#000000;stroke-width:0.6;" x="56.132054" xlink:href="#m3b67f46035" y="226.657655"/>
      </g>
     </g>
    </g>
    <g id="ytick_23">
     <g id="line2d_52">
      <g>
       <use style="stroke:#000000;stroke-width:0.6;" x="56.132054" xlink:href="#m3b67f46035" y="220.124132"/>
      </g>
     </g>
    </g>
    <g id="ytick_24">
     <g id="line2d_53">
      <g>
       <use style="stroke:#000000;stroke-width:0.6;" x="56.132054" xlink:href="#m3b67f46035" y="215.488523"/>
      </g>
     </g>
    </g>
    <g id="ytick_25">
     <g id="line2d_54">
      <g>
       <use style="stroke:#000000;stroke-width:0.6;" x="56.132054" xlink:href="#m3b67f46035" y="211.892866"/>
      </g>
     </g>
    </g>
    <g id="ytick_26">
     <g id="line2d_55">
      <g>
       <use style="stroke:#000000;stroke-width:0.6;" x="56.132054" xlink:href="#m3b67f46035" y="208.955"/>
      </g>
     </g>
    </g>
    <g id="ytick_27">
     <g id="line2d_56">
      <g>
       <use style="stroke:#000000;stroke-width:0.6;" x="56.132054" xlink:href="#m3b67f46035" y="206.47107"/>
      </g>
     </g>
    </g>
    <g id="ytick_28">
     <g id="line2d_57">
      <g>
       <use style="stroke:#000000;stroke-width:0.6;" x="56.132054" xlink:href="#m3b67f46035" y="204.319391"/>
      </g>
     </g>
    </g>
    <g id="ytick_29">
     <g id="line2d_58">
      <g>
       <use style="stroke:#000000;stroke-width:0.6;" x="56.132054" xlink:href="#m3b67f46035" y="202.421477"/>
      </g>
     </g>
    </g>
    <g id="ytick_30">
     <g id="line2d_59">
      <g>
       <use style="stroke:#000000;stroke-width:0.6;" x="56.132054" xlink:href="#m3b67f46035" y="189.554602"/>
      </g>
     </g>
    </g>
    <g id="ytick_31">
     <g id="line2d_60">
      <g>
       <use style="stroke:#000000;stroke-width:0.6;" x="56.132054" xlink:href="#m3b67f46035" y="183.021079"/>
      </g>
     </g>
    </g>
    <g id="ytick_32">
     <g id="line2d_61">
      <g>
       <use style="stroke:#000000;stroke-width:0.6;" x="56.132054" xlink:href="#m3b67f46035" y="178.38547"/>
      </g>
     </g>
    </g>
    <g id="ytick_33">
     <g id="line2d_62">
      <g>
       <use style="stroke:#000000;stroke-width:0.6;" x="56.132054" xlink:href="#m3b67f46035" y="174.789813"/>
      </g>
     </g>
    </g>
    <g id="ytick_34">
     <g id="line2d_63">
      <g>
       <use style="stroke:#000000;stroke-width:0.6;" x="56.132054" xlink:href="#m3b67f46035" y="171.851947"/>
      </g>
     </g>
    </g>
    <g id="ytick_35">
     <g id="line2d_64">
      <g>
       <use style="stroke:#000000;stroke-width:0.6;" x="56.132054" xlink:href="#m3b67f46035" y="169.368017"/>
      </g>
     </g>
    </g>
    <g id="ytick_36">
     <g id="line2d_65">
      <g>
       <use style="stroke:#000000;stroke-width:0.6;" x="56.132054" xlink:href="#m3b67f46035" y="167.216338"/>
      </g>
     </g>
    </g>
    <g id="ytick_37">
     <g id="line2d_66">
      <g>
       <use style="stroke:#000000;stroke-width:0.6;" x="56.132054" xlink:href="#m3b67f46035" y="165.318423"/>
      </g>
     </g>
    </g>
    <g id="ytick_38">
     <g id="line2d_67">
      <g>
       <use style="stroke:#000000;stroke-width:0.6;" x="56.132054" xlink:href="#m3b67f46035" y="152.451549"/>
      </g>
     </g>
    </g>
    <g id="ytick_39">
     <g id="line2d_68">
      <g>
       <use style="stroke:#000000;stroke-width:0.6;" x="56.132054" xlink:href="#m3b67f46035" y="145.918026"/>
      </g>
     </g>
    </g>
    <g id="ytick_40">
     <g id="line2d_69">
      <g>
       <use style="stroke:#000000;stroke-width:0.6;" x="56.132054" xlink:href="#m3b67f46035" y="141.282417"/>
      </g>
     </g>
    </g>
    <g id="ytick_41">
     <g id="line2d_70">
      <g>
       <use style="stroke:#000000;stroke-width:0.6;" x="56.132054" xlink:href="#m3b67f46035" y="137.68676"/>
      </g>
     </g>
    </g>
    <g id="ytick_42">
     <g id="line2d_71">
      <g>
       <use style="stroke:#000000;stroke-width:0.6;" x="56.132054" xlink:href="#m3b67f46035" y="134.748894"/>
      </g>
     </g>
    </g>
    <g id="ytick_43">
     <g id="line2d_72">
      <g>
       <use style="stroke:#000000;stroke-width:0.6;" x="56.132054" xlink:href="#m3b67f46035" y="132.264963"/>
      </g>
     </g>
    </g>
    <g id="ytick_44">
     <g id="line2d_73">
      <g>
       <use style="stroke:#000000;stroke-width:0.6;" x="56.132054" xlink:href="#m3b67f46035" y="130.113285"/>
      </g>
     </g>
    </g>
    <g id="ytick_45">
     <g id="line2d_74">
      <g>
       <use style="stroke:#000000;stroke-width:0.6;" x="56.132054" xlink:href="#m3b67f46035" y="128.21537"/>
      </g>
     </g>
    </g>
    <g id="ytick_46">
     <g id="line2d_75">
      <g>
       <use style="stroke:#000000;stroke-width:0.6;" x="56.132054" xlink:href="#m3b67f46035" y="115.348496"/>
      </g>
     </g>
    </g>
    <g id="ytick_47">
     <g id="line2d_76">
      <g>
       <use style="stroke:#000000;stroke-width:0.6;" x="56.132054" xlink:href="#m3b67f46035" y="108.814973"/>
      </g>
     </g>
    </g>
    <g id="ytick_48">
     <g id="line2d_77">
      <g>
       <use style="stroke:#000000;stroke-width:0.6;" x="56.132054" xlink:href="#m3b67f46035" y="104.179364"/>
      </g>
     </g>
    </g>
    <g id="ytick_49">
     <g id="line2d_78">
      <g>
       <use style="stroke:#000000;stroke-width:0.6;" x="56.132054" xlink:href="#m3b67f46035" y="100.583707"/>
      </g>
     </g>
    </g>
    <g id="ytick_50">
     <g id="line2d_79">
      <g>
       <use style="stroke:#000000;stroke-width:0.6;" x="56.132054" xlink:href="#m3b67f46035" y="97.645841"/>
      </g>
     </g>
    </g>
    <g id="ytick_51">
     <g id="line2d_80">
      <g>
       <use style="stroke:#000000;stroke-width:0.6;" x="56.132054" xlink:href="#m3b67f46035" y="95.16191"/>
      </g>
     </g>
    </g>
    <g id="ytick_52">
     <g id="line2d_81">
      <g>
       <use style="stroke:#000000;stroke-width:0.6;" x="56.132054" xlink:href="#m3b67f46035" y="93.010232"/>
      </g>
     </g>
    </g>
    <g id="ytick_53">
     <g id="line2d_82">
      <g>
       <use style="stroke:#000000;stroke-width:0.6;" x="56.132054" xlink:href="#m3b67f46035" y="91.112317"/>
      </g>
     </g>
    </g>
    <g id="ytick_54">
     <g id="line2d_83">
      <g>
       <use style="stroke:#000000;stroke-width:0.6;" x="56.132054" xlink:href="#m3b67f46035" y="78.245443"/>
      </g>
     </g>
    </g>
    <g id="ytick_55">
     <g id="line2d_84">
      <g>
       <use style="stroke:#000000;stroke-width:0.6;" x="56.132054" xlink:href="#m3b67f46035" y="71.71192"/>
      </g>
     </g>
    </g>
    <g id="ytick_56">
     <g id="line2d_85">
      <g>
       <use style="stroke:#000000;stroke-width:0.6;" x="56.132054" xlink:href="#m3b67f46035" y="67.076311"/>
      </g>
     </g>
    </g>
    <g id="ytick_57">
     <g id="line2d_86">
      <g>
       <use style="stroke:#000000;stroke-width:0.6;" x="56.132054" xlink:href="#m3b67f46035" y="63.480654"/>
      </g>
     </g>
    </g>
    <g id="ytick_58">
     <g id="line2d_87">
      <g>
       <use style="stroke:#000000;stroke-width:0.6;" x="56.132054" xlink:href="#m3b67f46035" y="60.542788"/>
      </g>
     </g>
    </g>
    <g id="ytick_59">
     <g id="line2d_88">
      <g>
       <use style="stroke:#000000;stroke-width:0.6;" x="56.132054" xlink:href="#m3b67f46035" y="58.058857"/>
      </g>
     </g>
    </g>
    <g id="ytick_60">
     <g id="line2d_89">
      <g>
       <use style="stroke:#000000;stroke-width:0.6;" x="56.132054" xlink:href="#m3b67f46035" y="55.907179"/>
      </g>
     </g>
    </g>
    <g id="ytick_61">
     <g id="line2d_90">
      <g>
       <use style="stroke:#000000;stroke-width:0.6;" x="56.132054" xlink:href="#m3b67f46035" y="54.009264"/>
      </g>
     </g>
    </g>
    <g id="ytick_62">
     <g id="line2d_91">
      <g>
       <use style="stroke:#000000;stroke-width:0.6;" x="56.132054" xlink:href="#m3b67f46035" y="41.14239"/>
      </g>
     </g>
    </g>
    <g id="text_13">
     <!-- logaritmická stupnice -->
     <g transform="translate(19.552366 217.960344)rotate(-90)scale(0.1 -0.1)">
      <defs>
       <path d="M 30.609375 48.390625 
Q 23.390625 48.390625 19.1875 42.75 
Q 14.984375 37.109375 14.984375 27.296875 
Q 14.984375 17.484375 19.15625 11.84375 
Q 23.34375 6.203125 30.609375 6.203125 
Q 37.796875 6.203125 41.984375 11.859375 
Q 46.1875 17.53125 46.1875 27.296875 
Q 46.1875 37.015625 41.984375 42.703125 
Q 37.796875 48.390625 30.609375 48.390625 
z
M 30.609375 56 
Q 42.328125 56 49.015625 48.375 
Q 55.71875 40.765625 55.71875 27.296875 
Q 55.71875 13.875 49.015625 6.21875 
Q 42.328125 -1.421875 30.609375 -1.421875 
Q 18.84375 -1.421875 12.171875 6.21875 
Q 5.515625 13.875 5.515625 27.296875 
Q 5.515625 40.765625 12.171875 48.375 
Q 18.84375 56 30.609375 56 
z
" id="DejaVuSans-111"/>
       <path d="M 45.40625 27.984375 
Q 45.40625 37.75 41.375 43.109375 
Q 37.359375 48.484375 30.078125 48.484375 
Q 22.859375 48.484375 18.828125 43.109375 
Q 14.796875 37.75 14.796875 27.984375 
Q 14.796875 18.265625 18.828125 12.890625 
Q 22.859375 7.515625 30.078125 7.515625 
Q 37.359375 7.515625 41.375 12.890625 
Q 45.40625 18.265625 45.40625 27.984375 
z
M 54.390625 6.78125 
Q 54.390625 -7.171875 48.1875 -13.984375 
Q 42 -20.796875 29.203125 -20.796875 
Q 24.46875 -20.796875 20.265625 -20.09375 
Q 16.0625 -19.390625 12.109375 -17.921875 
L 12.109375 -9.1875 
Q 16.0625 -11.328125 19.921875 -12.34375 
Q 23.78125 -13.375 27.78125 -13.375 
Q 36.625 -13.375 41.015625 -8.765625 
Q 45.40625 -4.15625 45.40625 5.171875 
L 45.40625 9.625 
Q 42.625 4.78125 38.28125 2.390625 
Q 33.9375 0 27.875 0 
Q 17.828125 0 11.671875 7.65625 
Q 5.515625 15.328125 5.515625 27.984375 
Q 5.515625 40.671875 11.671875 48.328125 
Q 17.828125 56 27.875 56 
Q 33.9375 56 38.28125 53.609375 
Q 42.625 51.21875 45.40625 46.390625 
L 45.40625 54.6875 
L 54.390625 54.6875 
z
" id="DejaVuSans-103"/>
       <path d="M 9.421875 54.6875 
L 18.40625 54.6875 
L 18.40625 0 
L 9.421875 0 
z
M 9.421875 75.984375 
L 18.40625 75.984375 
L 18.40625 64.59375 
L 9.421875 64.59375 
z
" id="DejaVuSans-105"/>
       <path d="M 9.078125 75.984375 
L 18.109375 75.984375 
L 18.109375 31.109375 
L 44.921875 54.6875 
L 56.390625 54.6875 
L 27.390625 29.109375 
L 57.625 0 
L 45.90625 0 
L 18.109375 26.703125 
L 18.109375 0 
L 9.078125 0 
z
" id="DejaVuSans-107"/>
       <path d="M 34.28125 27.484375 
Q 23.390625 27.484375 19.1875 25 
Q 14.984375 22.515625 14.984375 16.5 
Q 14.984375 11.71875 18.140625 8.90625 
Q 21.296875 6.109375 26.703125 6.109375 
Q 34.1875 6.109375 38.703125 11.40625 
Q 43.21875 16.703125 43.21875 25.484375 
L 43.21875 27.484375 
z
M 52.203125 31.203125 
L 52.203125 0 
L 43.21875 0 
L 43.21875 8.296875 
Q 40.140625 3.328125 35.546875 0.953125 
Q 30.953125 -1.421875 24.3125 -1.421875 
Q 15.921875 -1.421875 10.953125 3.296875 
Q 6 8.015625 6 15.921875 
Q 6 25.140625 12.171875 29.828125 
Q 18.359375 34.515625 30.609375 34.515625 
L 43.21875 34.515625 
L 43.21875 35.40625 
Q 43.21875 41.609375 39.140625 45 
Q 35.0625 48.390625 27.6875 48.390625 
Q 23 48.390625 18.546875 47.265625 
Q 14.109375 46.140625 10.015625 43.890625 
L 10.015625 52.203125 
Q 14.9375 54.109375 19.578125 55.046875 
Q 24.21875 56 28.609375 56 
Q 40.484375 56 46.34375 49.84375 
Q 52.203125 43.703125 52.203125 31.203125 
z
M 35.78125 79.984375 
L 45.5 79.984375 
L 29.59375 61.625 
L 22.109375 61.625 
z
" id="DejaVuSans-225"/>
       <path id="DejaVuSans-32"/>
       <path d="M 44.28125 53.078125 
L 44.28125 44.578125 
Q 40.484375 46.53125 36.375 47.5 
Q 32.28125 48.484375 27.875 48.484375 
Q 21.1875 48.484375 17.84375 46.4375 
Q 14.5 44.390625 14.5 40.28125 
Q 14.5 37.15625 16.890625 35.375 
Q 19.28125 33.59375 26.515625 31.984375 
L 29.59375 31.296875 
Q 39.15625 29.25 43.1875 25.515625 
Q 47.21875 21.78125 47.21875 15.09375 
Q 47.21875 7.46875 41.1875 3.015625 
Q 35.15625 -1.421875 24.609375 -1.421875 
Q 20.21875 -1.421875 15.453125 -0.5625 
Q 10.6875 0.296875 5.421875 2 
L 5.421875 11.28125 
Q 10.40625 8.6875 15.234375 7.390625 
Q 20.0625 6.109375 24.8125 6.109375 
Q 31.15625 6.109375 34.5625 8.28125 
Q 37.984375 10.453125 37.984375 14.40625 
Q 37.984375 18.0625 35.515625 20.015625 
Q 33.0625 21.96875 24.703125 23.78125 
L 21.578125 24.515625 
Q 13.234375 26.265625 9.515625 29.90625 
Q 5.8125 33.546875 5.8125 39.890625 
Q 5.8125 47.609375 11.28125 51.796875 
Q 16.75 56 26.8125 56 
Q 31.78125 56 36.171875 55.265625 
Q 40.578125 54.546875 44.28125 53.078125 
z
" id="DejaVuSans-115"/>
       <path d="M 56.203125 29.59375 
L 56.203125 25.203125 
L 14.890625 25.203125 
Q 15.484375 15.921875 20.484375 11.0625 
Q 25.484375 6.203125 34.421875 6.203125 
Q 39.59375 6.203125 44.453125 7.46875 
Q 49.3125 8.734375 54.109375 11.28125 
L 54.109375 2.78125 
Q 49.265625 0.734375 44.1875 -0.34375 
Q 39.109375 -1.421875 33.890625 -1.421875 
Q 20.796875 -1.421875 13.15625 6.1875 
Q 5.515625 13.8125 5.515625 26.8125 
Q 5.515625 40.234375 12.765625 48.109375 
Q 20.015625 56 32.328125 56 
Q 43.359375 56 49.78125 48.890625 
Q 56.203125 41.796875 56.203125 29.59375 
z
M 47.21875 32.234375 
Q 47.125 39.59375 43.09375 43.984375 
Q 39.0625 48.390625 32.421875 48.390625 
Q 24.90625 48.390625 20.390625 44.140625 
Q 15.875 39.890625 15.1875 32.171875 
z
" id="DejaVuSans-101"/>
      </defs>
      <use xlink:href="#DejaVuSans-108"/>
      <use x="27.783203" xlink:href="#DejaVuSans-111"/>
      <use x="88.964844" xlink:href="#DejaVuSans-103"/>
      <use x="152.441406" xlink:href="#DejaVuSans-97"/>
      <use x="213.720703" xlink:href="#DejaVuSans-114"/>
      <use x="254.833984" xlink:href="#DejaVuSans-105"/>
      <use x="282.617188" xlink:href="#DejaVuSans-116"/>
      <use x="321.826172" xlink:href="#DejaVuSans-109"/>
      <use x="419.238281" xlink:href="#DejaVuSans-105"/>
      <use x="447.021484" xlink:href="#DejaVuSans-99"/>
      <use x="502.001953" xlink:href="#DejaVuSans-107"/>
      <use x="558.162109" xlink:href="#DejaVuSans-225"/>
      <use x="619.441406" xlink:href="#DejaVuSans-32"/>
      <use x="651.228516" xlink:href="#DejaVuSans-115"/>
      <use x="703.328125" xlink:href="#DejaVuSans-116"/>
      <use x="742.537109" xlink:href="#DejaVuSans-117"/>
      <use x="805.916016" xlink:href="#DejaVuSans-112"/>
      <use x="869.392578" xlink:href="#DejaVuSans-110"/>
      <use x="932.771484" xlink:href="#DejaVuSans-105"/>
      <use x="960.554688" xlink:href="#DejaVuSans-99"/>
      <use x="1015.535156" xlink:href="#DejaVuSans-101"/>
     </g>
    </g>
   </g>
   <g id="line2d_92">
    <path clip-path="url(#p8be4982a84)" d="M 87.491816 346.6 
L 87.493904 262.648981 
L 88.416312 262.648981 
L 89.338719 254.417715 
L 90.261127 251.479849 
L 91.183534 244.946326 
L 92.105941 232.079451 
L 93.028349 227.243671 
L 93.950756 224.010133 
L 94.873163 221.318282 
L 95.795571 213.336845 
L 96.717978 206.972052 
L 98.562793 200.495168 
L 99.4852 195.802921 
L 100.407608 188.659169 
L 101.330015 184.59144 
L 102.252422 182.053224 
L 103.17483 178.529988 
L 104.097237 173.507117 
L 105.019644 171.267987 
L 105.942052 168.676061 
L 107.786867 165.421059 
L 108.709274 163.483152 
L 109.631681 160.750095 
L 110.554089 158.615281 
L 111.476496 155.889719 
L 112.398903 154.42662 
L 113.321311 154.104593 
L 114.243718 153.485363 
L 115.166125 152.09301 
L 116.088533 151.147609 
L 117.01094 150.821857 
L 117.933348 149.769883 
L 118.855755 149.176734 
L 119.778162 149.167344 
L 120.70057 148.65913 
L 123.467792 148.609179 
L 124.390199 149.609884 
L 127.157421 151.015464 
L 128.079829 152.228658 
L 129.924643 153.770129 
L 131.769458 156.447792 
L 132.691865 156.633222 
L 134.53668 157.752944 
L 135.459088 159.393035 
L 136.381495 161.288736 
L 137.303902 162.074426 
L 138.22631 163.055232 
L 140.071124 163.782628 
L 140.993532 164.040452 
L 141.915939 165.077254 
L 142.838346 165.433934 
L 143.760754 166.239454 
L 144.683161 167.462796 
L 145.605569 168.457037 
L 146.527976 170.368554 
L 147.450383 171.379372 
L 148.372791 171.756317 
L 149.295198 171.69921 
L 150.217605 172.477798 
L 151.140013 173.74267 
L 152.06242 174.268876 
L 152.984828 173.937989 
L 153.907235 174.268876 
L 155.75205 175.351974 
L 156.674457 175.351974 
L 157.596864 174.583958 
L 158.519272 174.720902 
L 159.441679 173.087467 
L 160.364086 173.401175 
L 161.286494 173.507117 
L 162.208901 174.003625 
L 163.131309 173.721113 
L 164.053716 172.497753 
L 164.976123 171.775397 
L 165.898531 171.948148 
L 166.820938 171.832775 
L 167.743345 172.083802 
L 168.665753 172.638135 
L 169.58816 172.597901 
L 170.510568 172.943134 
L 171.432975 172.577821 
L 172.355382 174.246605 
L 174.200197 174.224364 
L 175.122604 173.656615 
L 176.045012 174.179973 
L 176.967419 175.068442 
L 177.889826 175.162399 
L 178.812234 174.652284 
L 179.734641 174.561247 
L 180.657049 173.764255 
L 181.579456 173.549689 
L 182.501863 173.656615 
L 183.424271 173.254018 
L 184.346678 173.358993 
L 185.269085 173.233105 
L 186.191493 173.571018 
L 187.1139 174.06953 
L 188.036308 172.861235 
L 188.958715 171.10234 
L 189.881122 171.029262 
L 191.725937 171.323583 
L 192.648344 170.704451 
L 193.570752 169.767549 
L 194.493159 169.286013 
L 195.415566 167.49204 
L 197.260381 161.671693 
L 198.182789 160.108108 
L 199.105196 159.190677 
L 200.027603 158.844691 
L 201.872418 158.606847 
L 202.794825 157.954116 
L 203.717233 157.752944 
L 204.63964 157.85724 
L 205.562048 157.6255 
L 207.406862 157.514807 
L 208.32927 157.728971 
L 209.251677 159.472915 
L 210.174084 161.825401 
L 211.096492 163.301588 
L 212.018899 163.817544 
L 212.941306 163.324172 
L 213.863714 163.267772 
L 215.708529 163.505992 
L 216.630936 163.324172 
L 217.553343 162.053526 
L 218.475751 161.14991 
L 221.242973 157.784963 
L 222.16538 157.164073 
L 223.087787 156.745513 
L 224.010195 155.797377 
L 224.932602 154.62297 
L 225.85501 153.726469 
L 227.699824 152.411315 
L 229.544639 152.285516 
L 230.467046 152.059276 
L 231.389454 151.616109 
L 233.234269 151.731266 
L 235.079083 151.270147 
L 236.001491 151.227419 
L 236.923898 151.512624 
L 238.768713 151.3667 
L 240.613527 150.651122 
L 241.535935 150.279741 
L 242.458342 150.179469 
L 244.303157 150.294836 
L 245.225564 149.936408 
L 246.147972 149.779631 
L 247.070379 148.915854 
L 247.992786 148.636406 
L 248.915194 148.572949 
L 249.837601 148.047796 
L 250.760009 147.718403 
L 251.682416 147.265779 
L 252.604823 147.182568 
L 253.527231 146.396973 
L 255.372045 145.341467 
L 256.294453 145.102633 
L 257.21686 144.326522 
L 258.139267 143.212015 
L 259.061675 141.877387 
L 260.90649 140.278474 
L 262.751304 138.791911 
L 263.673712 136.937885 
L 264.596119 135.344859 
L 265.518526 133.411375 
L 266.440934 131.803037 
L 267.363341 129.9672 
L 268.285749 129.246457 
L 269.208156 128.226884 
L 270.130563 126.786891 
L 271.052971 125.133215 
L 271.975378 122.734308 
L 273.820193 120.327662 
L 274.7426 119.883898 
L 275.665007 119.20084 
L 279.354637 115.669925 
L 282.121859 114.973081 
L 283.044266 114.812523 
L 283.966674 114.377029 
L 284.889081 114.173513 
L 285.811489 113.295311 
L 286.733896 113.039473 
L 287.656303 112.617691 
L 288.578711 111.839162 
L 289.501118 110.908003 
L 290.423525 109.635842 
L 291.345933 108.661475 
L 292.26834 106.638472 
L 293.190747 105.772262 
L 294.113155 105.210417 
L 295.035562 104.308502 
L 296.880377 100.924992 
L 299.647599 96.855452 
L 300.570006 96.27816 
L 301.492414 95.427162 
L 302.414821 94.215697 
L 303.337229 92.787057 
L 304.259636 91.589552 
L 306.104451 89.788339 
L 307.026858 89.301486 
L 308.871673 87.848256 
L 310.716487 87.157396 
L 313.48371 86.500129 
L 315.328524 86.378886 
L 316.250932 86.307164 
L 317.173339 86.394814 
L 319.018154 87.222462 
L 320.862968 88.037874 
L 321.785376 88.751959 
L 322.707783 89.206334 
L 323.630191 89.805547 
L 324.552598 90.559344 
L 325.475005 91.478623 
L 327.31982 92.628775 
L 328.242227 93.770407 
L 329.164635 95.389096 
L 331.00945 97.621688 
L 331.931857 98.513608 
L 333.776672 99.295272 
L 334.699079 99.988946 
L 336.543894 101.823784 
L 337.466301 102.560339 
L 338.388708 102.963237 
L 339.311116 103.182722 
L 340.233523 103.688823 
L 341.155931 103.430214 
L 342.078338 103.694127 
L 343.000745 104.217968 
L 343.923153 104.52694 
L 344.84556 104.491403 
L 346.690375 104.646163 
L 347.612782 104.64794 
L 349.457597 103.69664 
L 350.380004 103.216027 
L 352.224819 102.705947 
L 353.147226 102.290148 
L 354.069634 101.606724 
L 354.992041 100.724509 
L 355.914448 100.044728 
L 356.836856 99.159207 
L 358.681671 98.276679 
L 359.604078 97.555169 
L 360.526485 96.618483 
L 361.448893 95.285041 
L 362.3713 95.535338 
L 363.293707 96.141991 
L 364.216115 96.251397 
L 365.138522 95.940734 
L 366.06093 94.97636 
L 367.905744 92.375338 
L 368.828152 91.606555 
L 369.750559 92.333484 
L 370.672966 92.380595 
L 371.595374 91.98913 
L 372.517781 91.327056 
L 373.440188 90.507404 
L 374.362596 90.066253 
L 376.207411 87.734198 
L 377.129818 87.18313 
L 378.052225 87.130105 
L 378.974633 87.285875 
L 381.741855 89.10169 
L 382.664262 88.454056 
L 383.58667 88.42632 
L 384.509077 88.823697 
L 385.431484 89.421367 
L 386.353892 90.344288 
L 387.276299 91.553499 
L 388.198706 92.549724 
L 390.043521 93.834331 
L 392.810743 94.759852 
L 393.733151 95.151719 
L 394.655558 95.164377 
L 396.500373 95.569704 
L 398.345187 95.657297 
L 399.267595 95.735654 
L 400.190002 95.490302 
L 402.957224 95.271957 
L 403.879632 95.262523 
L 408.491668 94.501331 
L 409.414076 94.330842 
L 410.336483 94.282817 
L 411.258891 94.022124 
L 412.181298 93.500448 
L 413.103705 93.312886 
L 414.026113 92.794153 
L 415.870927 92.151177 
L 416.793335 91.93211 
L 417.715742 91.451042 
L 418.638149 90.741026 
L 419.560557 90.21761 
L 421.405372 88.88094 
L 425.095001 87.600258 
L 426.017408 87.163901 
L 427.862223 86.688143 
L 428.784631 86.461561 
L 432.47426 86.518197 
L 433.396667 86.843309 
L 435.241482 86.910958 
L 437.086297 87.204991 
L 438.931112 87.815496 
L 441.698334 89.017697 
L 443.543148 89.473959 
L 444.465556 89.989136 
L 445.387963 90.68252 
L 446.310371 91.102345 
L 447.232778 92.057469 
L 448.155185 92.468137 
L 449.077593 92.693396 
L 449.077593 92.693396 
" style="fill:none;stroke:#ff0000;stroke-linecap:square;stroke-width:1.5;"/>
   </g>
   <g id="line2d_93">
    <path clip-path="url(#p8be4982a84)" d="M 69.045757 216.682673 
L 69.968164 218.658244 
L 70.890572 220.124132 
L 71.812979 220.124132 
L 72.735387 221.318282 
L 73.657794 221.318282 
L 74.580201 223.061998 
L 75.502609 224.505977 
L 76.425016 227.243671 
L 77.347423 226.092206 
L 78.269831 227.851805 
L 79.192238 232.079451 
L 81.037053 230.543656 
L 81.95946 227.851805 
L 82.881868 221.736842 
L 84.726682 207.142569 
L 85.64909 203.615627 
L 86.571497 202.809776 
L 87.493904 201.550256 
L 88.416312 196.496088 
L 89.338719 190.748752 
L 92.105941 179.829449 
L 93.028349 174.697997 
L 93.950756 171.813627 
L 94.873163 167.580093 
L 95.795571 165.498466 
L 96.717978 160.673226 
L 97.640385 156.462548 
L 99.4852 146.768797 
L 101.330015 139.463987 
L 102.252422 136.607292 
L 104.097237 129.888975 
L 105.019644 127.26318 
L 106.864459 123.660532 
L 107.786867 121.81712 
L 111.476496 112.268347 
L 112.398903 110.798285 
L 113.321311 110.027312 
L 114.243718 108.512438 
L 115.166125 106.608668 
L 117.933348 102.487377 
L 118.855755 101.494044 
L 119.778162 100.776842 
L 122.545384 97.881004 
L 123.467792 97.204965 
L 126.235014 96.943545 
L 127.157421 97.304571 
L 128.079829 97.396484 
L 129.002236 96.9542 
L 129.924643 96.64334 
L 130.847051 96.483703 
L 134.53668 96.612185 
L 135.459088 96.549518 
L 136.381495 96.599596 
L 137.303902 96.345086 
L 139.148717 96.400745 
L 140.071124 95.614286 
L 140.993532 95.18577 
L 142.838346 95.541903 
L 143.760754 96.193095 
L 144.683161 96.497452 
L 145.605569 96.523554 
L 147.450383 96.12924 
L 149.295198 96.316798 
L 150.217605 96.786195 
L 151.140013 96.906308 
L 152.06242 96.783831 
L 155.75205 96.794745 
L 156.674457 96.382821 
L 157.596864 96.327577 
L 159.441679 96.43861 
L 161.286494 96.722487 
L 162.208901 96.778558 
L 163.131309 96.200459 
L 164.053716 95.979089 
L 165.898531 96.066507 
L 166.820938 96.331996 
L 171.432975 97.142 
L 173.27779 97.824655 
L 175.122604 98.718769 
L 176.967419 100.106289 
L 177.889826 100.495782 
L 182.501863 103.772776 
L 183.424271 104.313723 
L 184.346678 104.612431 
L 185.269085 105.229447 
L 186.191493 106.001636 
L 187.1139 106.418424 
L 192.648344 107.523776 
L 194.493159 107.33823 
L 196.337974 106.750814 
L 197.260381 106.317237 
L 198.182789 106.052624 
L 200.950011 105.666833 
L 201.872418 105.189571 
L 203.717233 105.12872 
L 204.63964 105.81329 
L 205.562048 105.943745 
L 206.484455 105.588447 
L 208.32927 105.143988 
L 209.251677 105.215326 
L 210.174084 105.411674 
L 211.096492 105.430633 
L 212.941306 105.278661 
L 213.863714 105.25865 
L 214.786121 105.376613 
L 216.630936 105.083917 
L 217.553343 103.890202 
L 218.475751 103.353763 
L 220.320565 102.795479 
L 222.16538 102.296035 
L 223.087787 102.296803 
L 224.010195 101.761008 
L 225.85501 100.35741 
L 228.622232 98.485493 
L 229.544639 98.321226 
L 231.389454 97.485884 
L 232.311861 97.422192 
L 233.234269 97.084281 
L 234.156676 96.543606 
L 235.079083 96.158774 
L 236.001491 95.9599 
L 236.923898 95.971826 
L 238.768713 95.766181 
L 241.535935 95.768401 
L 242.458342 95.711817 
L 244.303157 95.920383 
L 247.070379 95.563803 
L 248.915194 95.719135 
L 249.837601 95.561611 
L 250.760009 95.549817 
L 251.682416 95.388429 
L 252.604823 95.093327 
L 253.527231 94.636835 
L 256.294453 93.929096 
L 259.984082 91.812927 
L 261.828897 91.224994 
L 262.751304 90.694105 
L 264.596119 89.040735 
L 267.363341 86.695336 
L 268.285749 86.392524 
L 271.052971 84.064545 
L 271.975378 83.098979 
L 273.820193 81.922738 
L 276.587415 80.530328 
L 278.43223 79.653458 
L 279.354637 79.409439 
L 281.199452 79.075843 
L 282.121859 79.400286 
L 283.044266 79.533012 
L 286.733896 79.355464 
L 288.578711 79.630739 
L 290.423525 79.49211 
L 291.345933 79.373785 
L 292.26834 79.091665 
L 294.113155 78.864495 
L 295.035562 78.287104 
L 296.880377 76.79573 
L 297.802784 76.233144 
L 299.647599 74.816105 
L 300.570006 74.381778 
L 301.492414 73.786306 
L 303.337229 72.177237 
L 304.259636 71.35537 
L 306.104451 69.969099 
L 307.949265 69.175066 
L 308.871673 68.663429 
L 310.716487 68.254758 
L 312.561302 67.793469 
L 315.328524 67.56362 
L 317.173339 67.651439 
L 318.095746 67.799035 
L 319.018154 68.193516 
L 322.707783 69.159602 
L 323.630191 69.537396 
L 324.552598 70.066424 
L 325.475005 70.778316 
L 326.397413 71.204733 
L 327.31982 71.454292 
L 329.164635 73.32128 
L 331.00945 74.692243 
L 331.931857 75.239621 
L 333.776672 75.887824 
L 335.621486 77.070192 
L 336.543894 77.64863 
L 337.466301 78.092915 
L 340.233523 78.687617 
L 341.155931 78.360084 
L 342.078338 78.468309 
L 343.000745 78.820958 
L 344.84556 79.102343 
L 346.690375 79.180339 
L 348.53519 78.927291 
L 351.302412 78.116419 
L 353.147226 77.741844 
L 355.914448 76.18066 
L 356.836856 75.621376 
L 357.759263 75.217621 
L 359.604078 74.677294 
L 360.526485 74.218425 
L 361.448893 73.491075 
L 362.3713 74.140576 
L 363.293707 75.088896 
L 364.216115 75.441501 
L 366.06093 75.28127 
L 367.905744 74.956638 
L 368.828152 75.116833 
L 369.750559 76.47247 
L 370.672966 76.884759 
L 372.517781 76.396711 
L 373.440188 76.009089 
L 374.362596 76.153192 
L 376.207411 73.409065 
L 377.129818 72.890501 
L 378.052225 72.815017 
L 378.974633 72.578999 
L 379.89704 72.567667 
L 380.819447 72.692355 
L 381.741855 72.598769 
L 382.664262 71.631094 
L 383.58667 71.481386 
L 385.431484 71.936459 
L 389.121114 73.778933 
L 392.810743 74.908659 
L 393.733151 74.997091 
L 394.655558 75.204988 
L 395.577965 75.198222 
L 397.42278 75.397893 
L 399.267595 75.597286 
L 401.11241 75.316068 
L 403.879632 75.244158 
L 404.802039 75.323459 
L 405.724446 75.23098 
L 406.646854 75.257635 
L 407.569261 75.142683 
L 409.414076 75.059353 
L 411.258891 74.947444 
L 412.181298 74.735137 
L 413.103705 74.689612 
L 414.94852 74.116551 
L 417.715742 73.506721 
L 422.327779 71.542128 
L 424.172594 71.192729 
L 426.017408 70.523852 
L 428.784631 70.02318 
L 430.629445 70.008435 
L 434.319075 70.252163 
L 436.163889 70.568641 
L 437.086297 70.626999 
L 439.853519 71.476849 
L 440.775926 71.888212 
L 442.620741 72.203757 
L 443.543148 72.331191 
L 444.465556 72.581104 
L 445.387963 73.105622 
L 446.310371 73.432527 
L 447.232778 74.000807 
L 448.155185 74.222594 
L 449.077593 74.325277 
L 449.077593 74.325277 
" style="fill:none;stroke:#f29010;stroke-linecap:square;stroke-width:1.5;"/>
   </g>
   <g id="line2d_94">
    <path clip-path="url(#p8be4982a84)" d="M 106.86281 346.6 
L 106.864459 280.351636 
L 107.786867 280.351636 
L 109.631681 243.248583 
L 110.554089 243.248583 
L 111.476496 240.310717 
L 112.398903 234.698225 
L 113.321311 229.827376 
L 114.243718 226.657655 
L 116.088533 219.74497 
L 117.01094 217.640202 
L 118.855755 212.841001 
L 121.622977 208.023315 
L 124.390199 203.753942 
L 126.235014 202.809776 
L 127.157421 202.042314 
L 128.079829 201.794407 
L 129.002236 202.809776 
L 129.924643 203.342507 
L 130.847051 203.342507 
L 131.769458 204.034187 
L 132.691865 203.893455 
L 133.614273 204.034187 
L 134.53668 204.319391 
L 135.459088 206.307478 
L 136.381495 206.972052 
L 138.22631 208.575838 
L 139.148717 210.14915 
L 140.071124 212.359961 
L 140.993532 213.590608 
L 142.838346 210.997433 
L 143.760754 210.997433 
L 144.683161 211.6643 
L 145.605569 213.087016 
L 146.527976 213.590608 
L 147.450383 214.923074 
L 148.372791 214.64762 
L 149.295198 215.203318 
L 151.140013 215.778867 
L 152.984828 215.203318 
L 154.829642 215.778867 
L 155.75205 217.314662 
L 156.674457 219.374524 
L 157.596864 219.374524 
L 158.519272 219.74497 
L 159.441679 220.512431 
L 160.364086 220.910319 
L 161.286494 220.124132 
L 162.208901 220.512431 
L 163.131309 221.736842 
L 164.976123 223.529093 
L 165.898531 224.010133 
L 166.820938 225.017564 
L 167.743345 227.243671 
L 168.665753 227.851805 
L 169.58816 229.141585 
L 170.510568 229.827376 
L 171.432975 231.293264 
L 173.27779 232.905974 
L 174.200197 236.71506 
L 175.122604 236.71506 
L 176.045012 239.020937 
L 176.967419 240.310717 
L 177.889826 240.310717 
L 178.812234 241.712788 
L 179.734641 241.712788 
L 180.657049 240.310717 
L 181.579456 241.712788 
L 182.501863 240.310717 
L 183.424271 240.310717 
L 184.346678 239.020937 
L 185.269085 240.310717 
L 187.1139 240.310717 
L 188.036308 241.712788 
L 189.881122 239.020937 
L 190.80353 239.020937 
L 191.725937 237.826787 
L 192.648344 239.020937 
L 193.570752 235.675109 
L 194.493159 236.71506 
L 195.415566 236.71506 
L 196.337974 235.675109 
L 198.182789 237.826787 
L 199.105196 237.826787 
L 200.950011 240.310717 
L 201.872418 241.712788 
L 203.717233 239.020937 
L 205.562048 239.020937 
L 206.484455 244.946326 
L 207.406862 243.248583 
L 209.251677 246.844241 
L 211.096492 243.248583 
L 212.018899 241.712788 
L 212.941306 241.712788 
L 213.863714 243.248583 
L 214.786121 240.310717 
L 215.708529 243.248583 
L 217.553343 246.844241 
L 218.475751 243.248583 
L 219.398158 240.310717 
L 220.320565 240.310717 
L 221.242973 236.71506 
L 222.16538 234.698225 
L 223.087787 234.698225 
L 224.010195 233.777194 
L 224.932602 233.777194 
L 226.777417 230.543656 
L 227.699824 230.543656 
L 228.622232 229.141585 
L 229.544639 228.483794 
L 230.467046 227.243671 
L 231.389454 227.243671 
L 232.311861 227.851805 
L 233.234269 227.851805 
L 234.156676 229.827376 
L 235.079083 231.293264 
L 236.001491 231.293264 
L 236.923898 232.905974 
L 237.846305 232.905974 
L 238.768713 234.698225 
L 239.69112 235.675109 
L 242.458342 235.675109 
L 243.38075 233.777194 
L 244.303157 235.675109 
L 247.070379 229.827376 
L 247.992786 229.827376 
L 248.915194 228.483794 
L 249.837601 227.851805 
L 250.760009 227.851805 
L 251.682416 227.243671 
L 252.604823 227.851805 
L 253.527231 229.141585 
L 254.449638 228.483794 
L 255.372045 229.141585 
L 256.294453 231.293264 
L 257.21686 230.543656 
L 258.139267 232.905974 
L 259.061675 232.079451 
L 259.984082 232.079451 
L 260.90649 228.483794 
L 261.828897 228.483794 
L 262.751304 227.851805 
L 263.673712 226.092206 
L 264.596119 225.017564 
L 265.518526 222.608062 
L 268.285749 218.658244 
L 269.208156 216.995569 
L 270.130563 214.376796 
L 271.052971 212.598686 
L 271.975378 211.892866 
L 272.897785 209.943878 
L 274.7426 208.764304 
L 275.665007 206.47107 
L 276.587415 205.66923 
L 277.509822 202.941317 
L 278.43223 202.294095 
L 279.354637 201.429554 
L 281.199452 199.083643 
L 282.121859 198.572056 
L 283.044266 197.500663 
L 283.966674 196.674141 
L 284.889081 194.816062 
L 285.811489 194.113661 
L 286.733896 193.736275 
L 287.656303 191.70628 
L 288.578711 190.810847 
L 290.423525 187.605614 
L 291.345933 186.809716 
L 292.26834 184.507075 
L 293.190747 183.021079 
L 294.113155 182.053224 
L 295.035562 180.083213 
L 295.95797 179.09129 
L 296.880377 177.654184 
L 297.802784 176.77139 
L 299.647599 173.764255 
L 300.570006 172.759442 
L 301.492414 171.212582 
L 303.337229 168.660317 
L 304.259636 167.144562 
L 305.182043 166.266559 
L 306.104451 165.115094 
L 307.026858 163.759393 
L 307.949265 162.714364 
L 308.871673 161.248949 
L 309.79408 160.266223 
L 311.638895 157.881404 
L 314.406117 155.1722 
L 315.328524 154.162085 
L 316.250932 153.559166 
L 317.173339 153.157369 
L 318.095746 152.613497 
L 319.940561 151.997613 
L 322.707783 151.670843 
L 325.475005 152.104271 
L 327.31982 152.800595 
L 328.242227 153.546842 
L 330.087042 154.381147 
L 331.00945 155.043263 
L 333.776672 156.477318 
L 335.621486 157.546356 
L 337.466301 158.207108 
L 339.311116 159.251995 
L 342.078338 160.39761 
L 343.000745 160.730844 
L 343.923153 160.943888 
L 344.84556 160.982928 
L 350.380004 163.13321 
L 351.302412 163.358108 
L 353.147226 163.166745 
L 354.069634 163.088605 
L 354.992041 163.122047 
L 356.836856 162.988692 
L 357.759263 163.166745 
L 360.526485 162.867412 
L 361.448893 162.508954 
L 363.293707 162.551981 
L 364.216115 162.284927 
L 366.06093 162.253176 
L 368.828152 161.388635 
L 369.750559 160.875795 
L 372.517781 159.642864 
L 373.440188 158.973567 
L 374.362596 158.606847 
L 376.207411 157.256858 
L 377.129818 156.964852 
L 378.052225 156.410961 
L 382.664262 155.31592 
L 384.509077 155.219965 
L 385.431484 155.1722 
L 388.198706 155.691482 
L 389.121114 156.133762 
L 390.043521 156.264472 
L 392.810743 157.010608 
L 393.733151 157.064154 
L 394.655558 157.404869 
L 395.577965 157.514807 
L 399.267595 158.422401 
L 408.491668 159.410752 
L 409.414076 159.472915 
L 410.336483 159.234452 
L 411.258891 159.260774 
L 412.181298 159.12959 
L 413.103705 159.12959 
L 415.870927 157.954116 
L 416.793335 157.833111 
L 417.715742 157.585879 
L 419.560557 157.444046 
L 426.017408 154.748575 
L 426.939816 154.465699 
L 427.862223 154.452662 
L 428.784631 154.297036 
L 430.629445 153.534527 
L 432.47426 152.607685 
L 433.396667 152.365456 
L 434.319075 152.257062 
L 435.241482 152.336861 
L 437.086297 151.897216 
L 438.008704 151.797441 
L 440.775926 151.925042 
L 444.465556 152.538104 
L 445.387963 152.847711 
L 448.155185 154.079107 
L 449.077593 155.185833 
L 449.077593 155.185833 
" style="fill:none;stroke:#000000;stroke-linecap:square;stroke-width:1.5;"/>
   </g>
   <g id="line2d_95">
    <path clip-path="url(#p8be4982a84)" d="M 314.402376 346.6 
L 314.406117 195.973437 
L 315.328524 180.537148 
L 316.250932 167.18759 
L 317.173339 158.190665 
L 318.095746 154.123735 
L 319.940561 150.910523 
L 320.862968 145.183074 
L 322.707783 117.292371 
L 323.630191 110.396334 
L 324.552598 105.727854 
L 325.475005 105.229754 
L 326.397413 104.389049 
L 327.31982 99.770138 
L 328.242227 98.850323 
L 329.164635 94.851686 
L 331.931857 91.523822 
L 332.854264 90.893336 
L 333.776672 86.539463 
L 334.699079 85.766426 
L 336.543894 85.786814 
L 337.466301 85.838358 
L 338.388708 85.21156 
L 339.311116 85.141043 
L 340.233523 83.307204 
L 341.155931 82.355213 
L 342.078338 82.935392 
L 343.000745 82.591701 
L 343.923153 82.505262 
L 344.84556 82.881205 
L 345.767967 83.018525 
L 346.690375 84.191057 
L 350.380004 85.112905 
L 351.302412 85.495131 
L 352.224819 85.503075 
L 353.147226 86.945581 
L 354.069634 87.392832 
L 355.914448 86.296632 
L 356.836856 84.662821 
L 358.681671 83.104891 
L 359.604078 81.412152 
L 361.448893 77.498711 
L 362.3713 77.536005 
L 363.293707 77.764506 
L 365.138522 76.900687 
L 366.983337 74.967951 
L 367.905744 74.425259 
L 368.828152 74.394914 
L 369.750559 75.438407 
L 371.595374 75.267582 
L 372.517781 74.988061 
L 373.440188 75.290944 
L 374.362596 76.020313 
L 376.207411 73.97147 
L 378.974633 73.638923 
L 380.819447 73.835604 
L 381.741855 73.5375 
L 382.664262 72.546521 
L 384.509077 73.001629 
L 386.353892 74.085714 
L 388.198706 74.63966 
L 392.810743 75.186557 
L 394.655558 75.056992 
L 395.577965 74.942286 
L 397.42278 74.36051 
L 398.345187 73.781856 
L 402.034817 72.167802 
L 403.879632 71.723779 
L 406.646854 70.882965 
L 409.414076 70.205973 
L 411.258891 69.707581 
L 414.94852 68.265937 
L 415.870927 68.143048 
L 416.793335 67.880375 
L 421.405372 65.053096 
L 423.250186 64.661943 
L 426.017408 62.81457 
L 427.862223 61.181966 
L 429.707038 60.749577 
L 431.551853 57.757797 
L 433.396667 54.869516 
L 434.319075 53.849739 
L 436.163889 53.333154 
L 437.086297 52.068505 
L 438.931112 50.073284 
L 439.853519 49.320434 
L 440.775926 48.917491 
L 442.620741 48.735175 
L 443.543148 48.247424 
L 444.465556 47.972765 
L 445.387963 47.864364 
L 446.310371 47.908197 
L 449.077593 48.354678 
L 449.077593 48.354678 
" style="fill:none;stroke:#f2d410;stroke-linecap:square;stroke-width:1.5;"/>
   </g>
   <g id="line2d_96">
    <path clip-path="url(#p8be4982a84)" d="M 99.4852 239.020937 
L 100.407608 232.905974 
L 101.330015 221.736842 
L 102.252422 208.389551 
L 103.17483 201.07278 
L 104.097237 195.63419 
L 105.942052 186.56885 
L 107.786867 178.646543 
L 111.476496 164.901831 
L 112.398903 161.876965 
L 113.321311 159.251995 
L 115.166125 155.043263 
L 117.01094 151.474665 
L 117.933348 149.882344 
L 119.778162 147.349421 
L 121.622977 145.179409 
L 122.545384 144.295271 
L 123.467792 143.579443 
L 125.312606 142.600997 
L 127.157421 141.925229 
L 128.079829 141.737668 
L 129.924643 141.631463 
L 133.614273 141.985231 
L 135.459088 142.371552 
L 139.148717 143.463719 
L 142.838346 144.621164 
L 146.527976 146.259232 
L 150.217605 148.631865 
L 152.984828 150.687188 
L 158.519272 155.467872 
L 162.208901 158.793428 
L 165.898531 161.743241 
L 168.665753 163.701451 
L 172.355382 165.785519 
L 174.200197 166.734452 
L 176.967419 168.395002 
L 179.734641 169.902959 
L 180.657049 170.246546 
L 182.501863 170.421127 
L 184.346678 170.544469 
L 186.191493 170.421127 
L 191.725937 168.55054 
L 193.570752 168.164474 
L 195.415566 168.210316 
L 200.027603 168.707595 
L 202.794825 169.220709 
L 206.484455 169.204425 
L 209.251677 168.978151 
L 212.018899 168.96211 
L 215.708529 168.707595 
L 219.398158 168.534919 
L 221.242973 167.877127 
L 224.010195 166.553944 
L 225.85501 165.498466 
L 228.622232 163.981493 
L 231.389454 162.692618 
L 234.156676 162.221488 
L 236.923898 161.887298 
L 237.846305 161.928694 
L 239.69112 162.200396 
L 240.613527 162.210939 
L 242.458342 162.433932 
L 243.38075 162.433932 
L 245.225564 162.584327 
L 247.070379 162.32736 
L 251.682416 161.169669 
L 254.449638 159.905765 
L 256.294453 158.939099 
L 262.751304 154.439635 
L 270.130563 148.201784 
L 271.052971 147.257438 
L 273.820193 143.796589 
L 276.587415 140.589674 
L 281.199452 134.872135 
L 283.044266 132.815211 
L 285.811489 129.664945 
L 288.578711 126.707502 
L 294.113155 119.85038 
L 296.880377 116.230846 
L 302.414821 109.218607 
L 305.182043 105.861448 
L 310.716487 100.095566 
L 312.561302 98.409686 
L 315.328524 96.287678 
L 317.173339 95.203729 
L 319.018154 94.4561 
L 320.862968 93.95852 
L 322.707783 93.704332 
L 324.552598 93.826762 
L 326.397413 94.128795 
L 328.242227 94.677311 
L 331.00945 95.604143 
L 336.543894 97.772175 
L 340.233523 99.302924 
L 342.078338 100.030486 
L 343.923153 100.77195 
L 347.612782 101.916033 
L 349.457597 102.281961 
L 351.302412 102.429452 
L 354.069634 102.453993 
L 356.836856 102.266366 
L 362.3713 101.741209 
L 363.293707 101.776617 
L 365.138522 101.554808 
L 366.983337 101.033276 
L 368.828152 100.383762 
L 369.750559 100.18784 
L 371.595374 99.493909 
L 374.362596 98.031586 
L 376.207411 96.86879 
L 378.052225 96.158249 
L 379.89704 95.616654 
L 383.58667 94.927347 
L 385.431484 94.942587 
L 388.198706 95.401607 
L 393.733151 96.483168 
L 397.42278 97.258998 
L 400.190002 97.656971 
L 403.879632 97.878863 
L 409.414076 97.92486 
L 414.026113 97.5342 
L 418.638149 96.856913 
L 421.405372 96.122956 
L 424.172594 95.247804 
L 426.939816 94.297771 
L 432.47426 92.591303 
L 436.163889 91.816668 
L 438.931112 91.441511 
L 441.698334 91.311641 
L 444.465556 91.362086 
L 447.232778 91.687859 
L 450 92.294352 
L 450 92.294352 
" style="fill:none;stroke:#663300;stroke-linecap:square;stroke-width:1.5;"/>
   </g>
   <g id="line2d_97">
    <path clip-path="url(#p8be4982a84)" d="M 269.208156 124.690461 
L 272.897785 125.105777 
L 277.509822 125.6538 
L 281.199452 126.111881 
L 292.26834 127.230665 
L 302.414821 127.839956 
L 312.561302 127.984283 
L 315.328524 128.157924 
L 322.707783 128.988136 
L 326.397413 128.957306 
L 328.242227 128.78018 
L 335.621486 127.786321 
L 338.388708 127.584611 
L 349.457597 126.651697 
L 354.069634 126.510723 
L 361.448893 126.619233 
L 366.06093 126.663307 
L 368.828152 126.952764 
L 372.517781 127.542853 
L 374.362596 128.008253 
L 380.819447 129.921641 
L 383.58667 130.559659 
L 386.353892 130.891418 
L 391.888336 130.736644 
L 396.500373 130.30578 
L 399.267595 129.982891 
L 405.724446 129.750526 
L 408.491668 129.798425 
L 411.258891 130.087409 
L 414.026113 130.47704 
L 417.715742 131.167054 
L 425.095001 132.345734 
L 427.862223 132.590503 
L 430.629445 132.909059 
L 433.396667 133.383151 
L 442.620741 135.164728 
L 445.387963 135.589557 
L 445.387963 135.589557 
" style="fill:none;stroke:#0000ff;stroke-linecap:square;stroke-width:1.5;"/>
   </g>
   <g id="patch_3">
    <path d="M 56.132054 291.976 
L 56.132054 36.24 
" style="fill:none;stroke:#000000;stroke-linecap:square;stroke-linejoin:miter;stroke-width:0.8;"/>
   </g>
   <g id="patch_4">
    <path d="M 450 291.976 
L 450 36.24 
" style="fill:none;stroke:#000000;stroke-linecap:square;stroke-linejoin:miter;stroke-width:0.8;"/>
   </g>
   <g id="patch_5">
    <path d="M 56.132054 291.976 
L 450 291.976 
" style="fill:none;stroke:#000000;stroke-linecap:square;stroke-linejoin:miter;stroke-width:0.8;"/>
   </g>
   <g id="patch_6">
    <path d="M 56.132054 36.24 
L 450 36.24 
" style="fill:none;stroke:#000000;stroke-linecap:square;stroke-linejoin:miter;stroke-width:0.8;"/>
   </g>
   <g id="text_14">
    <!-- data: MZČR, výpočet: daim -->
    <g transform="translate(116.809777 30.24)scale(0.2 -0.2)">
     <defs>
      <path d="M 11.71875 12.40625 
L 22.015625 12.40625 
L 22.015625 0 
L 11.71875 0 
z
M 11.71875 51.703125 
L 22.015625 51.703125 
L 22.015625 39.3125 
L 11.71875 39.3125 
z
" id="DejaVuSans-58"/>
      <path d="M 9.8125 72.90625 
L 24.515625 72.90625 
L 43.109375 23.296875 
L 61.8125 72.90625 
L 76.515625 72.90625 
L 76.515625 0 
L 66.890625 0 
L 66.890625 64.015625 
L 48.09375 14.015625 
L 38.1875 14.015625 
L 19.390625 64.015625 
L 19.390625 0 
L 9.8125 0 
z
" id="DejaVuSans-77"/>
      <path d="M 5.609375 72.90625 
L 62.890625 72.90625 
L 62.890625 65.375 
L 16.796875 8.296875 
L 64.015625 8.296875 
L 64.015625 0 
L 4.5 0 
L 4.5 7.515625 
L 50.59375 64.59375 
L 5.609375 64.59375 
z
" id="DejaVuSans-90"/>
      <path d="M 64.40625 67.28125 
L 64.40625 56.890625 
Q 59.421875 61.53125 53.78125 63.8125 
Q 48.140625 66.109375 41.796875 66.109375 
Q 29.296875 66.109375 22.65625 58.46875 
Q 16.015625 50.828125 16.015625 36.375 
Q 16.015625 21.96875 22.65625 14.328125 
Q 29.296875 6.6875 41.796875 6.6875 
Q 48.140625 6.6875 53.78125 8.984375 
Q 59.421875 11.28125 64.40625 15.921875 
L 64.40625 5.609375 
Q 59.234375 2.09375 53.4375 0.328125 
Q 47.65625 -1.421875 41.21875 -1.421875 
Q 24.65625 -1.421875 15.125 8.703125 
Q 5.609375 18.84375 5.609375 36.375 
Q 5.609375 53.953125 15.125 64.078125 
Q 24.65625 74.21875 41.21875 74.21875 
Q 47.75 74.21875 53.53125 72.484375 
Q 59.328125 70.75 64.40625 67.28125 
z
M 35.15625 79.625 
L 24.859375 92.609375 
L 31.640625 92.609375 
L 39.75 83.921875 
L 47.859375 92.609375 
L 54.640625 92.609375 
L 44.34375 79.625 
z
" id="DejaVuSans-268"/>
      <path d="M 44.390625 34.1875 
Q 47.5625 33.109375 50.5625 29.59375 
Q 53.5625 26.078125 56.59375 19.921875 
L 66.609375 0 
L 56 0 
L 46.6875 18.703125 
Q 43.0625 26.03125 39.671875 28.421875 
Q 36.28125 30.8125 30.421875 30.8125 
L 19.671875 30.8125 
L 19.671875 0 
L 9.8125 0 
L 9.8125 72.90625 
L 32.078125 72.90625 
Q 44.578125 72.90625 50.734375 67.671875 
Q 56.890625 62.453125 56.890625 51.90625 
Q 56.890625 45.015625 53.6875 40.46875 
Q 50.484375 35.9375 44.390625 34.1875 
z
M 19.671875 64.796875 
L 19.671875 38.921875 
L 32.078125 38.921875 
Q 39.203125 38.921875 42.84375 42.21875 
Q 46.484375 45.515625 46.484375 51.90625 
Q 46.484375 58.296875 42.84375 61.546875 
Q 39.203125 64.796875 32.078125 64.796875 
z
" id="DejaVuSans-82"/>
      <path d="M 11.71875 12.40625 
L 22.015625 12.40625 
L 22.015625 4 
L 14.015625 -11.625 
L 7.71875 -11.625 
L 11.71875 4 
z
" id="DejaVuSans-44"/>
      <path d="M 2.984375 54.6875 
L 12.5 54.6875 
L 29.59375 8.796875 
L 46.6875 54.6875 
L 56.203125 54.6875 
L 35.6875 0 
L 23.484375 0 
z
" id="DejaVuSans-118"/>
      <path d="M 32.171875 -5.078125 
Q 28.375 -14.84375 24.75 -17.8125 
Q 21.140625 -20.796875 15.09375 -20.796875 
L 7.90625 -20.796875 
L 7.90625 -13.28125 
L 13.1875 -13.28125 
Q 16.890625 -13.28125 18.9375 -11.515625 
Q 21 -9.765625 23.484375 -3.21875 
L 25.09375 0.875 
L 2.984375 54.6875 
L 12.5 54.6875 
L 29.59375 11.921875 
L 46.6875 54.6875 
L 56.203125 54.6875 
z
M 36.40625 79.984375 
L 46.125 79.984375 
L 30.21875 61.625 
L 22.734375 61.625 
z
" id="DejaVuSans-253"/>
      <path d="M 48.78125 52.59375 
L 48.78125 44.1875 
Q 44.96875 46.296875 41.140625 47.34375 
Q 37.3125 48.390625 33.40625 48.390625 
Q 24.65625 48.390625 19.8125 42.84375 
Q 14.984375 37.3125 14.984375 27.296875 
Q 14.984375 17.28125 19.8125 11.734375 
Q 24.65625 6.203125 33.40625 6.203125 
Q 37.3125 6.203125 41.140625 7.25 
Q 44.96875 8.296875 48.78125 10.40625 
L 48.78125 2.09375 
Q 45.015625 0.34375 40.984375 -0.53125 
Q 36.96875 -1.421875 32.421875 -1.421875 
Q 20.0625 -1.421875 12.78125 6.34375 
Q 5.515625 14.109375 5.515625 27.296875 
Q 5.515625 40.671875 12.859375 48.328125 
Q 20.21875 56 33.015625 56 
Q 37.15625 56 41.109375 55.140625 
Q 45.0625 54.296875 48.78125 52.59375 
z
M 28.140625 61.625 
L 16.171875 79.984375 
L 22.96875 79.984375 
L 31.75 68.015625 
L 40.546875 79.984375 
L 47.328125 79.984375 
L 35.359375 61.625 
z
" id="DejaVuSans-269"/>
     </defs>
     <use xlink:href="#DejaVuSans-100"/>
     <use x="63.476562" xlink:href="#DejaVuSans-97"/>
     <use x="124.755859" xlink:href="#DejaVuSans-116"/>
     <use x="163.964844" xlink:href="#DejaVuSans-97"/>
     <use x="225.244141" xlink:href="#DejaVuSans-58"/>
     <use x="258.935547" xlink:href="#DejaVuSans-32"/>
     <use x="290.722656" xlink:href="#DejaVuSans-77"/>
     <use x="377.001953" xlink:href="#DejaVuSans-90"/>
     <use x="445.507812" xlink:href="#DejaVuSans-268"/>
     <use x="515.332031" xlink:href="#DejaVuSans-82"/>
     <use x="584.814453" xlink:href="#DejaVuSans-44"/>
     <use x="616.601562" xlink:href="#DejaVuSans-32"/>
     <use x="648.388672" xlink:href="#DejaVuSans-118"/>
     <use x="707.568359" xlink:href="#DejaVuSans-253"/>
     <use x="766.748047" xlink:href="#DejaVuSans-112"/>
     <use x="830.224609" xlink:href="#DejaVuSans-111"/>
     <use x="891.40625" xlink:href="#DejaVuSans-269"/>
     <use x="946.386719" xlink:href="#DejaVuSans-101"/>
     <use x="1007.910156" xlink:href="#DejaVuSans-116"/>
     <use x="1047.119141" xlink:href="#DejaVuSans-58"/>
     <use x="1080.810547" xlink:href="#DejaVuSans-32"/>
     <use x="1112.597656" xlink:href="#DejaVuSans-100"/>
     <use x="1176.074219" xlink:href="#DejaVuSans-97"/>
     <use x="1237.353516" xlink:href="#DejaVuSans-105"/>
     <use x="1265.136719" xlink:href="#DejaVuSans-109"/>
    </g>
   </g>
   <g id="legend_1">
    <g id="patch_7">
     <path d="M 225.479687 286.976 
L 443 286.976 
Q 445 286.976 445 284.976 
L 445 195.426 
Q 445 193.426 443 193.426 
L 225.479687 193.426 
Q 223.479687 193.426 223.479687 195.426 
L 223.479687 284.976 
Q 223.479687 286.976 225.479687 286.976 
z
" style="fill:#ffffff;opacity:0.8;stroke:#cccccc;stroke-linejoin:miter;"/>
    </g>
    <g id="line2d_98">
     <path d="M 227.479687 201.924437 
L 247.479687 201.924437 
" style="fill:none;stroke:#ff0000;stroke-linecap:square;stroke-width:1.5;"/>
    </g>
    <g id="line2d_99"/>
    <g id="text_15">
     <!-- Potvrzené případy za den -->
     <g transform="translate(255.479687 205.424437)scale(0.1 -0.1)">
      <defs>
       <path d="M 19.671875 64.796875 
L 19.671875 37.40625 
L 32.078125 37.40625 
Q 38.96875 37.40625 42.71875 40.96875 
Q 46.484375 44.53125 46.484375 51.125 
Q 46.484375 57.671875 42.71875 61.234375 
Q 38.96875 64.796875 32.078125 64.796875 
z
M 9.8125 72.90625 
L 32.078125 72.90625 
Q 44.34375 72.90625 50.609375 67.359375 
Q 56.890625 61.8125 56.890625 51.125 
Q 56.890625 40.328125 50.609375 34.8125 
Q 44.34375 29.296875 32.078125 29.296875 
L 19.671875 29.296875 
L 19.671875 0 
L 9.8125 0 
z
" id="DejaVuSans-80"/>
       <path d="M 5.515625 54.6875 
L 48.1875 54.6875 
L 48.1875 46.484375 
L 14.40625 7.171875 
L 48.1875 7.171875 
L 48.1875 0 
L 4.296875 0 
L 4.296875 8.203125 
L 38.09375 47.515625 
L 5.515625 47.515625 
z
" id="DejaVuSans-122"/>
       <path d="M 56.203125 29.59375 
L 56.203125 25.203125 
L 14.890625 25.203125 
Q 15.484375 15.921875 20.484375 11.0625 
Q 25.484375 6.203125 34.421875 6.203125 
Q 39.59375 6.203125 44.453125 7.46875 
Q 49.3125 8.734375 54.109375 11.28125 
L 54.109375 2.78125 
Q 49.265625 0.734375 44.1875 -0.34375 
Q 39.109375 -1.421875 33.890625 -1.421875 
Q 20.796875 -1.421875 13.15625 6.1875 
Q 5.515625 13.8125 5.515625 26.8125 
Q 5.515625 40.234375 12.765625 48.109375 
Q 20.015625 56 32.328125 56 
Q 43.359375 56 49.78125 48.890625 
Q 56.203125 41.796875 56.203125 29.59375 
z
M 47.21875 32.234375 
Q 47.125 39.59375 43.09375 43.984375 
Q 39.0625 48.390625 32.421875 48.390625 
Q 24.90625 48.390625 20.390625 44.140625 
Q 15.875 39.890625 15.1875 32.171875 
z
M 38.53125 79.984375 
L 48.25 79.984375 
L 32.34375 61.625 
L 24.859375 61.625 
z
" id="DejaVuSans-233"/>
       <path d="M 41.109375 46.296875 
Q 39.59375 47.171875 37.8125 47.578125 
Q 36.03125 48 33.890625 48 
Q 26.265625 48 22.1875 43.046875 
Q 18.109375 38.09375 18.109375 28.8125 
L 18.109375 0 
L 9.078125 0 
L 9.078125 54.6875 
L 18.109375 54.6875 
L 18.109375 46.1875 
Q 20.953125 51.171875 25.484375 53.578125 
Q 30.03125 56 36.53125 56 
Q 37.453125 56 38.578125 55.875 
Q 39.703125 55.765625 41.0625 55.515625 
z
M 22.765625 61.625 
L 10.796875 79.984375 
L 17.59375 79.984375 
L 26.375 68.015625 
L 35.171875 79.984375 
L 41.953125 79.984375 
L 29.984375 61.625 
z
" id="DejaVuSans-345"/>
       <path d="M 20.65625 79.984375 
L 30.375 79.984375 
L 14.46875 61.625 
L 6.984375 61.625 
z
M 9.421875 54.6875 
L 18.40625 54.6875 
L 18.40625 0 
L 9.421875 0 
z
M 13.921875 56 
z
" id="DejaVuSans-237"/>
       <path d="M 32.171875 -5.078125 
Q 28.375 -14.84375 24.75 -17.8125 
Q 21.140625 -20.796875 15.09375 -20.796875 
L 7.90625 -20.796875 
L 7.90625 -13.28125 
L 13.1875 -13.28125 
Q 16.890625 -13.28125 18.9375 -11.515625 
Q 21 -9.765625 23.484375 -3.21875 
L 25.09375 0.875 
L 2.984375 54.6875 
L 12.5 54.6875 
L 29.59375 11.921875 
L 46.6875 54.6875 
L 56.203125 54.6875 
z
" id="DejaVuSans-121"/>
      </defs>
      <use xlink:href="#DejaVuSans-80"/>
      <use x="56.677734" xlink:href="#DejaVuSans-111"/>
      <use x="117.859375" xlink:href="#DejaVuSans-116"/>
      <use x="157.068359" xlink:href="#DejaVuSans-118"/>
      <use x="216.248047" xlink:href="#DejaVuSans-114"/>
      <use x="257.361328" xlink:href="#DejaVuSans-122"/>
      <use x="309.851562" xlink:href="#DejaVuSans-101"/>
      <use x="371.375" xlink:href="#DejaVuSans-110"/>
      <use x="434.753906" xlink:href="#DejaVuSans-233"/>
      <use x="496.277344" xlink:href="#DejaVuSans-32"/>
      <use x="528.064453" xlink:href="#DejaVuSans-112"/>
      <use x="591.541016" xlink:href="#DejaVuSans-345"/>
      <use x="632.654297" xlink:href="#DejaVuSans-237"/>
      <use x="660.4375" xlink:href="#DejaVuSans-112"/>
      <use x="723.914062" xlink:href="#DejaVuSans-97"/>
      <use x="785.193359" xlink:href="#DejaVuSans-100"/>
      <use x="848.669922" xlink:href="#DejaVuSans-121"/>
      <use x="907.849609" xlink:href="#DejaVuSans-32"/>
      <use x="939.636719" xlink:href="#DejaVuSans-122"/>
      <use x="992.126953" xlink:href="#DejaVuSans-97"/>
      <use x="1053.40625" xlink:href="#DejaVuSans-32"/>
      <use x="1085.193359" xlink:href="#DejaVuSans-100"/>
      <use x="1148.669922" xlink:href="#DejaVuSans-101"/>
      <use x="1210.193359" xlink:href="#DejaVuSans-110"/>
     </g>
    </g>
    <g id="line2d_100">
     <path d="M 227.479687 217.002562 
L 247.479687 217.002562 
" style="fill:none;stroke:#f29010;stroke-linecap:square;stroke-width:1.5;"/>
    </g>
    <g id="line2d_101"/>
    <g id="text_16">
     <!-- Provedené testy za den -->
     <g transform="translate(255.479687 220.502562)scale(0.1 -0.1)">
      <use xlink:href="#DejaVuSans-80"/>
      <use x="58.552734" xlink:href="#DejaVuSans-114"/>
      <use x="97.416016" xlink:href="#DejaVuSans-111"/>
      <use x="158.597656" xlink:href="#DejaVuSans-118"/>
      <use x="217.777344" xlink:href="#DejaVuSans-101"/>
      <use x="279.300781" xlink:href="#DejaVuSans-100"/>
      <use x="342.777344" xlink:href="#DejaVuSans-101"/>
      <use x="404.300781" xlink:href="#DejaVuSans-110"/>
      <use x="467.679688" xlink:href="#DejaVuSans-233"/>
      <use x="529.203125" xlink:href="#DejaVuSans-32"/>
      <use x="560.990234" xlink:href="#DejaVuSans-116"/>
      <use x="600.199219" xlink:href="#DejaVuSans-101"/>
      <use x="661.722656" xlink:href="#DejaVuSans-115"/>
      <use x="713.822266" xlink:href="#DejaVuSans-116"/>
      <use x="753.03125" xlink:href="#DejaVuSans-121"/>
      <use x="812.210938" xlink:href="#DejaVuSans-32"/>
      <use x="843.998047" xlink:href="#DejaVuSans-122"/>
      <use x="896.488281" xlink:href="#DejaVuSans-97"/>
      <use x="957.767578" xlink:href="#DejaVuSans-32"/>
      <use x="989.554688" xlink:href="#DejaVuSans-100"/>
      <use x="1053.03125" xlink:href="#DejaVuSans-101"/>
      <use x="1114.554688" xlink:href="#DejaVuSans-110"/>
     </g>
    </g>
    <g id="line2d_102">
     <path d="M 227.479687 231.680687 
L 247.479687 231.680687 
" style="fill:none;stroke:#000000;stroke-linecap:square;stroke-width:1.5;"/>
    </g>
    <g id="line2d_103"/>
    <g id="text_17">
     <!-- Zemřelí za den -->
     <g transform="translate(255.479687 235.180687)scale(0.1 -0.1)">
      <use xlink:href="#DejaVuSans-90"/>
      <use x="68.505859" xlink:href="#DejaVuSans-101"/>
      <use x="130.029297" xlink:href="#DejaVuSans-109"/>
      <use x="227.441406" xlink:href="#DejaVuSans-345"/>
      <use x="266.304688" xlink:href="#DejaVuSans-101"/>
      <use x="327.828125" xlink:href="#DejaVuSans-108"/>
      <use x="355.611328" xlink:href="#DejaVuSans-237"/>
      <use x="383.394531" xlink:href="#DejaVuSans-32"/>
      <use x="415.181641" xlink:href="#DejaVuSans-122"/>
      <use x="467.671875" xlink:href="#DejaVuSans-97"/>
      <use x="528.951172" xlink:href="#DejaVuSans-32"/>
      <use x="560.738281" xlink:href="#DejaVuSans-100"/>
      <use x="624.214844" xlink:href="#DejaVuSans-101"/>
      <use x="685.738281" xlink:href="#DejaVuSans-110"/>
     </g>
    </g>
    <g id="line2d_104">
     <path d="M 227.479687 246.758812 
L 247.479687 246.758812 
" style="fill:none;stroke:#f2d410;stroke-linecap:square;stroke-width:1.5;"/>
    </g>
    <g id="line2d_105"/>
    <g id="text_18">
     <!-- Provedené AG testy za den -->
     <g transform="translate(255.479687 250.258812)scale(0.1 -0.1)">
      <defs>
       <path d="M 59.515625 10.40625 
L 59.515625 29.984375 
L 43.40625 29.984375 
L 43.40625 38.09375 
L 69.28125 38.09375 
L 69.28125 6.78125 
Q 63.578125 2.734375 56.6875 0.65625 
Q 49.8125 -1.421875 42 -1.421875 
Q 24.90625 -1.421875 15.25 8.5625 
Q 5.609375 18.5625 5.609375 36.375 
Q 5.609375 54.25 15.25 64.234375 
Q 24.90625 74.21875 42 74.21875 
Q 49.125 74.21875 55.546875 72.453125 
Q 61.96875 70.703125 67.390625 67.28125 
L 67.390625 56.78125 
Q 61.921875 61.421875 55.765625 63.765625 
Q 49.609375 66.109375 42.828125 66.109375 
Q 29.4375 66.109375 22.71875 58.640625 
Q 16.015625 51.171875 16.015625 36.375 
Q 16.015625 21.625 22.71875 14.15625 
Q 29.4375 6.6875 42.828125 6.6875 
Q 48.046875 6.6875 52.140625 7.59375 
Q 56.25 8.5 59.515625 10.40625 
z
" id="DejaVuSans-71"/>
      </defs>
      <use xlink:href="#DejaVuSans-80"/>
      <use x="58.552734" xlink:href="#DejaVuSans-114"/>
      <use x="97.416016" xlink:href="#DejaVuSans-111"/>
      <use x="158.597656" xlink:href="#DejaVuSans-118"/>
      <use x="217.777344" xlink:href="#DejaVuSans-101"/>
      <use x="279.300781" xlink:href="#DejaVuSans-100"/>
      <use x="342.777344" xlink:href="#DejaVuSans-101"/>
      <use x="404.300781" xlink:href="#DejaVuSans-110"/>
      <use x="467.679688" xlink:href="#DejaVuSans-233"/>
      <use x="529.203125" xlink:href="#DejaVuSans-32"/>
      <use x="560.990234" xlink:href="#DejaVuSans-65"/>
      <use x="627.648438" xlink:href="#DejaVuSans-71"/>
      <use x="705.138672" xlink:href="#DejaVuSans-32"/>
      <use x="736.925781" xlink:href="#DejaVuSans-116"/>
      <use x="776.134766" xlink:href="#DejaVuSans-101"/>
      <use x="837.658203" xlink:href="#DejaVuSans-115"/>
      <use x="889.757812" xlink:href="#DejaVuSans-116"/>
      <use x="928.966797" xlink:href="#DejaVuSans-121"/>
      <use x="988.146484" xlink:href="#DejaVuSans-32"/>
      <use x="1019.933594" xlink:href="#DejaVuSans-122"/>
      <use x="1072.423828" xlink:href="#DejaVuSans-97"/>
      <use x="1133.703125" xlink:href="#DejaVuSans-32"/>
      <use x="1165.490234" xlink:href="#DejaVuSans-100"/>
      <use x="1228.966797" xlink:href="#DejaVuSans-101"/>
      <use x="1290.490234" xlink:href="#DejaVuSans-110"/>
     </g>
    </g>
    <g id="line2d_106">
     <path d="M 227.479687 261.836937 
L 247.479687 261.836937 
" style="fill:none;stroke:#663300;stroke-linecap:square;stroke-width:1.5;"/>
    </g>
    <g id="line2d_107"/>
    <g id="text_19">
     <!-- Počet hospitalizovaných celkem -->
     <g transform="translate(255.479687 265.336937)scale(0.1 -0.1)">
      <defs>
       <path d="M 54.890625 33.015625 
L 54.890625 0 
L 45.90625 0 
L 45.90625 32.71875 
Q 45.90625 40.484375 42.875 44.328125 
Q 39.84375 48.1875 33.796875 48.1875 
Q 26.515625 48.1875 22.3125 43.546875 
Q 18.109375 38.921875 18.109375 30.90625 
L 18.109375 0 
L 9.078125 0 
L 9.078125 75.984375 
L 18.109375 75.984375 
L 18.109375 46.1875 
Q 21.34375 51.125 25.703125 53.5625 
Q 30.078125 56 35.796875 56 
Q 45.21875 56 50.046875 50.171875 
Q 54.890625 44.34375 54.890625 33.015625 
z
" id="DejaVuSans-104"/>
      </defs>
      <use xlink:href="#DejaVuSans-80"/>
      <use x="56.677734" xlink:href="#DejaVuSans-111"/>
      <use x="117.859375" xlink:href="#DejaVuSans-269"/>
      <use x="172.839844" xlink:href="#DejaVuSans-101"/>
      <use x="234.363281" xlink:href="#DejaVuSans-116"/>
      <use x="273.572266" xlink:href="#DejaVuSans-32"/>
      <use x="305.359375" xlink:href="#DejaVuSans-104"/>
      <use x="368.738281" xlink:href="#DejaVuSans-111"/>
      <use x="429.919922" xlink:href="#DejaVuSans-115"/>
      <use x="482.019531" xlink:href="#DejaVuSans-112"/>
      <use x="545.496094" xlink:href="#DejaVuSans-105"/>
      <use x="573.279297" xlink:href="#DejaVuSans-116"/>
      <use x="612.488281" xlink:href="#DejaVuSans-97"/>
      <use x="673.767578" xlink:href="#DejaVuSans-108"/>
      <use x="701.550781" xlink:href="#DejaVuSans-105"/>
      <use x="729.333984" xlink:href="#DejaVuSans-122"/>
      <use x="781.824219" xlink:href="#DejaVuSans-111"/>
      <use x="843.005859" xlink:href="#DejaVuSans-118"/>
      <use x="902.185547" xlink:href="#DejaVuSans-97"/>
      <use x="963.464844" xlink:href="#DejaVuSans-110"/>
      <use x="1026.84375" xlink:href="#DejaVuSans-253"/>
      <use x="1086.023438" xlink:href="#DejaVuSans-99"/>
      <use x="1141.003906" xlink:href="#DejaVuSans-104"/>
      <use x="1204.382812" xlink:href="#DejaVuSans-32"/>
      <use x="1236.169922" xlink:href="#DejaVuSans-99"/>
      <use x="1291.150391" xlink:href="#DejaVuSans-101"/>
      <use x="1352.673828" xlink:href="#DejaVuSans-108"/>
      <use x="1380.457031" xlink:href="#DejaVuSans-107"/>
      <use x="1434.742188" xlink:href="#DejaVuSans-101"/>
      <use x="1496.265625" xlink:href="#DejaVuSans-109"/>
     </g>
    </g>
    <g id="line2d_108">
     <path d="M 227.479687 277.396312 
L 247.479687 277.396312 
" style="fill:none;stroke:#0000ff;stroke-linecap:square;stroke-width:1.5;"/>
    </g>
    <g id="line2d_109"/>
    <g id="text_20">
     <!-- Počet dostupných ventilátorů celkem -->
     <g transform="translate(255.479687 280.896312)scale(0.1 -0.1)">
      <defs>
       <path d="M 8.5 21.578125 
L 8.5 54.6875 
L 17.484375 54.6875 
L 17.484375 21.921875 
Q 17.484375 14.15625 20.5 10.265625 
Q 23.53125 6.390625 29.59375 6.390625 
Q 36.859375 6.390625 41.078125 11.03125 
Q 45.3125 15.671875 45.3125 23.6875 
L 45.3125 54.6875 
L 54.296875 54.6875 
L 54.296875 0 
L 45.3125 0 
L 45.3125 8.40625 
Q 42.046875 3.421875 37.71875 1 
Q 33.40625 -1.421875 27.6875 -1.421875 
Q 18.265625 -1.421875 13.375 4.4375 
Q 8.5 10.296875 8.5 21.578125 
z
M 31.109375 56 
z
M 38.421875 71.421875 
Q 38.421875 74.484375 36.265625 76.625 
Q 34.125 78.78125 31 78.78125 
Q 27.828125 78.78125 25.703125 76.65625 
Q 23.578125 74.546875 23.578125 71.421875 
Q 23.578125 68.234375 25.703125 66.109375 
Q 27.828125 64 31 64 
Q 34.125 64 36.265625 66.140625 
Q 38.421875 68.296875 38.421875 71.421875 
z
M 44.375 71.421875 
Q 44.375 65.796875 40.484375 61.890625 
Q 36.609375 57.984375 31 57.984375 
Q 25.390625 57.984375 21.5 61.890625 
Q 17.625 65.796875 17.625 71.421875 
Q 17.625 77.03125 21.5 80.90625 
Q 25.390625 84.796875 31 84.796875 
Q 36.609375 84.796875 40.484375 80.90625 
Q 44.375 77.03125 44.375 71.421875 
z
" id="DejaVuSans-367"/>
      </defs>
      <use xlink:href="#DejaVuSans-80"/>
      <use x="56.677734" xlink:href="#DejaVuSans-111"/>
      <use x="117.859375" xlink:href="#DejaVuSans-269"/>
      <use x="172.839844" xlink:href="#DejaVuSans-101"/>
      <use x="234.363281" xlink:href="#DejaVuSans-116"/>
      <use x="273.572266" xlink:href="#DejaVuSans-32"/>
      <use x="305.359375" xlink:href="#DejaVuSans-100"/>
      <use x="368.835938" xlink:href="#DejaVuSans-111"/>
      <use x="430.017578" xlink:href="#DejaVuSans-115"/>
      <use x="482.117188" xlink:href="#DejaVuSans-116"/>
      <use x="521.326172" xlink:href="#DejaVuSans-117"/>
      <use x="584.705078" xlink:href="#DejaVuSans-112"/>
      <use x="648.181641" xlink:href="#DejaVuSans-110"/>
      <use x="711.560547" xlink:href="#DejaVuSans-253"/>
      <use x="770.740234" xlink:href="#DejaVuSans-99"/>
      <use x="825.720703" xlink:href="#DejaVuSans-104"/>
      <use x="889.099609" xlink:href="#DejaVuSans-32"/>
      <use x="920.886719" xlink:href="#DejaVuSans-118"/>
      <use x="980.066406" xlink:href="#DejaVuSans-101"/>
      <use x="1041.589844" xlink:href="#DejaVuSans-110"/>
      <use x="1104.96875" xlink:href="#DejaVuSans-116"/>
      <use x="1144.177734" xlink:href="#DejaVuSans-105"/>
      <use x="1171.960938" xlink:href="#DejaVuSans-108"/>
      <use x="1199.744141" xlink:href="#DejaVuSans-225"/>
      <use x="1261.023438" xlink:href="#DejaVuSans-116"/>
      <use x="1300.232422" xlink:href="#DejaVuSans-111"/>
      <use x="1361.414062" xlink:href="#DejaVuSans-114"/>
      <use x="1402.527344" xlink:href="#DejaVuSans-367"/>
      <use x="1465.90625" xlink:href="#DejaVuSans-32"/>
      <use x="1497.693359" xlink:href="#DejaVuSans-99"/>
      <use x="1552.673828" xlink:href="#DejaVuSans-101"/>
      <use x="1614.197266" xlink:href="#DejaVuSans-108"/>
      <use x="1641.980469" xlink:href="#DejaVuSans-107"/>
      <use x="1696.265625" xlink:href="#DejaVuSans-101"/>
      <use x="1757.789062" xlink:href="#DejaVuSans-109"/>
     </g>
    </g>
   </g>
  </g>
 </g>
 <defs>
  <clipPath id="p8be4982a84">
   <rect height="255.736" width="393.867946" x="56.132054" y="36.24"/>
  </clipPath>
 </defs>
</svg>
