<?xml version="1.0" encoding="utf-8" standalone="no"?>
<!DOCTYPE svg PUBLIC "-//W3C//DTD SVG 1.1//EN"
  "http://www.w3.org/Graphics/SVG/1.1/DTD/svg11.dtd">
<!-- Created with matplotlib (https://matplotlib.org/) -->
<svg height="345.6pt" version="1.1" viewBox="0 0 460.8 345.6" width="460.8pt" xmlns="http://www.w3.org/2000/svg" xmlns:xlink="http://www.w3.org/1999/xlink">
 <metadata>
  <rdf:RDF xmlns:cc="http://creativecommons.org/ns#" xmlns:dc="http://purl.org/dc/elements/1.1/" xmlns:rdf="http://www.w3.org/1999/02/22-rdf-syntax-ns#">
   <cc:Work>
    <dc:type rdf:resource="http://purl.org/dc/dcmitype/StillImage"/>
    <dc:date>2021-03-20T16:06:16.702110</dc:date>
    <dc:format>image/svg+xml</dc:format>
    <dc:creator>
     <cc:Agent>
      <dc:title>Matplotlib v3.3.4, https://matplotlib.org/</dc:title>
     </cc:Agent>
    </dc:creator>
   </cc:Work>
  </rdf:RDF>
 </metadata>
 <defs>
  <style type="text/css">*{stroke-linecap:butt;stroke-linejoin:round;}</style>
 </defs>
 <g id="figure_1">
  <g id="patch_1">
   <path d="M 0 345.6 
L 460.8 345.6 
L 460.8 0 
L 0 0 
z
" style="fill:#ffffff;"/>
  </g>
  <g id="axes_1">
   <g id="patch_2">
    <path d="M 50.137685 306.056 
L 450 306.056 
L 450 26.88 
L 50.137685 26.88 
z
" style="fill:#ffffff;"/>
   </g>
   <g id="matplotlib.axis_1">
    <g id="xtick_1">
     <g id="line2d_1">
      <path clip-path="url(#p8af265703a)" d="M 50.137685 306.056 
L 50.137685 26.88 
" style="fill:none;stroke:#b0b0b0;stroke-linecap:square;stroke-width:0.8;"/>
     </g>
     <g id="line2d_2">
      <defs>
       <path d="M 0 0 
L 0 3.5 
" id="mbde6067f87" style="stroke:#000000;stroke-width:0.8;"/>
      </defs>
      <g>
       <use style="stroke:#000000;stroke-width:0.8;" x="50.137685" xlink:href="#mbde6067f87" y="306.056"/>
      </g>
     </g>
     <g id="text_1">
      <!-- Nov -->
      <g transform="translate(40.37831 320.654437)scale(0.1 -0.1)">
       <defs>
        <path d="M 9.8125 72.90625 
L 23.09375 72.90625 
L 55.421875 11.921875 
L 55.421875 72.90625 
L 64.984375 72.90625 
L 64.984375 0 
L 51.703125 0 
L 19.390625 60.984375 
L 19.390625 0 
L 9.8125 0 
z
" id="DejaVuSans-78"/>
        <path d="M 30.609375 48.390625 
Q 23.390625 48.390625 19.1875 42.75 
Q 14.984375 37.109375 14.984375 27.296875 
Q 14.984375 17.484375 19.15625 11.84375 
Q 23.34375 6.203125 30.609375 6.203125 
Q 37.796875 6.203125 41.984375 11.859375 
Q 46.1875 17.53125 46.1875 27.296875 
Q 46.1875 37.015625 41.984375 42.703125 
Q 37.796875 48.390625 30.609375 48.390625 
z
M 30.609375 56 
Q 42.328125 56 49.015625 48.375 
Q 55.71875 40.765625 55.71875 27.296875 
Q 55.71875 13.875 49.015625 6.21875 
Q 42.328125 -1.421875 30.609375 -1.421875 
Q 18.84375 -1.421875 12.171875 6.21875 
Q 5.515625 13.875 5.515625 27.296875 
Q 5.515625 40.765625 12.171875 48.375 
Q 18.84375 56 30.609375 56 
z
" id="DejaVuSans-111"/>
        <path d="M 2.984375 54.6875 
L 12.5 54.6875 
L 29.59375 8.796875 
L 46.6875 54.6875 
L 56.203125 54.6875 
L 35.6875 0 
L 23.484375 0 
z
" id="DejaVuSans-118"/>
       </defs>
       <use xlink:href="#DejaVuSans-78"/>
       <use x="74.804688" xlink:href="#DejaVuSans-111"/>
       <use x="135.986328" xlink:href="#DejaVuSans-118"/>
      </g>
     </g>
    </g>
    <g id="xtick_2">
     <g id="line2d_3">
      <path clip-path="url(#p8af265703a)" d="M 137.064275 306.056 
L 137.064275 26.88 
" style="fill:none;stroke:#b0b0b0;stroke-linecap:square;stroke-width:0.8;"/>
     </g>
     <g id="line2d_4">
      <g>
       <use style="stroke:#000000;stroke-width:0.8;" x="137.064275" xlink:href="#mbde6067f87" y="306.056"/>
      </g>
     </g>
     <g id="text_2">
      <!-- Dec -->
      <g transform="translate(127.388494 320.654437)scale(0.1 -0.1)">
       <defs>
        <path d="M 19.671875 64.796875 
L 19.671875 8.109375 
L 31.59375 8.109375 
Q 46.6875 8.109375 53.6875 14.9375 
Q 60.6875 21.78125 60.6875 36.53125 
Q 60.6875 51.171875 53.6875 57.984375 
Q 46.6875 64.796875 31.59375 64.796875 
z
M 9.8125 72.90625 
L 30.078125 72.90625 
Q 51.265625 72.90625 61.171875 64.09375 
Q 71.09375 55.28125 71.09375 36.53125 
Q 71.09375 17.671875 61.125 8.828125 
Q 51.171875 0 30.078125 0 
L 9.8125 0 
z
" id="DejaVuSans-68"/>
        <path d="M 56.203125 29.59375 
L 56.203125 25.203125 
L 14.890625 25.203125 
Q 15.484375 15.921875 20.484375 11.0625 
Q 25.484375 6.203125 34.421875 6.203125 
Q 39.59375 6.203125 44.453125 7.46875 
Q 49.3125 8.734375 54.109375 11.28125 
L 54.109375 2.78125 
Q 49.265625 0.734375 44.1875 -0.34375 
Q 39.109375 -1.421875 33.890625 -1.421875 
Q 20.796875 -1.421875 13.15625 6.1875 
Q 5.515625 13.8125 5.515625 26.8125 
Q 5.515625 40.234375 12.765625 48.109375 
Q 20.015625 56 32.328125 56 
Q 43.359375 56 49.78125 48.890625 
Q 56.203125 41.796875 56.203125 29.59375 
z
M 47.21875 32.234375 
Q 47.125 39.59375 43.09375 43.984375 
Q 39.0625 48.390625 32.421875 48.390625 
Q 24.90625 48.390625 20.390625 44.140625 
Q 15.875 39.890625 15.1875 32.171875 
z
" id="DejaVuSans-101"/>
        <path d="M 48.78125 52.59375 
L 48.78125 44.1875 
Q 44.96875 46.296875 41.140625 47.34375 
Q 37.3125 48.390625 33.40625 48.390625 
Q 24.65625 48.390625 19.8125 42.84375 
Q 14.984375 37.3125 14.984375 27.296875 
Q 14.984375 17.28125 19.8125 11.734375 
Q 24.65625 6.203125 33.40625 6.203125 
Q 37.3125 6.203125 41.140625 7.25 
Q 44.96875 8.296875 48.78125 10.40625 
L 48.78125 2.09375 
Q 45.015625 0.34375 40.984375 -0.53125 
Q 36.96875 -1.421875 32.421875 -1.421875 
Q 20.0625 -1.421875 12.78125 6.34375 
Q 5.515625 14.109375 5.515625 27.296875 
Q 5.515625 40.671875 12.859375 48.328125 
Q 20.21875 56 33.015625 56 
Q 37.15625 56 41.109375 55.140625 
Q 45.0625 54.296875 48.78125 52.59375 
z
" id="DejaVuSans-99"/>
       </defs>
       <use xlink:href="#DejaVuSans-68"/>
       <use x="77.001953" xlink:href="#DejaVuSans-101"/>
       <use x="138.525391" xlink:href="#DejaVuSans-99"/>
      </g>
     </g>
    </g>
    <g id="xtick_3">
     <g id="line2d_5">
      <path clip-path="url(#p8af265703a)" d="M 226.888418 306.056 
L 226.888418 26.88 
" style="fill:none;stroke:#b0b0b0;stroke-linecap:square;stroke-width:0.8;"/>
     </g>
     <g id="line2d_6">
      <g>
       <use style="stroke:#000000;stroke-width:0.8;" x="226.888418" xlink:href="#mbde6067f87" y="306.056"/>
      </g>
     </g>
     <g id="text_3">
      <!-- Jan -->
      <g transform="translate(219.180606 320.654437)scale(0.1 -0.1)">
       <defs>
        <path d="M 9.8125 72.90625 
L 19.671875 72.90625 
L 19.671875 5.078125 
Q 19.671875 -8.109375 14.671875 -14.0625 
Q 9.671875 -20.015625 -1.421875 -20.015625 
L -5.171875 -20.015625 
L -5.171875 -11.71875 
L -2.09375 -11.71875 
Q 4.4375 -11.71875 7.125 -8.046875 
Q 9.8125 -4.390625 9.8125 5.078125 
z
" id="DejaVuSans-74"/>
        <path d="M 34.28125 27.484375 
Q 23.390625 27.484375 19.1875 25 
Q 14.984375 22.515625 14.984375 16.5 
Q 14.984375 11.71875 18.140625 8.90625 
Q 21.296875 6.109375 26.703125 6.109375 
Q 34.1875 6.109375 38.703125 11.40625 
Q 43.21875 16.703125 43.21875 25.484375 
L 43.21875 27.484375 
z
M 52.203125 31.203125 
L 52.203125 0 
L 43.21875 0 
L 43.21875 8.296875 
Q 40.140625 3.328125 35.546875 0.953125 
Q 30.953125 -1.421875 24.3125 -1.421875 
Q 15.921875 -1.421875 10.953125 3.296875 
Q 6 8.015625 6 15.921875 
Q 6 25.140625 12.171875 29.828125 
Q 18.359375 34.515625 30.609375 34.515625 
L 43.21875 34.515625 
L 43.21875 35.40625 
Q 43.21875 41.609375 39.140625 45 
Q 35.0625 48.390625 27.6875 48.390625 
Q 23 48.390625 18.546875 47.265625 
Q 14.109375 46.140625 10.015625 43.890625 
L 10.015625 52.203125 
Q 14.9375 54.109375 19.578125 55.046875 
Q 24.21875 56 28.609375 56 
Q 40.484375 56 46.34375 49.84375 
Q 52.203125 43.703125 52.203125 31.203125 
z
" id="DejaVuSans-97"/>
        <path d="M 54.890625 33.015625 
L 54.890625 0 
L 45.90625 0 
L 45.90625 32.71875 
Q 45.90625 40.484375 42.875 44.328125 
Q 39.84375 48.1875 33.796875 48.1875 
Q 26.515625 48.1875 22.3125 43.546875 
Q 18.109375 38.921875 18.109375 30.90625 
L 18.109375 0 
L 9.078125 0 
L 9.078125 54.6875 
L 18.109375 54.6875 
L 18.109375 46.1875 
Q 21.34375 51.125 25.703125 53.5625 
Q 30.078125 56 35.796875 56 
Q 45.21875 56 50.046875 50.171875 
Q 54.890625 44.34375 54.890625 33.015625 
z
" id="DejaVuSans-110"/>
       </defs>
       <use xlink:href="#DejaVuSans-74"/>
       <use x="29.492188" xlink:href="#DejaVuSans-97"/>
       <use x="90.771484" xlink:href="#DejaVuSans-110"/>
      </g>
      <!-- 2021 -->
      <g transform="translate(214.163418 331.85225)scale(0.1 -0.1)">
       <defs>
        <path d="M 19.1875 8.296875 
L 53.609375 8.296875 
L 53.609375 0 
L 7.328125 0 
L 7.328125 8.296875 
Q 12.9375 14.109375 22.625 23.890625 
Q 32.328125 33.6875 34.8125 36.53125 
Q 39.546875 41.84375 41.421875 45.53125 
Q 43.3125 49.21875 43.3125 52.78125 
Q 43.3125 58.59375 39.234375 62.25 
Q 35.15625 65.921875 28.609375 65.921875 
Q 23.96875 65.921875 18.8125 64.3125 
Q 13.671875 62.703125 7.8125 59.421875 
L 7.8125 69.390625 
Q 13.765625 71.78125 18.9375 73 
Q 24.125 74.21875 28.421875 74.21875 
Q 39.75 74.21875 46.484375 68.546875 
Q 53.21875 62.890625 53.21875 53.421875 
Q 53.21875 48.921875 51.53125 44.890625 
Q 49.859375 40.875 45.40625 35.40625 
Q 44.1875 33.984375 37.640625 27.21875 
Q 31.109375 20.453125 19.1875 8.296875 
z
" id="DejaVuSans-50"/>
        <path d="M 31.78125 66.40625 
Q 24.171875 66.40625 20.328125 58.90625 
Q 16.5 51.421875 16.5 36.375 
Q 16.5 21.390625 20.328125 13.890625 
Q 24.171875 6.390625 31.78125 6.390625 
Q 39.453125 6.390625 43.28125 13.890625 
Q 47.125 21.390625 47.125 36.375 
Q 47.125 51.421875 43.28125 58.90625 
Q 39.453125 66.40625 31.78125 66.40625 
z
M 31.78125 74.21875 
Q 44.046875 74.21875 50.515625 64.515625 
Q 56.984375 54.828125 56.984375 36.375 
Q 56.984375 17.96875 50.515625 8.265625 
Q 44.046875 -1.421875 31.78125 -1.421875 
Q 19.53125 -1.421875 13.0625 8.265625 
Q 6.59375 17.96875 6.59375 36.375 
Q 6.59375 54.828125 13.0625 64.515625 
Q 19.53125 74.21875 31.78125 74.21875 
z
" id="DejaVuSans-48"/>
        <path d="M 12.40625 8.296875 
L 28.515625 8.296875 
L 28.515625 63.921875 
L 10.984375 60.40625 
L 10.984375 69.390625 
L 28.421875 72.90625 
L 38.28125 72.90625 
L 38.28125 8.296875 
L 54.390625 8.296875 
L 54.390625 0 
L 12.40625 0 
z
" id="DejaVuSans-49"/>
       </defs>
       <use xlink:href="#DejaVuSans-50"/>
       <use x="63.623047" xlink:href="#DejaVuSans-48"/>
       <use x="127.246094" xlink:href="#DejaVuSans-50"/>
       <use x="190.869141" xlink:href="#DejaVuSans-49"/>
      </g>
     </g>
    </g>
    <g id="xtick_4">
     <g id="line2d_7">
      <path clip-path="url(#p8af265703a)" d="M 316.712562 306.056 
L 316.712562 26.88 
" style="fill:none;stroke:#b0b0b0;stroke-linecap:square;stroke-width:0.8;"/>
     </g>
     <g id="line2d_8">
      <g>
       <use style="stroke:#000000;stroke-width:0.8;" x="316.712562" xlink:href="#mbde6067f87" y="306.056"/>
      </g>
     </g>
     <g id="text_4">
      <!-- Feb -->
      <g transform="translate(307.860999 320.654437)scale(0.1 -0.1)">
       <defs>
        <path d="M 9.8125 72.90625 
L 51.703125 72.90625 
L 51.703125 64.59375 
L 19.671875 64.59375 
L 19.671875 43.109375 
L 48.578125 43.109375 
L 48.578125 34.8125 
L 19.671875 34.8125 
L 19.671875 0 
L 9.8125 0 
z
" id="DejaVuSans-70"/>
        <path d="M 48.6875 27.296875 
Q 48.6875 37.203125 44.609375 42.84375 
Q 40.53125 48.484375 33.40625 48.484375 
Q 26.265625 48.484375 22.1875 42.84375 
Q 18.109375 37.203125 18.109375 27.296875 
Q 18.109375 17.390625 22.1875 11.75 
Q 26.265625 6.109375 33.40625 6.109375 
Q 40.53125 6.109375 44.609375 11.75 
Q 48.6875 17.390625 48.6875 27.296875 
z
M 18.109375 46.390625 
Q 20.953125 51.265625 25.265625 53.625 
Q 29.59375 56 35.59375 56 
Q 45.5625 56 51.78125 48.09375 
Q 58.015625 40.1875 58.015625 27.296875 
Q 58.015625 14.40625 51.78125 6.484375 
Q 45.5625 -1.421875 35.59375 -1.421875 
Q 29.59375 -1.421875 25.265625 0.953125 
Q 20.953125 3.328125 18.109375 8.203125 
L 18.109375 0 
L 9.078125 0 
L 9.078125 75.984375 
L 18.109375 75.984375 
z
" id="DejaVuSans-98"/>
       </defs>
       <use xlink:href="#DejaVuSans-70"/>
       <use x="52.019531" xlink:href="#DejaVuSans-101"/>
       <use x="113.542969" xlink:href="#DejaVuSans-98"/>
      </g>
     </g>
    </g>
    <g id="xtick_5">
     <g id="line2d_9">
      <path clip-path="url(#p8af265703a)" d="M 397.844046 306.056 
L 397.844046 26.88 
" style="fill:none;stroke:#b0b0b0;stroke-linecap:square;stroke-width:0.8;"/>
     </g>
     <g id="line2d_10">
      <g>
       <use style="stroke:#000000;stroke-width:0.8;" x="397.844046" xlink:href="#mbde6067f87" y="306.056"/>
      </g>
     </g>
     <g id="text_5">
      <!-- Mar -->
      <g transform="translate(388.410452 320.654437)scale(0.1 -0.1)">
       <defs>
        <path d="M 9.8125 72.90625 
L 24.515625 72.90625 
L 43.109375 23.296875 
L 61.8125 72.90625 
L 76.515625 72.90625 
L 76.515625 0 
L 66.890625 0 
L 66.890625 64.015625 
L 48.09375 14.015625 
L 38.1875 14.015625 
L 19.390625 64.015625 
L 19.390625 0 
L 9.8125 0 
z
" id="DejaVuSans-77"/>
        <path d="M 41.109375 46.296875 
Q 39.59375 47.171875 37.8125 47.578125 
Q 36.03125 48 33.890625 48 
Q 26.265625 48 22.1875 43.046875 
Q 18.109375 38.09375 18.109375 28.8125 
L 18.109375 0 
L 9.078125 0 
L 9.078125 54.6875 
L 18.109375 54.6875 
L 18.109375 46.1875 
Q 20.953125 51.171875 25.484375 53.578125 
Q 30.03125 56 36.53125 56 
Q 37.453125 56 38.578125 55.875 
Q 39.703125 55.765625 41.0625 55.515625 
z
" id="DejaVuSans-114"/>
       </defs>
       <use xlink:href="#DejaVuSans-77"/>
       <use x="86.279297" xlink:href="#DejaVuSans-97"/>
       <use x="147.558594" xlink:href="#DejaVuSans-114"/>
      </g>
     </g>
    </g>
    <g id="xtick_6">
     <g id="line2d_11">
      <path clip-path="url(#p8af265703a)" d="M 450 306.056 
L 450 26.88 
" style="fill:none;stroke:#b0b0b0;stroke-linecap:square;stroke-width:0.8;"/>
     </g>
     <g id="line2d_12">
      <g>
       <use style="stroke:#000000;stroke-width:0.8;" x="450" xlink:href="#mbde6067f87" y="306.056"/>
      </g>
     </g>
    </g>
    <g id="xtick_7">
     <g id="line2d_13">
      <defs>
       <path d="M 0 0 
L 0 2 
" id="m7104b39086" style="stroke:#000000;stroke-width:0.6;"/>
      </defs>
      <g>
       <use style="stroke:#000000;stroke-width:0.6;" x="53.035238" xlink:href="#m7104b39086" y="306.056"/>
      </g>
     </g>
    </g>
    <g id="xtick_8">
     <g id="line2d_14">
      <g>
       <use style="stroke:#000000;stroke-width:0.6;" x="73.318109" xlink:href="#m7104b39086" y="306.056"/>
      </g>
     </g>
    </g>
    <g id="xtick_9">
     <g id="line2d_15">
      <g>
       <use style="stroke:#000000;stroke-width:0.6;" x="93.60098" xlink:href="#m7104b39086" y="306.056"/>
      </g>
     </g>
    </g>
    <g id="xtick_10">
     <g id="line2d_16">
      <g>
       <use style="stroke:#000000;stroke-width:0.6;" x="113.883851" xlink:href="#m7104b39086" y="306.056"/>
      </g>
     </g>
    </g>
    <g id="xtick_11">
     <g id="line2d_17">
      <g>
       <use style="stroke:#000000;stroke-width:0.6;" x="134.166722" xlink:href="#m7104b39086" y="306.056"/>
      </g>
     </g>
    </g>
    <g id="xtick_12">
     <g id="line2d_18">
      <g>
       <use style="stroke:#000000;stroke-width:0.6;" x="154.449593" xlink:href="#m7104b39086" y="306.056"/>
      </g>
     </g>
    </g>
    <g id="xtick_13">
     <g id="line2d_19">
      <g>
       <use style="stroke:#000000;stroke-width:0.6;" x="174.732464" xlink:href="#m7104b39086" y="306.056"/>
      </g>
     </g>
    </g>
    <g id="xtick_14">
     <g id="line2d_20">
      <g>
       <use style="stroke:#000000;stroke-width:0.6;" x="195.015335" xlink:href="#m7104b39086" y="306.056"/>
      </g>
     </g>
    </g>
    <g id="xtick_15">
     <g id="line2d_21">
      <g>
       <use style="stroke:#000000;stroke-width:0.6;" x="215.298206" xlink:href="#m7104b39086" y="306.056"/>
      </g>
     </g>
    </g>
    <g id="xtick_16">
     <g id="line2d_22">
      <g>
       <use style="stroke:#000000;stroke-width:0.6;" x="235.581077" xlink:href="#m7104b39086" y="306.056"/>
      </g>
     </g>
    </g>
    <g id="xtick_17">
     <g id="line2d_23">
      <g>
       <use style="stroke:#000000;stroke-width:0.6;" x="255.863948" xlink:href="#m7104b39086" y="306.056"/>
      </g>
     </g>
    </g>
    <g id="xtick_18">
     <g id="line2d_24">
      <g>
       <use style="stroke:#000000;stroke-width:0.6;" x="276.146819" xlink:href="#m7104b39086" y="306.056"/>
      </g>
     </g>
    </g>
    <g id="xtick_19">
     <g id="line2d_25">
      <g>
       <use style="stroke:#000000;stroke-width:0.6;" x="296.429691" xlink:href="#m7104b39086" y="306.056"/>
      </g>
     </g>
    </g>
    <g id="xtick_20">
     <g id="line2d_26">
      <g>
       <use style="stroke:#000000;stroke-width:0.6;" x="336.995433" xlink:href="#m7104b39086" y="306.056"/>
      </g>
     </g>
    </g>
    <g id="xtick_21">
     <g id="line2d_27">
      <g>
       <use style="stroke:#000000;stroke-width:0.6;" x="357.278304" xlink:href="#m7104b39086" y="306.056"/>
      </g>
     </g>
    </g>
    <g id="xtick_22">
     <g id="line2d_28">
      <g>
       <use style="stroke:#000000;stroke-width:0.6;" x="377.561175" xlink:href="#m7104b39086" y="306.056"/>
      </g>
     </g>
    </g>
    <g id="xtick_23">
     <g id="line2d_29">
      <g>
       <use style="stroke:#000000;stroke-width:0.6;" x="418.126917" xlink:href="#m7104b39086" y="306.056"/>
      </g>
     </g>
    </g>
    <g id="xtick_24">
     <g id="line2d_30">
      <g>
       <use style="stroke:#000000;stroke-width:0.6;" x="438.409788" xlink:href="#m7104b39086" y="306.056"/>
      </g>
     </g>
    </g>
   </g>
   <g id="matplotlib.axis_2">
    <g id="ytick_1">
     <g id="line2d_31">
      <path clip-path="url(#p8af265703a)" d="M 50.137685 294.231066 
L 450 294.231066 
" style="fill:none;stroke:#b0b0b0;stroke-linecap:square;stroke-width:0.8;"/>
     </g>
     <g id="line2d_32">
      <defs>
       <path d="M 0 0 
L -3.5 0 
" id="mb4dbdf4c2b" style="stroke:#000000;stroke-width:0.8;"/>
      </defs>
      <g>
       <use style="stroke:#000000;stroke-width:0.8;" x="50.137685" xlink:href="#mb4dbdf4c2b" y="294.231066"/>
      </g>
     </g>
     <g id="text_6">
      <!-- $\mathdefault{10^{2}}$ -->
      <g transform="translate(25.537685 298.030285)scale(0.1 -0.1)">
       <use transform="translate(0 0.765625)" xlink:href="#DejaVuSans-49"/>
       <use transform="translate(63.623047 0.765625)" xlink:href="#DejaVuSans-48"/>
       <use transform="translate(128.203125 39.046875)scale(0.7)" xlink:href="#DejaVuSans-50"/>
      </g>
     </g>
    </g>
    <g id="ytick_2">
     <g id="line2d_33">
      <path clip-path="url(#p8af265703a)" d="M 50.137685 172.018158 
L 450 172.018158 
" style="fill:none;stroke:#b0b0b0;stroke-linecap:square;stroke-width:0.8;"/>
     </g>
     <g id="line2d_34">
      <g>
       <use style="stroke:#000000;stroke-width:0.8;" x="50.137685" xlink:href="#mb4dbdf4c2b" y="172.018158"/>
      </g>
     </g>
     <g id="text_7">
      <!-- $\mathdefault{10^{3}}$ -->
      <g transform="translate(25.537685 175.817376)scale(0.1 -0.1)">
       <defs>
        <path d="M 40.578125 39.3125 
Q 47.65625 37.796875 51.625 33 
Q 55.609375 28.21875 55.609375 21.1875 
Q 55.609375 10.40625 48.1875 4.484375 
Q 40.765625 -1.421875 27.09375 -1.421875 
Q 22.515625 -1.421875 17.65625 -0.515625 
Q 12.796875 0.390625 7.625 2.203125 
L 7.625 11.71875 
Q 11.71875 9.328125 16.59375 8.109375 
Q 21.484375 6.890625 26.8125 6.890625 
Q 36.078125 6.890625 40.9375 10.546875 
Q 45.796875 14.203125 45.796875 21.1875 
Q 45.796875 27.640625 41.28125 31.265625 
Q 36.765625 34.90625 28.71875 34.90625 
L 20.21875 34.90625 
L 20.21875 43.015625 
L 29.109375 43.015625 
Q 36.375 43.015625 40.234375 45.921875 
Q 44.09375 48.828125 44.09375 54.296875 
Q 44.09375 59.90625 40.109375 62.90625 
Q 36.140625 65.921875 28.71875 65.921875 
Q 24.65625 65.921875 20.015625 65.03125 
Q 15.375 64.15625 9.8125 62.3125 
L 9.8125 71.09375 
Q 15.4375 72.65625 20.34375 73.4375 
Q 25.25 74.21875 29.59375 74.21875 
Q 40.828125 74.21875 47.359375 69.109375 
Q 53.90625 64.015625 53.90625 55.328125 
Q 53.90625 49.265625 50.4375 45.09375 
Q 46.96875 40.921875 40.578125 39.3125 
z
" id="DejaVuSans-51"/>
       </defs>
       <use transform="translate(0 0.765625)" xlink:href="#DejaVuSans-49"/>
       <use transform="translate(63.623047 0.765625)" xlink:href="#DejaVuSans-48"/>
       <use transform="translate(128.203125 39.046875)scale(0.7)" xlink:href="#DejaVuSans-51"/>
      </g>
     </g>
    </g>
    <g id="ytick_3">
     <g id="line2d_35">
      <path clip-path="url(#p8af265703a)" d="M 50.137685 49.805249 
L 450 49.805249 
" style="fill:none;stroke:#b0b0b0;stroke-linecap:square;stroke-width:0.8;"/>
     </g>
     <g id="line2d_36">
      <g>
       <use style="stroke:#000000;stroke-width:0.8;" x="50.137685" xlink:href="#mb4dbdf4c2b" y="49.805249"/>
      </g>
     </g>
     <g id="text_8">
      <!-- $\mathdefault{10^{4}}$ -->
      <g transform="translate(25.537685 53.604468)scale(0.1 -0.1)">
       <defs>
        <path d="M 37.796875 64.3125 
L 12.890625 25.390625 
L 37.796875 25.390625 
z
M 35.203125 72.90625 
L 47.609375 72.90625 
L 47.609375 25.390625 
L 58.015625 25.390625 
L 58.015625 17.1875 
L 47.609375 17.1875 
L 47.609375 0 
L 37.796875 0 
L 37.796875 17.1875 
L 4.890625 17.1875 
L 4.890625 26.703125 
z
" id="DejaVuSans-52"/>
       </defs>
       <use transform="translate(0 0.684375)" xlink:href="#DejaVuSans-49"/>
       <use transform="translate(63.623047 0.684375)" xlink:href="#DejaVuSans-48"/>
       <use transform="translate(128.203125 38.965625)scale(0.7)" xlink:href="#DejaVuSans-52"/>
      </g>
     </g>
    </g>
    <g id="ytick_4">
     <g id="line2d_37">
      <defs>
       <path d="M 0 0 
L -2 0 
" id="m6994380f65" style="stroke:#000000;stroke-width:0.6;"/>
      </defs>
      <g>
       <use style="stroke:#000000;stroke-width:0.6;" x="50.137685" xlink:href="#m6994380f65" y="299.823222"/>
      </g>
     </g>
    </g>
    <g id="ytick_5">
     <g id="line2d_38">
      <g>
       <use style="stroke:#000000;stroke-width:0.6;" x="50.137685" xlink:href="#m6994380f65" y="257.441315"/>
      </g>
     </g>
    </g>
    <g id="ytick_6">
     <g id="line2d_39">
      <g>
       <use style="stroke:#000000;stroke-width:0.6;" x="50.137685" xlink:href="#m6994380f65" y="235.92069"/>
      </g>
     </g>
    </g>
    <g id="ytick_7">
     <g id="line2d_40">
      <g>
       <use style="stroke:#000000;stroke-width:0.6;" x="50.137685" xlink:href="#m6994380f65" y="220.651563"/>
      </g>
     </g>
    </g>
    <g id="ytick_8">
     <g id="line2d_41">
      <g>
       <use style="stroke:#000000;stroke-width:0.6;" x="50.137685" xlink:href="#m6994380f65" y="208.807909"/>
      </g>
     </g>
    </g>
    <g id="ytick_9">
     <g id="line2d_42">
      <g>
       <use style="stroke:#000000;stroke-width:0.6;" x="50.137685" xlink:href="#m6994380f65" y="199.130939"/>
      </g>
     </g>
    </g>
    <g id="ytick_10">
     <g id="line2d_43">
      <g>
       <use style="stroke:#000000;stroke-width:0.6;" x="50.137685" xlink:href="#m6994380f65" y="190.949177"/>
      </g>
     </g>
    </g>
    <g id="ytick_11">
     <g id="line2d_44">
      <g>
       <use style="stroke:#000000;stroke-width:0.6;" x="50.137685" xlink:href="#m6994380f65" y="183.861812"/>
      </g>
     </g>
    </g>
    <g id="ytick_12">
     <g id="line2d_45">
      <g>
       <use style="stroke:#000000;stroke-width:0.6;" x="50.137685" xlink:href="#m6994380f65" y="177.610314"/>
      </g>
     </g>
    </g>
    <g id="ytick_13">
     <g id="line2d_46">
      <g>
       <use style="stroke:#000000;stroke-width:0.6;" x="50.137685" xlink:href="#m6994380f65" y="135.228406"/>
      </g>
     </g>
    </g>
    <g id="ytick_14">
     <g id="line2d_47">
      <g>
       <use style="stroke:#000000;stroke-width:0.6;" x="50.137685" xlink:href="#m6994380f65" y="113.707782"/>
      </g>
     </g>
    </g>
    <g id="ytick_15">
     <g id="line2d_48">
      <g>
       <use style="stroke:#000000;stroke-width:0.6;" x="50.137685" xlink:href="#m6994380f65" y="98.438655"/>
      </g>
     </g>
    </g>
    <g id="ytick_16">
     <g id="line2d_49">
      <g>
       <use style="stroke:#000000;stroke-width:0.6;" x="50.137685" xlink:href="#m6994380f65" y="86.595001"/>
      </g>
     </g>
    </g>
    <g id="ytick_17">
     <g id="line2d_50">
      <g>
       <use style="stroke:#000000;stroke-width:0.6;" x="50.137685" xlink:href="#m6994380f65" y="76.91803"/>
      </g>
     </g>
    </g>
    <g id="ytick_18">
     <g id="line2d_51">
      <g>
       <use style="stroke:#000000;stroke-width:0.6;" x="50.137685" xlink:href="#m6994380f65" y="68.736268"/>
      </g>
     </g>
    </g>
    <g id="ytick_19">
     <g id="line2d_52">
      <g>
       <use style="stroke:#000000;stroke-width:0.6;" x="50.137685" xlink:href="#m6994380f65" y="61.648904"/>
      </g>
     </g>
    </g>
    <g id="ytick_20">
     <g id="line2d_53">
      <g>
       <use style="stroke:#000000;stroke-width:0.6;" x="50.137685" xlink:href="#m6994380f65" y="55.397405"/>
      </g>
     </g>
    </g>
    <g id="text_9">
     <!-- log -->
     <g transform="translate(19.457997 174.090656)rotate(-90)scale(0.1 -0.1)">
      <defs>
       <path d="M 9.421875 75.984375 
L 18.40625 75.984375 
L 18.40625 0 
L 9.421875 0 
z
" id="DejaVuSans-108"/>
       <path d="M 45.40625 27.984375 
Q 45.40625 37.75 41.375 43.109375 
Q 37.359375 48.484375 30.078125 48.484375 
Q 22.859375 48.484375 18.828125 43.109375 
Q 14.796875 37.75 14.796875 27.984375 
Q 14.796875 18.265625 18.828125 12.890625 
Q 22.859375 7.515625 30.078125 7.515625 
Q 37.359375 7.515625 41.375 12.890625 
Q 45.40625 18.265625 45.40625 27.984375 
z
M 54.390625 6.78125 
Q 54.390625 -7.171875 48.1875 -13.984375 
Q 42 -20.796875 29.203125 -20.796875 
Q 24.46875 -20.796875 20.265625 -20.09375 
Q 16.0625 -19.390625 12.109375 -17.921875 
L 12.109375 -9.1875 
Q 16.0625 -11.328125 19.921875 -12.34375 
Q 23.78125 -13.375 27.78125 -13.375 
Q 36.625 -13.375 41.015625 -8.765625 
Q 45.40625 -4.15625 45.40625 5.171875 
L 45.40625 9.625 
Q 42.625 4.78125 38.28125 2.390625 
Q 33.9375 0 27.875 0 
Q 17.828125 0 11.671875 7.65625 
Q 5.515625 15.328125 5.515625 27.984375 
Q 5.515625 40.671875 11.671875 48.328125 
Q 17.828125 56 27.875 56 
Q 33.9375 56 38.28125 53.609375 
Q 42.625 51.21875 45.40625 46.390625 
L 45.40625 54.6875 
L 54.390625 54.6875 
z
" id="DejaVuSans-103"/>
      </defs>
      <use xlink:href="#DejaVuSans-108"/>
      <use x="27.783203" xlink:href="#DejaVuSans-111"/>
      <use x="88.964844" xlink:href="#DejaVuSans-103"/>
     </g>
    </g>
   </g>
   <g id="line2d_54">
    <path clip-path="url(#p8af265703a)" d="M 50.137685 40.205422 
L 53.035238 39.839044 
L 55.932791 39.806062 
L 58.830344 39.569818 
L 61.727897 39.858529 
L 64.62545 41.035121 
L 67.523003 42.584698 
L 70.420556 43.820307 
L 73.318109 45.270566 
L 76.215662 47.622675 
L 79.113215 49.119329 
L 82.010768 51.093064 
L 84.908321 53.575979 
L 87.805874 56.603971 
L 90.703427 58.651065 
L 93.60098 60.39243 
L 96.498533 64.152827 
L 99.396086 69.484588 
L 102.293639 73.336403 
L 105.191192 76.838475 
L 108.088745 79.776351 
L 110.986298 81.195482 
L 113.883851 82.351055 
L 116.781404 84.635932 
L 122.57651 90.679663 
L 125.474063 93.105784 
L 128.371616 94.432882 
L 131.269169 95.15584 
L 134.166722 96.822872 
L 137.064275 95.971048 
L 139.961828 96.840343 
L 142.859381 98.565812 
L 145.756934 99.583527 
L 148.654487 99.466472 
L 151.55204 99.851497 
L 154.449593 99.976233 
L 157.347146 99.982088 
L 160.244699 98.552512 
L 166.039805 95.26554 
L 171.834911 93.5854 
L 174.732464 92.215809 
L 177.630017 89.964696 
L 180.52757 87.059551 
L 183.425123 84.820403 
L 186.322676 81.903568 
L 189.220229 80.523762 
L 192.117782 78.99659 
L 195.015335 76.619998 
L 197.912888 73.534633 
L 200.810441 69.14239 
L 203.707994 69.966849 
L 206.605547 71.965108 
L 209.5031 72.325482 
L 212.400653 71.302185 
L 215.298206 68.125625 
L 218.195759 63.728285 
L 221.093312 59.558553 
L 223.990865 57.026231 
L 226.888418 59.420687 
L 229.785971 59.575868 
L 232.683524 58.286409 
L 235.581077 56.106436 
L 238.47863 53.407329 
L 241.376183 51.95456 
L 244.273736 47.959936 
L 247.171289 44.272686 
L 250.068842 42.457785 
L 252.966395 42.283117 
L 255.863948 42.79623 
L 258.761501 44.711731 
L 261.659054 46.870508 
L 264.556607 48.776875 
L 267.45416 46.64392 
L 270.351713 46.552913 
L 273.249266 47.861895 
L 276.146819 49.830277 
L 279.044372 52.869618 
L 281.941925 56.852334 
L 284.839478 60.133888 
L 290.634585 64.364882 
L 293.532138 65.329756 
L 296.429691 66.567678 
L 299.327244 67.413522 
L 302.224797 68.704865 
L 305.12235 68.74656 
L 310.917456 70.080602 
L 313.815009 70.118389 
L 319.610115 70.626669 
L 322.507668 69.818504 
L 325.405221 69.502169 
L 328.302774 69.417069 
L 331.200327 69.099293 
L 334.09788 69.068219 
L 336.995433 68.631303 
L 345.688092 66.964814 
L 348.585645 66.5604 
L 351.483198 65.998832 
L 354.380751 65.841668 
L 357.278304 64.982961 
L 360.175857 63.26508 
L 363.07341 62.647256 
L 365.970963 60.938569 
L 368.868516 59.706372 
L 371.766069 58.820631 
L 374.663622 58.099032 
L 377.561175 56.514844 
L 380.458728 54.176477 
L 383.356281 52.45274 
L 389.151387 48.050455 
L 392.04894 47.075735 
L 394.946493 46.464198 
L 397.844046 45.261865 
L 403.639152 42.394113 
L 406.536705 41.433187 
L 409.434258 40.827918 
L 412.331811 40.081858 
L 415.229364 40.109642 
L 421.02447 40.505256 
L 423.922023 40.271272 
L 426.819576 41.342926 
L 429.717129 41.285742 
L 432.614682 41.567083 
L 435.512235 41.977352 
L 438.409788 42.537401 
L 441.307341 43.455776 
L 444.204894 44.550097 
L 447.102447 45.947337 
L 450 47.211311 
L 450 47.211311 
" style="fill:none;stroke:#ff0000;stroke-linecap:square;stroke-width:1.5;"/>
   </g>
   <g id="line2d_55">
    <path clip-path="url(#p8af265703a)" d="M 50.137685 269.024964 
L 53.035238 266.402807 
L 55.932791 263.075612 
L 58.830344 261.089669 
L 61.727897 259.7662 
L 64.62545 257.97475 
L 67.523003 256.875664 
L 70.420556 255.946106 
L 76.215662 255.141349 
L 79.113215 254.869765 
L 82.010768 255.377851 
L 84.908321 256.11223 
L 87.805874 256.315978 
L 90.703427 257.65024 
L 93.60098 258.610403 
L 96.498533 261.069368 
L 99.396086 262.551241 
L 102.293639 263.818545 
L 105.191192 266.000372 
L 108.088745 267.514039 
L 110.986298 269.356101 
L 113.883851 270.726046 
L 116.781404 272.659916 
L 119.678957 274.248995 
L 125.474063 276.39942 
L 128.371616 278.218416 
L 131.269169 279.841151 
L 134.166722 281.217554 
L 142.859381 284.712297 
L 145.756934 285.414038 
L 148.654487 285.54263 
L 154.449593 287.945879 
L 160.244699 290.817443 
L 163.142252 291.461235 
L 166.039805 292.625397 
L 168.937358 293.366182 
L 171.834911 292.883497 
L 177.630017 292.478472 
L 180.52757 292.588627 
L 183.425123 292.295387 
L 186.322676 292.149372 
L 189.220229 292.735857 
L 195.015335 292.076515 
L 197.912888 291.74989 
L 200.810441 290.569173 
L 203.707994 290.710899 
L 206.605547 290.710899 
L 209.5031 289.831257 
L 215.298206 289.726673 
L 218.195759 288.828808 
L 221.093312 287.576709 
L 223.990865 286.878981 
L 226.888418 285.189749 
L 232.683524 282.5697 
L 235.581077 281.128624 
L 238.47863 278.924041 
L 241.376183 277.716112 
L 244.273736 275.619465 
L 247.171289 273.269413 
L 250.068842 272.307582 
L 252.966395 270.483133 
L 255.863948 269.713199 
L 258.761501 268.69588 
L 261.659054 268.34554 
L 264.556607 267.194163 
L 267.45416 266.876203 
L 270.351713 266.876203 
L 273.249266 266.560137 
L 276.146819 266.402807 
L 279.044372 266.989542 
L 281.941925 267.239741 
L 284.839478 268.113257 
L 287.737031 269.570071 
L 290.634585 270.000617 
L 293.532138 270.945622 
L 299.327244 272.458296 
L 302.224797 272.634672 
L 305.12235 273.756944 
L 308.019903 274.119065 
L 310.917456 274.903459 
L 313.815009 275.940816 
L 316.712562 276.616613 
L 319.610115 277.108571 
L 322.507668 277.466731 
L 325.405221 278.050452 
L 328.302774 278.274522 
L 334.09788 279.094797 
L 336.995433 279.151837 
L 339.892986 279.409282 
L 342.790539 280.072926 
L 348.585645 280.393278 
L 351.483198 280.627482 
L 354.380751 279.841151 
L 357.278304 279.956912 
L 360.175857 279.524104 
L 363.07341 279.581608 
L 371.766069 275.967683 
L 374.663622 275.592773 
L 377.561175 274.771919 
L 380.458728 274.431433 
L 383.356281 274.275019 
L 386.253834 272.989191 
L 389.151387 271.882869 
L 392.04894 270.144912 
L 394.946493 269.474867 
L 397.844046 267.766729 
L 400.741599 266.785706 
L 403.639152 265.314364 
L 406.536705 264.355651 
L 409.434258 264.204712 
L 412.331811 263.583929 
L 415.229364 262.488663 
L 421.02447 259.607999 
L 423.922023 258.013059 
L 426.819576 257.176594 
L 429.717129 256.781972 
L 432.614682 257.08237 
L 435.512235 256.18623 
L 438.409788 255.780501 
L 441.307341 255.578794 
L 447.102447 256.18623 
L 450 258.147357 
L 450 258.147357 
" style="fill:none;stroke:#000000;stroke-linecap:square;stroke-width:1.5;"/>
   </g>
   <g id="line2d_56">
    <path clip-path="url(#p8af265703a)" d="M 50.137685 77.01416 
L 53.035238 74.618064 
L 55.932791 72.449057 
L 58.830344 70.561046 
L 61.727897 68.880529 
L 64.62545 67.491234 
L 67.523003 66.418672 
L 70.420556 65.534846 
L 73.318109 64.780993 
L 76.215662 64.286632 
L 79.113215 63.943596 
L 82.010768 64.025306 
L 87.805874 64.768427 
L 90.703427 65.339915 
L 93.60098 66.098199 
L 96.498533 67.144788 
L 99.396086 68.044306 
L 105.191192 70.195156 
L 116.781404 74.900168 
L 122.57651 77.334159 
L 128.371616 79.985478 
L 134.166722 82.37626 
L 137.064275 83.390825 
L 142.859381 86.05036 
L 145.756934 87.215053 
L 154.449593 90.074689 
L 157.347146 90.983521 
L 160.244699 91.684894 
L 163.142252 92.188842 
L 166.039805 92.532855 
L 171.834911 92.778491 
L 174.732464 92.828778 
L 180.52757 92.622818 
L 186.322676 92.137473 
L 195.015335 91.070069 
L 200.810441 90.220619 
L 206.605547 90.536551 
L 209.5031 90.256352 
L 212.400653 89.812216 
L 215.298206 89.057111 
L 218.195759 88.099222 
L 223.990865 85.963374 
L 226.888418 85.318445 
L 229.785971 84.241332 
L 232.683524 83.031568 
L 241.376183 78.213226 
L 244.273736 76.173883 
L 247.171289 74.378395 
L 250.068842 73.133025 
L 252.966395 72.033645 
L 255.863948 71.077 
L 258.761501 70.246396 
L 267.45416 68.25535 
L 270.351713 67.972721 
L 273.249266 67.87618 
L 276.146819 68.021324 
L 281.941925 68.898996 
L 287.737031 70.067272 
L 293.532138 71.112104 
L 299.327244 72.410735 
L 310.917456 75.090295 
L 316.712562 76.178245 
L 322.507668 76.954691 
L 328.302774 77.461679 
L 334.09788 77.686861 
L 345.688092 77.922017 
L 351.483198 77.843516 
L 360.175857 77.243169 
L 368.868516 76.172637 
L 374.663622 75.461537 
L 380.458728 74.32 
L 383.356281 73.626603 
L 389.151387 71.895511 
L 394.946493 70.08449 
L 406.536705 65.860647 
L 421.02447 61.010628 
L 423.922023 60.142178 
L 429.717129 58.74565 
L 435.512235 57.570233 
L 438.409788 57.062296 
L 444.204894 56.392378 
L 447.102447 56.164527 
L 450 56.097898 
L 450 56.097898 
" style="fill:none;stroke:#663300;stroke-linecap:square;stroke-width:1.5;"/>
   </g>
   <g id="line2d_57">
    <path clip-path="url(#p8af265703a)" d="M 50.137685 176.944731 
L 53.035238 177.103044 
L 58.830344 177.770627 
L 61.727897 178.216133 
L 79.113215 180.155708 
L 87.805874 180.151288 
L 93.60098 179.860434 
L 99.396086 179.023263 
L 102.293639 178.493808 
L 110.986298 177.366554 
L 116.781404 176.679162 
L 119.678957 176.197076 
L 122.57651 176.057801 
L 139.961828 174.446127 
L 142.859381 174.295533 
L 151.55204 173.354159 
L 160.244699 172.67044 
L 168.937358 172.067466 
L 174.732464 171.957534 
L 215.298206 172.498008 
L 221.093312 173.02472 
L 229.785971 174.311365 
L 238.47863 176.082352 
L 244.273736 177.876361 
L 255.863948 181.675418 
L 267.45416 184.683238 
L 270.351713 185.332113 
L 276.146819 186.152051 
L 279.044372 186.424887 
L 284.839478 186.275893 
L 296.429691 185.91508 
L 308.019903 184.847128 
L 319.610115 183.432309 
L 334.09788 182.653029 
L 339.892986 182.666928 
L 345.688092 182.699372 
L 351.483198 183.029575 
L 365.970963 185.059976 
L 374.663622 186.899477 
L 380.458728 187.851364 
L 389.151387 189.322493 
L 394.946493 190.281811 
L 403.639152 191.597621 
L 406.536705 191.872458 
L 409.434258 192.021464 
L 415.229364 192.683224 
L 421.02447 193.512251 
L 429.717129 195.25129 
L 432.614682 195.990569 
L 435.512235 196.57143 
L 441.307341 197.568199 
L 447.102447 198.740623 
L 450 199.416041 
L 450 199.416041 
" style="fill:none;stroke:#0000ff;stroke-linecap:square;stroke-width:1.5;"/>
   </g>
   <g id="patch_3">
    <path d="M 50.137685 306.056 
L 50.137685 26.88 
" style="fill:none;stroke:#000000;stroke-linecap:square;stroke-linejoin:miter;stroke-width:0.8;"/>
   </g>
   <g id="patch_4">
    <path d="M 450 306.056 
L 450 26.88 
" style="fill:none;stroke:#000000;stroke-linecap:square;stroke-linejoin:miter;stroke-width:0.8;"/>
   </g>
   <g id="patch_5">
    <path d="M 50.137685 306.056 
L 450 306.056 
" style="fill:none;stroke:#000000;stroke-linecap:square;stroke-linejoin:miter;stroke-width:0.8;"/>
   </g>
   <g id="patch_6">
    <path d="M 50.137685 26.88 
L 450 26.88 
" style="fill:none;stroke:#000000;stroke-linecap:square;stroke-linejoin:miter;stroke-width:0.8;"/>
   </g>
   <g id="text_10">
    <!-- Covid in Czech - zoomed -->
    <g transform="translate(175.950092 20.88)scale(0.12 -0.12)">
     <defs>
      <path d="M 64.40625 67.28125 
L 64.40625 56.890625 
Q 59.421875 61.53125 53.78125 63.8125 
Q 48.140625 66.109375 41.796875 66.109375 
Q 29.296875 66.109375 22.65625 58.46875 
Q 16.015625 50.828125 16.015625 36.375 
Q 16.015625 21.96875 22.65625 14.328125 
Q 29.296875 6.6875 41.796875 6.6875 
Q 48.140625 6.6875 53.78125 8.984375 
Q 59.421875 11.28125 64.40625 15.921875 
L 64.40625 5.609375 
Q 59.234375 2.09375 53.4375 0.328125 
Q 47.65625 -1.421875 41.21875 -1.421875 
Q 24.65625 -1.421875 15.125 8.703125 
Q 5.609375 18.84375 5.609375 36.375 
Q 5.609375 53.953125 15.125 64.078125 
Q 24.65625 74.21875 41.21875 74.21875 
Q 47.75 74.21875 53.53125 72.484375 
Q 59.328125 70.75 64.40625 67.28125 
z
" id="DejaVuSans-67"/>
      <path d="M 9.421875 54.6875 
L 18.40625 54.6875 
L 18.40625 0 
L 9.421875 0 
z
M 9.421875 75.984375 
L 18.40625 75.984375 
L 18.40625 64.59375 
L 9.421875 64.59375 
z
" id="DejaVuSans-105"/>
      <path d="M 45.40625 46.390625 
L 45.40625 75.984375 
L 54.390625 75.984375 
L 54.390625 0 
L 45.40625 0 
L 45.40625 8.203125 
Q 42.578125 3.328125 38.25 0.953125 
Q 33.9375 -1.421875 27.875 -1.421875 
Q 17.96875 -1.421875 11.734375 6.484375 
Q 5.515625 14.40625 5.515625 27.296875 
Q 5.515625 40.1875 11.734375 48.09375 
Q 17.96875 56 27.875 56 
Q 33.9375 56 38.25 53.625 
Q 42.578125 51.265625 45.40625 46.390625 
z
M 14.796875 27.296875 
Q 14.796875 17.390625 18.875 11.75 
Q 22.953125 6.109375 30.078125 6.109375 
Q 37.203125 6.109375 41.296875 11.75 
Q 45.40625 17.390625 45.40625 27.296875 
Q 45.40625 37.203125 41.296875 42.84375 
Q 37.203125 48.484375 30.078125 48.484375 
Q 22.953125 48.484375 18.875 42.84375 
Q 14.796875 37.203125 14.796875 27.296875 
z
" id="DejaVuSans-100"/>
      <path id="DejaVuSans-32"/>
      <path d="M 5.515625 54.6875 
L 48.1875 54.6875 
L 48.1875 46.484375 
L 14.40625 7.171875 
L 48.1875 7.171875 
L 48.1875 0 
L 4.296875 0 
L 4.296875 8.203125 
L 38.09375 47.515625 
L 5.515625 47.515625 
z
" id="DejaVuSans-122"/>
      <path d="M 54.890625 33.015625 
L 54.890625 0 
L 45.90625 0 
L 45.90625 32.71875 
Q 45.90625 40.484375 42.875 44.328125 
Q 39.84375 48.1875 33.796875 48.1875 
Q 26.515625 48.1875 22.3125 43.546875 
Q 18.109375 38.921875 18.109375 30.90625 
L 18.109375 0 
L 9.078125 0 
L 9.078125 75.984375 
L 18.109375 75.984375 
L 18.109375 46.1875 
Q 21.34375 51.125 25.703125 53.5625 
Q 30.078125 56 35.796875 56 
Q 45.21875 56 50.046875 50.171875 
Q 54.890625 44.34375 54.890625 33.015625 
z
" id="DejaVuSans-104"/>
      <path d="M 4.890625 31.390625 
L 31.203125 31.390625 
L 31.203125 23.390625 
L 4.890625 23.390625 
z
" id="DejaVuSans-45"/>
      <path d="M 52 44.1875 
Q 55.375 50.25 60.0625 53.125 
Q 64.75 56 71.09375 56 
Q 79.640625 56 84.28125 50.015625 
Q 88.921875 44.046875 88.921875 33.015625 
L 88.921875 0 
L 79.890625 0 
L 79.890625 32.71875 
Q 79.890625 40.578125 77.09375 44.375 
Q 74.3125 48.1875 68.609375 48.1875 
Q 61.625 48.1875 57.5625 43.546875 
Q 53.515625 38.921875 53.515625 30.90625 
L 53.515625 0 
L 44.484375 0 
L 44.484375 32.71875 
Q 44.484375 40.625 41.703125 44.40625 
Q 38.921875 48.1875 33.109375 48.1875 
Q 26.21875 48.1875 22.15625 43.53125 
Q 18.109375 38.875 18.109375 30.90625 
L 18.109375 0 
L 9.078125 0 
L 9.078125 54.6875 
L 18.109375 54.6875 
L 18.109375 46.1875 
Q 21.1875 51.21875 25.484375 53.609375 
Q 29.78125 56 35.6875 56 
Q 41.65625 56 45.828125 52.96875 
Q 50 49.953125 52 44.1875 
z
" id="DejaVuSans-109"/>
     </defs>
     <use xlink:href="#DejaVuSans-67"/>
     <use x="69.824219" xlink:href="#DejaVuSans-111"/>
     <use x="131.005859" xlink:href="#DejaVuSans-118"/>
     <use x="190.185547" xlink:href="#DejaVuSans-105"/>
     <use x="217.96875" xlink:href="#DejaVuSans-100"/>
     <use x="281.445312" xlink:href="#DejaVuSans-32"/>
     <use x="313.232422" xlink:href="#DejaVuSans-105"/>
     <use x="341.015625" xlink:href="#DejaVuSans-110"/>
     <use x="404.394531" xlink:href="#DejaVuSans-32"/>
     <use x="436.181641" xlink:href="#DejaVuSans-67"/>
     <use x="506.005859" xlink:href="#DejaVuSans-122"/>
     <use x="558.496094" xlink:href="#DejaVuSans-101"/>
     <use x="620.019531" xlink:href="#DejaVuSans-99"/>
     <use x="675" xlink:href="#DejaVuSans-104"/>
     <use x="738.378906" xlink:href="#DejaVuSans-32"/>
     <use x="770.166016" xlink:href="#DejaVuSans-45"/>
     <use x="806.25" xlink:href="#DejaVuSans-32"/>
     <use x="838.037109" xlink:href="#DejaVuSans-122"/>
     <use x="890.527344" xlink:href="#DejaVuSans-111"/>
     <use x="951.708984" xlink:href="#DejaVuSans-111"/>
     <use x="1012.890625" xlink:href="#DejaVuSans-109"/>
     <use x="1110.302734" xlink:href="#DejaVuSans-101"/>
     <use x="1171.826172" xlink:href="#DejaVuSans-100"/>
    </g>
   </g>
   <g id="legend_1">
    <g id="patch_7">
     <path d="M 307.692187 197.602375 
L 443 197.602375 
Q 445 197.602375 445 195.602375 
L 445 137.333625 
Q 445 135.333625 443 135.333625 
L 307.692187 135.333625 
Q 305.692187 135.333625 305.692187 137.333625 
L 305.692187 195.602375 
Q 305.692187 197.602375 307.692187 197.602375 
z
" style="fill:#ffffff;opacity:0.8;stroke:#cccccc;stroke-linejoin:miter;"/>
    </g>
    <g id="line2d_58">
     <path d="M 309.692187 143.432063 
L 329.692187 143.432063 
" style="fill:none;stroke:#ff0000;stroke-linecap:square;stroke-width:1.5;"/>
    </g>
    <g id="line2d_59"/>
    <g id="text_11">
     <!-- confirmed -->
     <g transform="translate(337.692187 146.932063)scale(0.1 -0.1)">
      <defs>
       <path d="M 37.109375 75.984375 
L 37.109375 68.5 
L 28.515625 68.5 
Q 23.6875 68.5 21.796875 66.546875 
Q 19.921875 64.59375 19.921875 59.515625 
L 19.921875 54.6875 
L 34.71875 54.6875 
L 34.71875 47.703125 
L 19.921875 47.703125 
L 19.921875 0 
L 10.890625 0 
L 10.890625 47.703125 
L 2.296875 47.703125 
L 2.296875 54.6875 
L 10.890625 54.6875 
L 10.890625 58.5 
Q 10.890625 67.625 15.140625 71.796875 
Q 19.390625 75.984375 28.609375 75.984375 
z
" id="DejaVuSans-102"/>
      </defs>
      <use xlink:href="#DejaVuSans-99"/>
      <use x="54.980469" xlink:href="#DejaVuSans-111"/>
      <use x="116.162109" xlink:href="#DejaVuSans-110"/>
      <use x="179.541016" xlink:href="#DejaVuSans-102"/>
      <use x="214.746094" xlink:href="#DejaVuSans-105"/>
      <use x="242.529297" xlink:href="#DejaVuSans-114"/>
      <use x="281.892578" xlink:href="#DejaVuSans-109"/>
      <use x="379.304688" xlink:href="#DejaVuSans-101"/>
      <use x="440.828125" xlink:href="#DejaVuSans-100"/>
     </g>
    </g>
    <g id="line2d_60">
     <path d="M 309.692187 158.110187 
L 329.692187 158.110187 
" style="fill:none;stroke:#000000;stroke-linecap:square;stroke-width:1.5;"/>
    </g>
    <g id="line2d_61"/>
    <g id="text_12">
     <!-- death -->
     <g transform="translate(337.692187 161.610187)scale(0.1 -0.1)">
      <defs>
       <path d="M 18.3125 70.21875 
L 18.3125 54.6875 
L 36.8125 54.6875 
L 36.8125 47.703125 
L 18.3125 47.703125 
L 18.3125 18.015625 
Q 18.3125 11.328125 20.140625 9.421875 
Q 21.96875 7.515625 27.59375 7.515625 
L 36.8125 7.515625 
L 36.8125 0 
L 27.59375 0 
Q 17.1875 0 13.234375 3.875 
Q 9.28125 7.765625 9.28125 18.015625 
L 9.28125 47.703125 
L 2.6875 47.703125 
L 2.6875 54.6875 
L 9.28125 54.6875 
L 9.28125 70.21875 
z
" id="DejaVuSans-116"/>
      </defs>
      <use xlink:href="#DejaVuSans-100"/>
      <use x="63.476562" xlink:href="#DejaVuSans-101"/>
      <use x="125" xlink:href="#DejaVuSans-97"/>
      <use x="186.279297" xlink:href="#DejaVuSans-116"/>
      <use x="225.488281" xlink:href="#DejaVuSans-104"/>
     </g>
    </g>
    <g id="line2d_62">
     <path d="M 309.692187 172.788313 
L 329.692187 172.788313 
" style="fill:none;stroke:#663300;stroke-linecap:square;stroke-width:1.5;"/>
    </g>
    <g id="line2d_63"/>
    <g id="text_13">
     <!-- in_hosp -->
     <g transform="translate(337.692187 176.288313)scale(0.1 -0.1)">
      <defs>
       <path d="M 50.984375 -16.609375 
L 50.984375 -23.578125 
L -0.984375 -23.578125 
L -0.984375 -16.609375 
z
" id="DejaVuSans-95"/>
       <path d="M 44.28125 53.078125 
L 44.28125 44.578125 
Q 40.484375 46.53125 36.375 47.5 
Q 32.28125 48.484375 27.875 48.484375 
Q 21.1875 48.484375 17.84375 46.4375 
Q 14.5 44.390625 14.5 40.28125 
Q 14.5 37.15625 16.890625 35.375 
Q 19.28125 33.59375 26.515625 31.984375 
L 29.59375 31.296875 
Q 39.15625 29.25 43.1875 25.515625 
Q 47.21875 21.78125 47.21875 15.09375 
Q 47.21875 7.46875 41.1875 3.015625 
Q 35.15625 -1.421875 24.609375 -1.421875 
Q 20.21875 -1.421875 15.453125 -0.5625 
Q 10.6875 0.296875 5.421875 2 
L 5.421875 11.28125 
Q 10.40625 8.6875 15.234375 7.390625 
Q 20.0625 6.109375 24.8125 6.109375 
Q 31.15625 6.109375 34.5625 8.28125 
Q 37.984375 10.453125 37.984375 14.40625 
Q 37.984375 18.0625 35.515625 20.015625 
Q 33.0625 21.96875 24.703125 23.78125 
L 21.578125 24.515625 
Q 13.234375 26.265625 9.515625 29.90625 
Q 5.8125 33.546875 5.8125 39.890625 
Q 5.8125 47.609375 11.28125 51.796875 
Q 16.75 56 26.8125 56 
Q 31.78125 56 36.171875 55.265625 
Q 40.578125 54.546875 44.28125 53.078125 
z
" id="DejaVuSans-115"/>
       <path d="M 18.109375 8.203125 
L 18.109375 -20.796875 
L 9.078125 -20.796875 
L 9.078125 54.6875 
L 18.109375 54.6875 
L 18.109375 46.390625 
Q 20.953125 51.265625 25.265625 53.625 
Q 29.59375 56 35.59375 56 
Q 45.5625 56 51.78125 48.09375 
Q 58.015625 40.1875 58.015625 27.296875 
Q 58.015625 14.40625 51.78125 6.484375 
Q 45.5625 -1.421875 35.59375 -1.421875 
Q 29.59375 -1.421875 25.265625 0.953125 
Q 20.953125 3.328125 18.109375 8.203125 
z
M 48.6875 27.296875 
Q 48.6875 37.203125 44.609375 42.84375 
Q 40.53125 48.484375 33.40625 48.484375 
Q 26.265625 48.484375 22.1875 42.84375 
Q 18.109375 37.203125 18.109375 27.296875 
Q 18.109375 17.390625 22.1875 11.75 
Q 26.265625 6.109375 33.40625 6.109375 
Q 40.53125 6.109375 44.609375 11.75 
Q 48.6875 17.390625 48.6875 27.296875 
z
" id="DejaVuSans-112"/>
      </defs>
      <use xlink:href="#DejaVuSans-105"/>
      <use x="27.783203" xlink:href="#DejaVuSans-110"/>
      <use x="91.162109" xlink:href="#DejaVuSans-95"/>
      <use x="141.162109" xlink:href="#DejaVuSans-104"/>
      <use x="204.541016" xlink:href="#DejaVuSans-111"/>
      <use x="265.722656" xlink:href="#DejaVuSans-115"/>
      <use x="317.822266" xlink:href="#DejaVuSans-112"/>
     </g>
    </g>
    <g id="line2d_64">
     <path d="M 309.692187 187.744563 
L 329.692187 187.744563 
" style="fill:none;stroke:#0000ff;stroke-linecap:square;stroke-width:1.5;"/>
    </g>
    <g id="line2d_65"/>
    <g id="text_14">
     <!-- ventilation_available -->
     <g transform="translate(337.692187 191.244563)scale(0.1 -0.1)">
      <use xlink:href="#DejaVuSans-118"/>
      <use x="59.179688" xlink:href="#DejaVuSans-101"/>
      <use x="120.703125" xlink:href="#DejaVuSans-110"/>
      <use x="184.082031" xlink:href="#DejaVuSans-116"/>
      <use x="223.291016" xlink:href="#DejaVuSans-105"/>
      <use x="251.074219" xlink:href="#DejaVuSans-108"/>
      <use x="278.857422" xlink:href="#DejaVuSans-97"/>
      <use x="340.136719" xlink:href="#DejaVuSans-116"/>
      <use x="379.345703" xlink:href="#DejaVuSans-105"/>
      <use x="407.128906" xlink:href="#DejaVuSans-111"/>
      <use x="468.310547" xlink:href="#DejaVuSans-110"/>
      <use x="531.689453" xlink:href="#DejaVuSans-95"/>
      <use x="581.689453" xlink:href="#DejaVuSans-97"/>
      <use x="642.96875" xlink:href="#DejaVuSans-118"/>
      <use x="702.148438" xlink:href="#DejaVuSans-97"/>
      <use x="763.427734" xlink:href="#DejaVuSans-105"/>
      <use x="791.210938" xlink:href="#DejaVuSans-108"/>
      <use x="818.994141" xlink:href="#DejaVuSans-97"/>
      <use x="880.273438" xlink:href="#DejaVuSans-98"/>
      <use x="943.75" xlink:href="#DejaVuSans-108"/>
      <use x="971.533203" xlink:href="#DejaVuSans-101"/>
     </g>
    </g>
   </g>
  </g>
 </g>
 <defs>
  <clipPath id="p8af265703a">
   <rect height="279.176" width="399.862315" x="50.137685" y="26.88"/>
  </clipPath>
 </defs>
</svg>
