<?xml version="1.0" encoding="utf-8" standalone="no"?>
<!DOCTYPE svg PUBLIC "-//W3C//DTD SVG 1.1//EN"
  "http://www.w3.org/Graphics/SVG/1.1/DTD/svg11.dtd">
<!-- Created with matplotlib (https://matplotlib.org/) -->
<svg height="345.6pt" version="1.1" viewBox="0 0 460.8 345.6" width="460.8pt" xmlns="http://www.w3.org/2000/svg" xmlns:xlink="http://www.w3.org/1999/xlink">
 <metadata>
  <rdf:RDF xmlns:cc="http://creativecommons.org/ns#" xmlns:dc="http://purl.org/dc/elements/1.1/" xmlns:rdf="http://www.w3.org/1999/02/22-rdf-syntax-ns#">
   <cc:Work>
    <dc:type rdf:resource="http://purl.org/dc/dcmitype/StillImage"/>
    <dc:date>2021-03-04T08:45:04.947182</dc:date>
    <dc:format>image/svg+xml</dc:format>
    <dc:creator>
     <cc:Agent>
      <dc:title>Matplotlib v3.3.4, https://matplotlib.org/</dc:title>
     </cc:Agent>
    </dc:creator>
   </cc:Work>
  </rdf:RDF>
 </metadata>
 <defs>
  <style type="text/css">*{stroke-linecap:butt;stroke-linejoin:round;}</style>
 </defs>
 <g id="figure_1">
  <g id="patch_1">
   <path d="M 0 345.6 
L 460.8 345.6 
L 460.8 0 
L 0 0 
z
" style="fill:#ffffff;"/>
  </g>
  <g id="axes_1">
   <g id="patch_2">
    <path d="M 50.137685 306.056 
L 446.359426 306.056 
L 446.359426 26.88 
L 50.137685 26.88 
z
" style="fill:#ffffff;"/>
   </g>
   <g id="matplotlib.axis_1">
    <g id="xtick_1">
     <g id="line2d_1">
      <path clip-path="url(#p8e5209b342)" d="M 50.137685 306.056 
L 50.137685 26.88 
" style="fill:none;stroke:#b0b0b0;stroke-linecap:square;stroke-width:0.8;"/>
     </g>
     <g id="line2d_2">
      <defs>
       <path d="M 0 0 
L 0 3.5 
" id="m753f9edf4c" style="stroke:#000000;stroke-width:0.8;"/>
      </defs>
      <g>
       <use style="stroke:#000000;stroke-width:0.8;" x="50.137685" xlink:href="#m753f9edf4c" y="306.056"/>
      </g>
     </g>
     <g id="text_1">
      <!-- Nov -->
      <g transform="translate(40.37831 320.654437)scale(0.1 -0.1)">
       <defs>
        <path d="M 9.8125 72.90625 
L 23.09375 72.90625 
L 55.421875 11.921875 
L 55.421875 72.90625 
L 64.984375 72.90625 
L 64.984375 0 
L 51.703125 0 
L 19.390625 60.984375 
L 19.390625 0 
L 9.8125 0 
z
" id="DejaVuSans-78"/>
        <path d="M 30.609375 48.390625 
Q 23.390625 48.390625 19.1875 42.75 
Q 14.984375 37.109375 14.984375 27.296875 
Q 14.984375 17.484375 19.15625 11.84375 
Q 23.34375 6.203125 30.609375 6.203125 
Q 37.796875 6.203125 41.984375 11.859375 
Q 46.1875 17.53125 46.1875 27.296875 
Q 46.1875 37.015625 41.984375 42.703125 
Q 37.796875 48.390625 30.609375 48.390625 
z
M 30.609375 56 
Q 42.328125 56 49.015625 48.375 
Q 55.71875 40.765625 55.71875 27.296875 
Q 55.71875 13.875 49.015625 6.21875 
Q 42.328125 -1.421875 30.609375 -1.421875 
Q 18.84375 -1.421875 12.171875 6.21875 
Q 5.515625 13.875 5.515625 27.296875 
Q 5.515625 40.765625 12.171875 48.375 
Q 18.84375 56 30.609375 56 
z
" id="DejaVuSans-111"/>
        <path d="M 2.984375 54.6875 
L 12.5 54.6875 
L 29.59375 8.796875 
L 46.6875 54.6875 
L 56.203125 54.6875 
L 35.6875 0 
L 23.484375 0 
z
" id="DejaVuSans-118"/>
       </defs>
       <use xlink:href="#DejaVuSans-78"/>
       <use x="74.804688" xlink:href="#DejaVuSans-111"/>
       <use x="135.986328" xlink:href="#DejaVuSans-118"/>
      </g>
     </g>
    </g>
    <g id="xtick_2">
     <g id="line2d_3">
      <path clip-path="url(#p8e5209b342)" d="M 147.569261 306.056 
L 147.569261 26.88 
" style="fill:none;stroke:#b0b0b0;stroke-linecap:square;stroke-width:0.8;"/>
     </g>
     <g id="line2d_4">
      <g>
       <use style="stroke:#000000;stroke-width:0.8;" x="147.569261" xlink:href="#m753f9edf4c" y="306.056"/>
      </g>
     </g>
     <g id="text_2">
      <!-- Dec -->
      <g transform="translate(137.893479 320.654437)scale(0.1 -0.1)">
       <defs>
        <path d="M 19.671875 64.796875 
L 19.671875 8.109375 
L 31.59375 8.109375 
Q 46.6875 8.109375 53.6875 14.9375 
Q 60.6875 21.78125 60.6875 36.53125 
Q 60.6875 51.171875 53.6875 57.984375 
Q 46.6875 64.796875 31.59375 64.796875 
z
M 9.8125 72.90625 
L 30.078125 72.90625 
Q 51.265625 72.90625 61.171875 64.09375 
Q 71.09375 55.28125 71.09375 36.53125 
Q 71.09375 17.671875 61.125 8.828125 
Q 51.171875 0 30.078125 0 
L 9.8125 0 
z
" id="DejaVuSans-68"/>
        <path d="M 56.203125 29.59375 
L 56.203125 25.203125 
L 14.890625 25.203125 
Q 15.484375 15.921875 20.484375 11.0625 
Q 25.484375 6.203125 34.421875 6.203125 
Q 39.59375 6.203125 44.453125 7.46875 
Q 49.3125 8.734375 54.109375 11.28125 
L 54.109375 2.78125 
Q 49.265625 0.734375 44.1875 -0.34375 
Q 39.109375 -1.421875 33.890625 -1.421875 
Q 20.796875 -1.421875 13.15625 6.1875 
Q 5.515625 13.8125 5.515625 26.8125 
Q 5.515625 40.234375 12.765625 48.109375 
Q 20.015625 56 32.328125 56 
Q 43.359375 56 49.78125 48.890625 
Q 56.203125 41.796875 56.203125 29.59375 
z
M 47.21875 32.234375 
Q 47.125 39.59375 43.09375 43.984375 
Q 39.0625 48.390625 32.421875 48.390625 
Q 24.90625 48.390625 20.390625 44.140625 
Q 15.875 39.890625 15.1875 32.171875 
z
" id="DejaVuSans-101"/>
        <path d="M 48.78125 52.59375 
L 48.78125 44.1875 
Q 44.96875 46.296875 41.140625 47.34375 
Q 37.3125 48.390625 33.40625 48.390625 
Q 24.65625 48.390625 19.8125 42.84375 
Q 14.984375 37.3125 14.984375 27.296875 
Q 14.984375 17.28125 19.8125 11.734375 
Q 24.65625 6.203125 33.40625 6.203125 
Q 37.3125 6.203125 41.140625 7.25 
Q 44.96875 8.296875 48.78125 10.40625 
L 48.78125 2.09375 
Q 45.015625 0.34375 40.984375 -0.53125 
Q 36.96875 -1.421875 32.421875 -1.421875 
Q 20.0625 -1.421875 12.78125 6.34375 
Q 5.515625 14.109375 5.515625 27.296875 
Q 5.515625 40.671875 12.859375 48.328125 
Q 20.21875 56 33.015625 56 
Q 37.15625 56 41.109375 55.140625 
Q 45.0625 54.296875 48.78125 52.59375 
z
" id="DejaVuSans-99"/>
       </defs>
       <use xlink:href="#DejaVuSans-68"/>
       <use x="77.001953" xlink:href="#DejaVuSans-101"/>
       <use x="138.525391" xlink:href="#DejaVuSans-99"/>
      </g>
     </g>
    </g>
    <g id="xtick_3">
     <g id="line2d_5">
      <path clip-path="url(#p8e5209b342)" d="M 248.248555 306.056 
L 248.248555 26.88 
" style="fill:none;stroke:#b0b0b0;stroke-linecap:square;stroke-width:0.8;"/>
     </g>
     <g id="line2d_6">
      <g>
       <use style="stroke:#000000;stroke-width:0.8;" x="248.248555" xlink:href="#m753f9edf4c" y="306.056"/>
      </g>
     </g>
     <g id="text_3">
      <!-- Jan -->
      <g transform="translate(240.540743 320.654437)scale(0.1 -0.1)">
       <defs>
        <path d="M 9.8125 72.90625 
L 19.671875 72.90625 
L 19.671875 5.078125 
Q 19.671875 -8.109375 14.671875 -14.0625 
Q 9.671875 -20.015625 -1.421875 -20.015625 
L -5.171875 -20.015625 
L -5.171875 -11.71875 
L -2.09375 -11.71875 
Q 4.4375 -11.71875 7.125 -8.046875 
Q 9.8125 -4.390625 9.8125 5.078125 
z
" id="DejaVuSans-74"/>
        <path d="M 34.28125 27.484375 
Q 23.390625 27.484375 19.1875 25 
Q 14.984375 22.515625 14.984375 16.5 
Q 14.984375 11.71875 18.140625 8.90625 
Q 21.296875 6.109375 26.703125 6.109375 
Q 34.1875 6.109375 38.703125 11.40625 
Q 43.21875 16.703125 43.21875 25.484375 
L 43.21875 27.484375 
z
M 52.203125 31.203125 
L 52.203125 0 
L 43.21875 0 
L 43.21875 8.296875 
Q 40.140625 3.328125 35.546875 0.953125 
Q 30.953125 -1.421875 24.3125 -1.421875 
Q 15.921875 -1.421875 10.953125 3.296875 
Q 6 8.015625 6 15.921875 
Q 6 25.140625 12.171875 29.828125 
Q 18.359375 34.515625 30.609375 34.515625 
L 43.21875 34.515625 
L 43.21875 35.40625 
Q 43.21875 41.609375 39.140625 45 
Q 35.0625 48.390625 27.6875 48.390625 
Q 23 48.390625 18.546875 47.265625 
Q 14.109375 46.140625 10.015625 43.890625 
L 10.015625 52.203125 
Q 14.9375 54.109375 19.578125 55.046875 
Q 24.21875 56 28.609375 56 
Q 40.484375 56 46.34375 49.84375 
Q 52.203125 43.703125 52.203125 31.203125 
z
" id="DejaVuSans-97"/>
        <path d="M 54.890625 33.015625 
L 54.890625 0 
L 45.90625 0 
L 45.90625 32.71875 
Q 45.90625 40.484375 42.875 44.328125 
Q 39.84375 48.1875 33.796875 48.1875 
Q 26.515625 48.1875 22.3125 43.546875 
Q 18.109375 38.921875 18.109375 30.90625 
L 18.109375 0 
L 9.078125 0 
L 9.078125 54.6875 
L 18.109375 54.6875 
L 18.109375 46.1875 
Q 21.34375 51.125 25.703125 53.5625 
Q 30.078125 56 35.796875 56 
Q 45.21875 56 50.046875 50.171875 
Q 54.890625 44.34375 54.890625 33.015625 
z
" id="DejaVuSans-110"/>
       </defs>
       <use xlink:href="#DejaVuSans-74"/>
       <use x="29.492188" xlink:href="#DejaVuSans-97"/>
       <use x="90.771484" xlink:href="#DejaVuSans-110"/>
      </g>
      <!-- 2021 -->
      <g transform="translate(235.523555 331.85225)scale(0.1 -0.1)">
       <defs>
        <path d="M 19.1875 8.296875 
L 53.609375 8.296875 
L 53.609375 0 
L 7.328125 0 
L 7.328125 8.296875 
Q 12.9375 14.109375 22.625 23.890625 
Q 32.328125 33.6875 34.8125 36.53125 
Q 39.546875 41.84375 41.421875 45.53125 
Q 43.3125 49.21875 43.3125 52.78125 
Q 43.3125 58.59375 39.234375 62.25 
Q 35.15625 65.921875 28.609375 65.921875 
Q 23.96875 65.921875 18.8125 64.3125 
Q 13.671875 62.703125 7.8125 59.421875 
L 7.8125 69.390625 
Q 13.765625 71.78125 18.9375 73 
Q 24.125 74.21875 28.421875 74.21875 
Q 39.75 74.21875 46.484375 68.546875 
Q 53.21875 62.890625 53.21875 53.421875 
Q 53.21875 48.921875 51.53125 44.890625 
Q 49.859375 40.875 45.40625 35.40625 
Q 44.1875 33.984375 37.640625 27.21875 
Q 31.109375 20.453125 19.1875 8.296875 
z
" id="DejaVuSans-50"/>
        <path d="M 31.78125 66.40625 
Q 24.171875 66.40625 20.328125 58.90625 
Q 16.5 51.421875 16.5 36.375 
Q 16.5 21.390625 20.328125 13.890625 
Q 24.171875 6.390625 31.78125 6.390625 
Q 39.453125 6.390625 43.28125 13.890625 
Q 47.125 21.390625 47.125 36.375 
Q 47.125 51.421875 43.28125 58.90625 
Q 39.453125 66.40625 31.78125 66.40625 
z
M 31.78125 74.21875 
Q 44.046875 74.21875 50.515625 64.515625 
Q 56.984375 54.828125 56.984375 36.375 
Q 56.984375 17.96875 50.515625 8.265625 
Q 44.046875 -1.421875 31.78125 -1.421875 
Q 19.53125 -1.421875 13.0625 8.265625 
Q 6.59375 17.96875 6.59375 36.375 
Q 6.59375 54.828125 13.0625 64.515625 
Q 19.53125 74.21875 31.78125 74.21875 
z
" id="DejaVuSans-48"/>
        <path d="M 12.40625 8.296875 
L 28.515625 8.296875 
L 28.515625 63.921875 
L 10.984375 60.40625 
L 10.984375 69.390625 
L 28.421875 72.90625 
L 38.28125 72.90625 
L 38.28125 8.296875 
L 54.390625 8.296875 
L 54.390625 0 
L 12.40625 0 
z
" id="DejaVuSans-49"/>
       </defs>
       <use xlink:href="#DejaVuSans-50"/>
       <use x="63.623047" xlink:href="#DejaVuSans-48"/>
       <use x="127.246094" xlink:href="#DejaVuSans-50"/>
       <use x="190.869141" xlink:href="#DejaVuSans-49"/>
      </g>
     </g>
    </g>
    <g id="xtick_4">
     <g id="line2d_7">
      <path clip-path="url(#p8e5209b342)" d="M 348.92785 306.056 
L 348.92785 26.88 
" style="fill:none;stroke:#b0b0b0;stroke-linecap:square;stroke-width:0.8;"/>
     </g>
     <g id="line2d_8">
      <g>
       <use style="stroke:#000000;stroke-width:0.8;" x="348.92785" xlink:href="#m753f9edf4c" y="306.056"/>
      </g>
     </g>
     <g id="text_4">
      <!-- Feb -->
      <g transform="translate(340.076288 320.654437)scale(0.1 -0.1)">
       <defs>
        <path d="M 9.8125 72.90625 
L 51.703125 72.90625 
L 51.703125 64.59375 
L 19.671875 64.59375 
L 19.671875 43.109375 
L 48.578125 43.109375 
L 48.578125 34.8125 
L 19.671875 34.8125 
L 19.671875 0 
L 9.8125 0 
z
" id="DejaVuSans-70"/>
        <path d="M 48.6875 27.296875 
Q 48.6875 37.203125 44.609375 42.84375 
Q 40.53125 48.484375 33.40625 48.484375 
Q 26.265625 48.484375 22.1875 42.84375 
Q 18.109375 37.203125 18.109375 27.296875 
Q 18.109375 17.390625 22.1875 11.75 
Q 26.265625 6.109375 33.40625 6.109375 
Q 40.53125 6.109375 44.609375 11.75 
Q 48.6875 17.390625 48.6875 27.296875 
z
M 18.109375 46.390625 
Q 20.953125 51.265625 25.265625 53.625 
Q 29.59375 56 35.59375 56 
Q 45.5625 56 51.78125 48.09375 
Q 58.015625 40.1875 58.015625 27.296875 
Q 58.015625 14.40625 51.78125 6.484375 
Q 45.5625 -1.421875 35.59375 -1.421875 
Q 29.59375 -1.421875 25.265625 0.953125 
Q 20.953125 3.328125 18.109375 8.203125 
L 18.109375 0 
L 9.078125 0 
L 9.078125 75.984375 
L 18.109375 75.984375 
z
" id="DejaVuSans-98"/>
       </defs>
       <use xlink:href="#DejaVuSans-70"/>
       <use x="52.019531" xlink:href="#DejaVuSans-101"/>
       <use x="113.542969" xlink:href="#DejaVuSans-98"/>
      </g>
     </g>
    </g>
    <g id="xtick_5">
     <g id="line2d_9">
      <path clip-path="url(#p8e5209b342)" d="M 439.863988 306.056 
L 439.863988 26.88 
" style="fill:none;stroke:#b0b0b0;stroke-linecap:square;stroke-width:0.8;"/>
     </g>
     <g id="line2d_10">
      <g>
       <use style="stroke:#000000;stroke-width:0.8;" x="439.863988" xlink:href="#m753f9edf4c" y="306.056"/>
      </g>
     </g>
     <g id="text_5">
      <!-- Mar -->
      <g transform="translate(430.430394 320.654437)scale(0.1 -0.1)">
       <defs>
        <path d="M 9.8125 72.90625 
L 24.515625 72.90625 
L 43.109375 23.296875 
L 61.8125 72.90625 
L 76.515625 72.90625 
L 76.515625 0 
L 66.890625 0 
L 66.890625 64.015625 
L 48.09375 14.015625 
L 38.1875 14.015625 
L 19.390625 64.015625 
L 19.390625 0 
L 9.8125 0 
z
" id="DejaVuSans-77"/>
        <path d="M 41.109375 46.296875 
Q 39.59375 47.171875 37.8125 47.578125 
Q 36.03125 48 33.890625 48 
Q 26.265625 48 22.1875 43.046875 
Q 18.109375 38.09375 18.109375 28.8125 
L 18.109375 0 
L 9.078125 0 
L 9.078125 54.6875 
L 18.109375 54.6875 
L 18.109375 46.1875 
Q 20.953125 51.171875 25.484375 53.578125 
Q 30.03125 56 36.53125 56 
Q 37.453125 56 38.578125 55.875 
Q 39.703125 55.765625 41.0625 55.515625 
z
" id="DejaVuSans-114"/>
       </defs>
       <use xlink:href="#DejaVuSans-77"/>
       <use x="86.279297" xlink:href="#DejaVuSans-97"/>
       <use x="147.558594" xlink:href="#DejaVuSans-114"/>
      </g>
     </g>
    </g>
    <g id="xtick_6">
     <g id="line2d_11">
      <path clip-path="url(#p8e5209b342)" d="M 446.359426 306.056 
L 446.359426 26.88 
" style="fill:none;stroke:#b0b0b0;stroke-linecap:square;stroke-width:0.8;"/>
     </g>
     <g id="line2d_12">
      <g>
       <use style="stroke:#000000;stroke-width:0.8;" x="446.359426" xlink:href="#m753f9edf4c" y="306.056"/>
      </g>
     </g>
    </g>
    <g id="xtick_7">
     <g id="line2d_13">
      <defs>
       <path d="M 0 0 
L 0 2 
" id="m766e6ccebe" style="stroke:#000000;stroke-width:0.6;"/>
      </defs>
      <g>
       <use style="stroke:#000000;stroke-width:0.6;" x="53.385404" xlink:href="#m766e6ccebe" y="306.056"/>
      </g>
     </g>
    </g>
    <g id="xtick_8">
     <g id="line2d_14">
      <g>
       <use style="stroke:#000000;stroke-width:0.6;" x="76.119438" xlink:href="#m766e6ccebe" y="306.056"/>
      </g>
     </g>
    </g>
    <g id="xtick_9">
     <g id="line2d_15">
      <g>
       <use style="stroke:#000000;stroke-width:0.6;" x="98.853473" xlink:href="#m766e6ccebe" y="306.056"/>
      </g>
     </g>
    </g>
    <g id="xtick_10">
     <g id="line2d_16">
      <g>
       <use style="stroke:#000000;stroke-width:0.6;" x="121.587507" xlink:href="#m766e6ccebe" y="306.056"/>
      </g>
     </g>
    </g>
    <g id="xtick_11">
     <g id="line2d_17">
      <g>
       <use style="stroke:#000000;stroke-width:0.6;" x="144.321541" xlink:href="#m766e6ccebe" y="306.056"/>
      </g>
     </g>
    </g>
    <g id="xtick_12">
     <g id="line2d_18">
      <g>
       <use style="stroke:#000000;stroke-width:0.6;" x="167.055576" xlink:href="#m766e6ccebe" y="306.056"/>
      </g>
     </g>
    </g>
    <g id="xtick_13">
     <g id="line2d_19">
      <g>
       <use style="stroke:#000000;stroke-width:0.6;" x="189.78961" xlink:href="#m766e6ccebe" y="306.056"/>
      </g>
     </g>
    </g>
    <g id="xtick_14">
     <g id="line2d_20">
      <g>
       <use style="stroke:#000000;stroke-width:0.6;" x="212.523644" xlink:href="#m766e6ccebe" y="306.056"/>
      </g>
     </g>
    </g>
    <g id="xtick_15">
     <g id="line2d_21">
      <g>
       <use style="stroke:#000000;stroke-width:0.6;" x="235.257679" xlink:href="#m766e6ccebe" y="306.056"/>
      </g>
     </g>
    </g>
    <g id="xtick_16">
     <g id="line2d_22">
      <g>
       <use style="stroke:#000000;stroke-width:0.6;" x="257.991713" xlink:href="#m766e6ccebe" y="306.056"/>
      </g>
     </g>
    </g>
    <g id="xtick_17">
     <g id="line2d_23">
      <g>
       <use style="stroke:#000000;stroke-width:0.6;" x="280.725747" xlink:href="#m766e6ccebe" y="306.056"/>
      </g>
     </g>
    </g>
    <g id="xtick_18">
     <g id="line2d_24">
      <g>
       <use style="stroke:#000000;stroke-width:0.6;" x="303.459782" xlink:href="#m766e6ccebe" y="306.056"/>
      </g>
     </g>
    </g>
    <g id="xtick_19">
     <g id="line2d_25">
      <g>
       <use style="stroke:#000000;stroke-width:0.6;" x="326.193816" xlink:href="#m766e6ccebe" y="306.056"/>
      </g>
     </g>
    </g>
    <g id="xtick_20">
     <g id="line2d_26">
      <g>
       <use style="stroke:#000000;stroke-width:0.6;" x="371.661885" xlink:href="#m766e6ccebe" y="306.056"/>
      </g>
     </g>
    </g>
    <g id="xtick_21">
     <g id="line2d_27">
      <g>
       <use style="stroke:#000000;stroke-width:0.6;" x="394.395919" xlink:href="#m766e6ccebe" y="306.056"/>
      </g>
     </g>
    </g>
    <g id="xtick_22">
     <g id="line2d_28">
      <g>
       <use style="stroke:#000000;stroke-width:0.6;" x="417.129953" xlink:href="#m766e6ccebe" y="306.056"/>
      </g>
     </g>
    </g>
   </g>
   <g id="matplotlib.axis_2">
    <g id="ytick_1">
     <g id="line2d_29">
      <path clip-path="url(#p8e5209b342)" d="M 50.137685 291.101614 
L 446.359426 291.101614 
" style="fill:none;stroke:#b0b0b0;stroke-linecap:square;stroke-width:0.8;"/>
     </g>
     <g id="line2d_30">
      <defs>
       <path d="M 0 0 
L -3.5 0 
" id="mcd0a83e69a" style="stroke:#000000;stroke-width:0.8;"/>
      </defs>
      <g>
       <use style="stroke:#000000;stroke-width:0.8;" x="50.137685" xlink:href="#mcd0a83e69a" y="291.101614"/>
      </g>
     </g>
     <g id="text_6">
      <!-- $\mathdefault{10^{2}}$ -->
      <g transform="translate(25.537685 294.900833)scale(0.1 -0.1)">
       <use transform="translate(0 0.765625)" xlink:href="#DejaVuSans-49"/>
       <use transform="translate(63.623047 0.765625)" xlink:href="#DejaVuSans-48"/>
       <use transform="translate(128.203125 39.046875)scale(0.7)" xlink:href="#DejaVuSans-50"/>
      </g>
     </g>
    </g>
    <g id="ytick_2">
     <g id="line2d_31">
      <path clip-path="url(#p8e5209b342)" d="M 50.137685 172.05945 
L 446.359426 172.05945 
" style="fill:none;stroke:#b0b0b0;stroke-linecap:square;stroke-width:0.8;"/>
     </g>
     <g id="line2d_32">
      <g>
       <use style="stroke:#000000;stroke-width:0.8;" x="50.137685" xlink:href="#mcd0a83e69a" y="172.05945"/>
      </g>
     </g>
     <g id="text_7">
      <!-- $\mathdefault{10^{3}}$ -->
      <g transform="translate(25.537685 175.858668)scale(0.1 -0.1)">
       <defs>
        <path d="M 40.578125 39.3125 
Q 47.65625 37.796875 51.625 33 
Q 55.609375 28.21875 55.609375 21.1875 
Q 55.609375 10.40625 48.1875 4.484375 
Q 40.765625 -1.421875 27.09375 -1.421875 
Q 22.515625 -1.421875 17.65625 -0.515625 
Q 12.796875 0.390625 7.625 2.203125 
L 7.625 11.71875 
Q 11.71875 9.328125 16.59375 8.109375 
Q 21.484375 6.890625 26.8125 6.890625 
Q 36.078125 6.890625 40.9375 10.546875 
Q 45.796875 14.203125 45.796875 21.1875 
Q 45.796875 27.640625 41.28125 31.265625 
Q 36.765625 34.90625 28.71875 34.90625 
L 20.21875 34.90625 
L 20.21875 43.015625 
L 29.109375 43.015625 
Q 36.375 43.015625 40.234375 45.921875 
Q 44.09375 48.828125 44.09375 54.296875 
Q 44.09375 59.90625 40.109375 62.90625 
Q 36.140625 65.921875 28.71875 65.921875 
Q 24.65625 65.921875 20.015625 65.03125 
Q 15.375 64.15625 9.8125 62.3125 
L 9.8125 71.09375 
Q 15.4375 72.65625 20.34375 73.4375 
Q 25.25 74.21875 29.59375 74.21875 
Q 40.828125 74.21875 47.359375 69.109375 
Q 53.90625 64.015625 53.90625 55.328125 
Q 53.90625 49.265625 50.4375 45.09375 
Q 46.96875 40.921875 40.578125 39.3125 
z
" id="DejaVuSans-51"/>
       </defs>
       <use transform="translate(0 0.765625)" xlink:href="#DejaVuSans-49"/>
       <use transform="translate(63.623047 0.765625)" xlink:href="#DejaVuSans-48"/>
       <use transform="translate(128.203125 39.046875)scale(0.7)" xlink:href="#DejaVuSans-51"/>
      </g>
     </g>
    </g>
    <g id="ytick_3">
     <g id="line2d_33">
      <path clip-path="url(#p8e5209b342)" d="M 50.137685 53.017285 
L 446.359426 53.017285 
" style="fill:none;stroke:#b0b0b0;stroke-linecap:square;stroke-width:0.8;"/>
     </g>
     <g id="line2d_34">
      <g>
       <use style="stroke:#000000;stroke-width:0.8;" x="50.137685" xlink:href="#mcd0a83e69a" y="53.017285"/>
      </g>
     </g>
     <g id="text_8">
      <!-- $\mathdefault{10^{4}}$ -->
      <g transform="translate(25.537685 56.816503)scale(0.1 -0.1)">
       <defs>
        <path d="M 37.796875 64.3125 
L 12.890625 25.390625 
L 37.796875 25.390625 
z
M 35.203125 72.90625 
L 47.609375 72.90625 
L 47.609375 25.390625 
L 58.015625 25.390625 
L 58.015625 17.1875 
L 47.609375 17.1875 
L 47.609375 0 
L 37.796875 0 
L 37.796875 17.1875 
L 4.890625 17.1875 
L 4.890625 26.703125 
z
" id="DejaVuSans-52"/>
       </defs>
       <use transform="translate(0 0.684375)" xlink:href="#DejaVuSans-49"/>
       <use transform="translate(63.623047 0.684375)" xlink:href="#DejaVuSans-48"/>
       <use transform="translate(128.203125 38.965625)scale(0.7)" xlink:href="#DejaVuSans-52"/>
      </g>
     </g>
    </g>
    <g id="ytick_4">
     <g id="line2d_35">
      <defs>
       <path d="M 0 0 
L -2 0 
" id="me3fbac9be4" style="stroke:#000000;stroke-width:0.6;"/>
      </defs>
      <g>
       <use style="stroke:#000000;stroke-width:0.6;" x="50.137685" xlink:href="#me3fbac9be4" y="302.637992"/>
      </g>
     </g>
    </g>
    <g id="ytick_5">
     <g id="line2d_36">
      <g>
       <use style="stroke:#000000;stroke-width:0.6;" x="50.137685" xlink:href="#me3fbac9be4" y="296.548685"/>
      </g>
     </g>
    </g>
    <g id="ytick_6">
     <g id="line2d_37">
      <g>
       <use style="stroke:#000000;stroke-width:0.6;" x="50.137685" xlink:href="#me3fbac9be4" y="255.266352"/>
      </g>
     </g>
    </g>
    <g id="ytick_7">
     <g id="line2d_38">
      <g>
       <use style="stroke:#000000;stroke-width:0.6;" x="50.137685" xlink:href="#me3fbac9be4" y="234.304067"/>
      </g>
     </g>
    </g>
    <g id="ytick_8">
     <g id="line2d_39">
      <g>
       <use style="stroke:#000000;stroke-width:0.6;" x="50.137685" xlink:href="#me3fbac9be4" y="219.43109"/>
      </g>
     </g>
    </g>
    <g id="ytick_9">
     <g id="line2d_40">
      <g>
       <use style="stroke:#000000;stroke-width:0.6;" x="50.137685" xlink:href="#me3fbac9be4" y="207.894712"/>
      </g>
     </g>
    </g>
    <g id="ytick_10">
     <g id="line2d_41">
      <g>
       <use style="stroke:#000000;stroke-width:0.6;" x="50.137685" xlink:href="#me3fbac9be4" y="198.468805"/>
      </g>
     </g>
    </g>
    <g id="ytick_11">
     <g id="line2d_42">
      <g>
       <use style="stroke:#000000;stroke-width:0.6;" x="50.137685" xlink:href="#me3fbac9be4" y="190.499314"/>
      </g>
     </g>
    </g>
    <g id="ytick_12">
     <g id="line2d_43">
      <g>
       <use style="stroke:#000000;stroke-width:0.6;" x="50.137685" xlink:href="#me3fbac9be4" y="183.595827"/>
      </g>
     </g>
    </g>
    <g id="ytick_13">
     <g id="line2d_44">
      <g>
       <use style="stroke:#000000;stroke-width:0.6;" x="50.137685" xlink:href="#me3fbac9be4" y="177.50652"/>
      </g>
     </g>
    </g>
    <g id="ytick_14">
     <g id="line2d_45">
      <g>
       <use style="stroke:#000000;stroke-width:0.6;" x="50.137685" xlink:href="#me3fbac9be4" y="136.224187"/>
      </g>
     </g>
    </g>
    <g id="ytick_15">
     <g id="line2d_46">
      <g>
       <use style="stroke:#000000;stroke-width:0.6;" x="50.137685" xlink:href="#me3fbac9be4" y="115.261902"/>
      </g>
     </g>
    </g>
    <g id="ytick_16">
     <g id="line2d_47">
      <g>
       <use style="stroke:#000000;stroke-width:0.6;" x="50.137685" xlink:href="#me3fbac9be4" y="100.388925"/>
      </g>
     </g>
    </g>
    <g id="ytick_17">
     <g id="line2d_48">
      <g>
       <use style="stroke:#000000;stroke-width:0.6;" x="50.137685" xlink:href="#me3fbac9be4" y="88.852547"/>
      </g>
     </g>
    </g>
    <g id="ytick_18">
     <g id="line2d_49">
      <g>
       <use style="stroke:#000000;stroke-width:0.6;" x="50.137685" xlink:href="#me3fbac9be4" y="79.42664"/>
      </g>
     </g>
    </g>
    <g id="ytick_19">
     <g id="line2d_50">
      <g>
       <use style="stroke:#000000;stroke-width:0.6;" x="50.137685" xlink:href="#me3fbac9be4" y="71.457149"/>
      </g>
     </g>
    </g>
    <g id="ytick_20">
     <g id="line2d_51">
      <g>
       <use style="stroke:#000000;stroke-width:0.6;" x="50.137685" xlink:href="#me3fbac9be4" y="64.553662"/>
      </g>
     </g>
    </g>
    <g id="ytick_21">
     <g id="line2d_52">
      <g>
       <use style="stroke:#000000;stroke-width:0.6;" x="50.137685" xlink:href="#me3fbac9be4" y="58.464355"/>
      </g>
     </g>
    </g>
    <g id="text_9">
     <!-- log -->
     <g transform="translate(19.457997 174.090656)rotate(-90)scale(0.1 -0.1)">
      <defs>
       <path d="M 9.421875 75.984375 
L 18.40625 75.984375 
L 18.40625 0 
L 9.421875 0 
z
" id="DejaVuSans-108"/>
       <path d="M 45.40625 27.984375 
Q 45.40625 37.75 41.375 43.109375 
Q 37.359375 48.484375 30.078125 48.484375 
Q 22.859375 48.484375 18.828125 43.109375 
Q 14.796875 37.75 14.796875 27.984375 
Q 14.796875 18.265625 18.828125 12.890625 
Q 22.859375 7.515625 30.078125 7.515625 
Q 37.359375 7.515625 41.375 12.890625 
Q 45.40625 18.265625 45.40625 27.984375 
z
M 54.390625 6.78125 
Q 54.390625 -7.171875 48.1875 -13.984375 
Q 42 -20.796875 29.203125 -20.796875 
Q 24.46875 -20.796875 20.265625 -20.09375 
Q 16.0625 -19.390625 12.109375 -17.921875 
L 12.109375 -9.1875 
Q 16.0625 -11.328125 19.921875 -12.34375 
Q 23.78125 -13.375 27.78125 -13.375 
Q 36.625 -13.375 41.015625 -8.765625 
Q 45.40625 -4.15625 45.40625 5.171875 
L 45.40625 9.625 
Q 42.625 4.78125 38.28125 2.390625 
Q 33.9375 0 27.875 0 
Q 17.828125 0 11.671875 7.65625 
Q 5.515625 15.328125 5.515625 27.984375 
Q 5.515625 40.671875 11.671875 48.328125 
Q 17.828125 56 27.875 56 
Q 33.9375 56 38.28125 53.609375 
Q 42.625 51.21875 45.40625 46.390625 
L 45.40625 54.6875 
L 54.390625 54.6875 
z
" id="DejaVuSans-103"/>
      </defs>
      <use xlink:href="#DejaVuSans-108"/>
      <use x="27.783203" xlink:href="#DejaVuSans-111"/>
      <use x="88.964844" xlink:href="#DejaVuSans-103"/>
     </g>
    </g>
   </g>
   <g id="line2d_53">
    <path clip-path="url(#p8e5209b342)" d="M 50.137685 43.870939 
L 53.385404 44.51415 
L 56.633123 46.804703 
L 59.880842 45.035556 
L 63.128562 44.919864 
L 66.376281 46.235434 
L 69.624 48.693571 
L 72.871719 50.731746 
L 76.119438 53.03723 
L 79.367157 55.328943 
L 82.614877 60.870582 
L 85.862596 65.697139 
L 89.110315 69.809267 
L 92.358034 73.543447 
L 95.605753 75.466043 
L 98.853473 76.194005 
L 102.101192 82.07847 
L 105.348911 86.692941 
L 108.59663 88.72125 
L 111.844349 91.056962 
L 115.092069 92.629824 
L 118.339788 93.240447 
L 121.587507 94.932069 
L 124.835226 92.316138 
L 128.082945 93.248488 
L 131.330665 97.296395 
L 134.578384 99.692009 
L 137.826103 100.655493 
L 141.073822 101.469202 
L 144.321541 103.013552 
L 147.569261 104.353656 
L 150.81698 105.092547 
L 154.064699 103.942625 
L 157.312418 103.382006 
L 160.560137 102.135247 
L 163.807856 102.062724 
L 167.055576 100.783713 
L 170.303295 99.542846 
L 173.551014 96.282025 
L 176.798733 94.196322 
L 180.046452 91.855412 
L 183.294172 91.321228 
L 186.541891 89.966395 
L 189.78961 88.588816 
L 193.037329 85.656465 
L 196.285048 83.159971 
L 199.532768 80.905007 
L 202.780487 77.68023 
L 206.028206 75.730093 
L 209.275925 74.146754 
L 212.523644 71.153124 
L 215.771364 68.096486 
L 219.019083 62.588153 
L 222.266802 65.55199 
L 225.514521 71.706752 
L 228.76224 74.197906 
L 232.00996 73.777966 
L 235.257679 70.583572 
L 238.505398 65.119906 
L 241.753117 62.460329 
L 245.000836 55.091609 
L 248.248555 54.499198 
L 251.496275 53.036491 
L 254.743994 51.230904 
L 257.991713 49.812177 
L 261.239432 49.169915 
L 264.487151 48.687458 
L 267.734871 47.629259 
L 270.98259 41.574345 
L 274.230309 39.569818 
L 277.478028 40.695751 
L 280.725747 42.815583 
L 283.973467 46.975267 
L 287.221186 51.686679 
L 290.468905 56.823968 
L 293.716624 59.937656 
L 296.964343 62.710057 
L 300.212063 64.219621 
L 303.459782 65.817147 
L 306.707501 66.962146 
L 309.95522 69.640913 
L 313.202939 70.209387 
L 316.450659 71.075564 
L 319.698378 72.133648 
L 322.946097 72.398364 
L 326.193816 73.151659 
L 329.441535 73.605001 
L 332.689254 73.289212 
L 335.936974 72.771475 
L 339.184693 73.219298 
L 342.432412 73.420557 
L 345.680131 73.224757 
L 348.92785 72.960131 
L 352.17557 73.009034 
L 355.423289 71.758727 
L 358.671008 71.653769 
L 361.918727 71.055668 
L 365.166446 70.260909 
L 368.414166 70.386839 
L 371.661885 69.807223 
L 374.909604 68.662131 
L 378.157323 68.792238 
L 381.405042 67.888293 
L 384.652762 67.684858 
L 387.900481 67.370962 
L 391.1482 66.954409 
L 394.395919 65.876782 
L 397.643638 63.723026 
L 400.891358 62.465649 
L 404.139077 60.139002 
L 407.386796 58.096387 
L 410.634515 56.782645 
L 413.882234 55.851355 
L 417.129953 53.938303 
L 420.377673 51.563023 
L 423.625392 49.555281 
L 426.873111 47.601982 
L 430.12083 45.338973 
L 433.368549 44.67794 
L 436.616269 44.352127 
L 439.863988 43.788086 
L 443.111707 43.222798 
L 446.359426 42.434415 
" style="fill:none;stroke:#ff0000;stroke-linecap:square;stroke-width:1.5;"/>
   </g>
   <g id="line2d_54">
    <path clip-path="url(#p8e5209b342)" d="M 50.137685 256.879158 
L 53.385404 254.605883 
L 56.633123 252.184258 
L 59.880842 250.204767 
L 63.128562 250.406063 
L 66.376281 250.473336 
L 69.624 250.305317 
L 72.871719 250.912758 
L 76.119438 252.184258 
L 79.367157 253.88179 
L 82.614877 255.451323 
L 85.862596 256.273151 
L 89.110315 257.724188 
L 92.358034 258.347549 
L 95.605753 260.46782 
L 98.853473 261.001442 
L 102.101192 264.236366 
L 105.348911 265.526138 
L 108.59663 267.266404 
L 111.844349 270.237899 
L 115.092069 272.817081 
L 118.339788 274.1832 
L 121.587507 276.58065 
L 124.835226 276.692311 
L 128.082945 278.570425 
L 131.330665 278.686473 
L 134.578384 277.48077 
L 137.826103 278.339108 
L 141.073822 280.159489 
L 144.321541 280.339104 
L 147.569261 282.669957 
L 150.81698 283.047785 
L 154.064699 285.176693 
L 157.312418 288.089149 
L 160.560137 287.328343 
L 163.807856 287.811195 
L 167.055576 290.077831 
L 170.303295 290.441145 
L 173.551014 292.981798 
L 176.798733 291.845503 
L 180.046452 291.027811 
L 183.294172 293.366182 
L 186.541891 291.845503 
L 189.78961 289.216156 
L 193.037329 288.368606 
L 196.285048 286.241325 
L 199.532768 286.714086 
L 202.780487 287.191209 
L 206.028206 286.17414 
L 209.275925 286.849958 
L 212.523644 288.790644 
L 215.771364 289.002962 
L 219.019083 288.86132 
L 222.266802 288.649582 
L 225.514521 288.158872 
L 228.76224 287.465841 
L 232.00996 286.714086 
L 235.257679 284.717723 
L 238.505398 282.858526 
L 241.753117 280.700219 
L 245.000836 279.624355 
L 248.248555 277.028751 
L 251.496275 275.477099 
L 254.743994 273.758998 
L 257.991713 272.868962 
L 261.239432 270.485146 
L 264.487151 270.188591 
L 267.734871 267.453045 
L 270.98259 265.571192 
L 274.230309 265.12241 
L 277.478028 263.32208 
L 280.725747 262.721417 
L 283.973467 262.97799 
L 287.221186 262.636175 
L 290.468905 262.97799 
L 293.716624 264.148592 
L 296.964343 264.588964 
L 300.212063 265.797052 
L 303.459782 266.069393 
L 306.707501 267.126865 
L 309.95522 267.922615 
L 313.202939 269.308996 
L 316.450659 270.833291 
L 319.698378 271.284379 
L 322.946097 271.942979 
L 326.193816 273.12915 
L 329.441535 273.495628 
L 332.689254 273.12915 
L 335.936974 273.970664 
L 339.184693 273.12915 
L 342.432412 274.129984 
L 345.680131 275.5864 
L 348.92785 275.641138 
L 352.17557 276.081135 
L 355.423289 277.310799 
L 358.671008 277.70827 
L 361.918727 279.153287 
L 365.166446 279.094705 
L 368.414166 278.339108 
L 371.661885 278.339108 
L 374.909604 278.454637 
L 378.157323 278.39684 
L 381.405042 278.166296 
L 384.652762 277.085037 
L 387.900481 277.765302 
L 391.1482 277.028751 
L 394.395919 277.424051 
L 397.643638 276.524909 
L 400.891358 276.692311 
L 404.139077 274.450105 
L 407.386796 273.024918 
L 410.634515 270.287254 
L 413.882234 270.287254 
L 417.129953 268.778742 
L 420.377673 269.019093 
L 423.625392 268.682914 
L 426.873111 268.348906 
L 430.12083 267.734275 
L 433.368549 267.406321 
L 436.616269 266.388949 
L 439.863988 265.033119 
L 443.111707 263.494988 
L 446.359426 265.391211 
" style="fill:none;stroke:#000000;stroke-linecap:square;stroke-width:1.5;"/>
   </g>
   <g id="line2d_55">
    <path clip-path="url(#p8e5209b342)" d="M 50.137685 71.579685 
L 53.385404 69.678618 
L 56.633123 68.085611 
L 59.880842 66.53447 
L 63.128562 65.703746 
L 66.376281 65.333153 
L 69.624 65.239515 
L 72.871719 65.289122 
L 76.119438 65.610377 
L 79.367157 66.177899 
L 82.614877 67.044426 
L 85.862596 68.059917 
L 89.110315 69.098779 
L 92.358034 70.057182 
L 95.605753 71.176205 
L 98.853473 72.386546 
L 102.101192 73.926051 
L 105.348911 74.813448 
L 108.59663 75.803489 
L 111.844349 76.954654 
L 115.092069 78.265464 
L 118.339788 79.46235 
L 121.587507 80.518859 
L 124.835226 81.249412 
L 128.082945 82.750112 
L 131.330665 84.191641 
L 134.578384 85.652299 
L 137.826103 86.915841 
L 141.073822 88.065355 
L 144.321541 89.333364 
L 147.569261 90.628671 
L 150.81698 91.789704 
L 154.064699 92.798542 
L 157.312418 93.55172 
L 160.560137 94.140661 
L 163.807856 94.764534 
L 167.055576 95.317296 
L 170.303295 95.747594 
L 173.551014 95.909884 
L 176.798733 95.847274 
L 180.046452 95.742531 
L 183.294172 95.414472 
L 186.541891 94.985263 
L 189.78961 94.533202 
L 193.037329 93.972405 
L 196.285048 93.563045 
L 199.532768 93.213119 
L 202.780487 92.80492 
L 206.028206 92.51078 
L 209.275925 92.238802 
L 212.523644 91.932176 
L 215.771364 91.632034 
L 219.019083 91.245364 
L 222.266802 91.960404 
L 225.514521 92.596464 
L 228.76224 92.346157 
L 232.00996 91.755319 
L 235.257679 90.599633 
L 238.505398 89.059759 
L 241.753117 87.360241 
L 245.000836 84.788982 
L 248.248555 83.084609 
L 251.496275 81.379637 
L 254.743994 79.727864 
L 257.991713 77.904445 
L 261.239432 76.225235 
L 264.487151 74.796563 
L 267.734871 73.275003 
L 270.98259 71.491979 
L 274.230309 70.674945 
L 277.478028 70.080806 
L 280.725747 69.901328 
L 283.973467 69.84914 
L 287.221186 69.962793 
L 290.468905 70.295974 
L 293.716624 70.505825 
L 296.964343 70.767521 
L 300.212063 71.179353 
L 303.459782 71.650592 
L 306.707501 72.488698 
L 309.95522 73.343898 
L 313.202939 74.263587 
L 316.450659 75.130786 
L 319.698378 75.871243 
L 322.946097 76.53858 
L 326.193816 77.292541 
L 329.441535 77.758833 
L 332.689254 78.208926 
L 335.936974 78.645995 
L 339.184693 79.130832 
L 342.432412 79.541244 
L 345.680131 79.946236 
L 348.92785 80.221754 
L 352.17557 80.594347 
L 355.423289 80.805039 
L 358.671008 80.851835 
L 361.918727 80.848039 
L 365.166446 80.709049 
L 368.414166 80.449758 
L 371.661885 80.328114 
L 374.909604 80.155545 
L 378.157323 80.049539 
L 381.405042 80.003463 
L 384.652762 80.017157 
L 387.900481 80.000973 
L 391.1482 79.896525 
L 394.395919 79.705583 
L 397.643638 79.384805 
L 400.891358 78.861052 
L 404.139077 78.200511 
L 407.386796 77.44632 
L 410.634515 76.810519 
L 413.882234 76.178975 
L 417.129953 75.299847 
L 420.377673 74.445479 
L 423.625392 73.617101 
L 426.873111 72.657962 
L 430.12083 71.627298 
L 433.368549 70.520329 
L 436.616269 69.38079 
L 439.863988 68.182573 
L 443.111707 66.840419 
L 446.359426 65.842696 
" style="fill:none;stroke:#663300;stroke-linecap:square;stroke-width:1.5;"/>
   </g>
   <g id="line2d_56">
    <path clip-path="url(#p8e5209b342)" d="M 50.137685 177.596868 
L 53.385404 177.968125 
L 56.633123 178.500769 
L 59.880842 179.038959 
L 63.128562 179.574268 
L 66.376281 179.925645 
L 69.624 180.288085 
L 72.871719 180.548536 
L 76.119438 180.687982 
L 79.367157 180.766585 
L 82.614877 180.95046 
L 85.862596 180.452885 
L 89.110315 180.020324 
L 92.358034 179.676863 
L 95.605753 179.233747 
L 98.853473 178.727135 
L 102.101192 177.910198 
L 105.348911 176.894686 
L 108.59663 176.362198 
L 111.844349 176.002256 
L 115.092069 175.605239 
L 118.339788 175.376358 
L 121.587507 175.281945 
L 124.835226 175.321263 
L 128.082945 175.376358 
L 131.330665 175.628974 
L 134.578384 175.463056 
L 137.826103 175.360611 
L 141.073822 175.038837 
L 144.321541 174.532778 
L 147.569261 174.031625 
L 150.81698 173.489706 
L 154.064699 172.960924 
L 157.312418 172.452377 
L 160.560137 172.022535 
L 163.807856 171.735499 
L 167.055576 171.713485 
L 170.303295 171.831001 
L 173.551014 171.911948 
L 176.798733 172.022535 
L 180.046452 172.237009 
L 183.294172 172.192562 
L 186.541891 172.296331 
L 189.78961 172.288912 
L 193.037329 172.244421 
L 196.285048 172.318595 
L 199.532768 172.074223 
L 202.780487 172.000398 
L 206.028206 172.133359 
L 209.275925 172.177755 
L 212.523644 172.385443 
L 215.771364 172.444935 
L 219.019083 172.452377 
L 222.266802 172.631293 
L 225.514521 172.608895 
L 228.76224 172.593968 
L 232.00996 172.601431 
L 235.257679 172.668646 
L 238.505398 173.088846 
L 241.753117 173.634171 
L 245.000836 174.293161 
L 248.248555 175.12497 
L 251.496275 176.050104 
L 254.743994 177.236421 
L 257.991713 178.175536 
L 261.239432 179.123559 
L 264.487151 180.262112 
L 267.734871 181.488311 
L 270.98259 182.517767 
L 274.230309 183.439121 
L 277.478028 184.190079 
L 280.725747 184.980547 
L 283.973467 185.504741 
L 287.221186 185.85075 
L 290.468905 185.985937 
L 293.716624 186.344928 
L 296.964343 186.667226 
L 300.212063 186.726042 
L 303.459782 186.686824 
L 306.707501 186.686824 
L 309.95522 186.27682 
L 313.202939 185.908644 
L 316.450659 185.418599 
L 319.698378 185.180067 
L 322.946097 184.85742 
L 326.193816 184.527372 
L 329.441535 184.068818 
L 332.689254 184.003641 
L 335.936974 183.901385 
L 339.184693 183.70673 
L 342.432412 183.264538 
L 345.680131 182.73522 
L 348.92785 182.445485 
L 352.17557 182.301225 
L 355.423289 182.067656 
L 358.671008 181.942324 
L 361.918727 181.844062 
L 365.166446 181.844062 
L 368.414166 182.103521 
L 371.661885 182.499687 
L 374.909604 182.562994 
L 378.157323 182.726141 
L 381.405042 182.990076 
L 384.652762 183.337975 
L 387.900481 183.743751 
L 391.1482 184.236794 
L 394.395919 184.546176 
L 397.643638 185.199109 
L 400.891358 185.889339 
L 404.139077 186.598692 
L 407.386796 187.50676 
L 410.634515 188.289339 
L 413.882234 188.981388 
L 417.129953 189.527277 
L 420.377673 189.870105 
L 423.625392 190.183753 
L 426.873111 190.457128 
L 430.12083 190.362334 
L 433.368549 190.404443 
L 436.616269 190.731956 
L 439.863988 191.093566 
L 443.111707 191.662345 
L 446.359426 192.095795 
" style="fill:none;stroke:#0000ff;stroke-linecap:square;stroke-width:1.5;"/>
   </g>
   <g id="patch_3">
    <path d="M 50.137685 306.056 
L 50.137685 26.88 
" style="fill:none;stroke:#000000;stroke-linecap:square;stroke-linejoin:miter;stroke-width:0.8;"/>
   </g>
   <g id="patch_4">
    <path d="M 446.359426 306.056 
L 446.359426 26.88 
" style="fill:none;stroke:#000000;stroke-linecap:square;stroke-linejoin:miter;stroke-width:0.8;"/>
   </g>
   <g id="patch_5">
    <path d="M 50.137685 306.056 
L 446.359426 306.056 
" style="fill:none;stroke:#000000;stroke-linecap:square;stroke-linejoin:miter;stroke-width:0.8;"/>
   </g>
   <g id="patch_6">
    <path d="M 50.137685 26.88 
L 446.359426 26.88 
" style="fill:none;stroke:#000000;stroke-linecap:square;stroke-linejoin:miter;stroke-width:0.8;"/>
   </g>
   <g id="text_10">
    <!-- Covid in Czech - zoomed -->
    <g transform="translate(174.129805 20.88)scale(0.12 -0.12)">
     <defs>
      <path d="M 64.40625 67.28125 
L 64.40625 56.890625 
Q 59.421875 61.53125 53.78125 63.8125 
Q 48.140625 66.109375 41.796875 66.109375 
Q 29.296875 66.109375 22.65625 58.46875 
Q 16.015625 50.828125 16.015625 36.375 
Q 16.015625 21.96875 22.65625 14.328125 
Q 29.296875 6.6875 41.796875 6.6875 
Q 48.140625 6.6875 53.78125 8.984375 
Q 59.421875 11.28125 64.40625 15.921875 
L 64.40625 5.609375 
Q 59.234375 2.09375 53.4375 0.328125 
Q 47.65625 -1.421875 41.21875 -1.421875 
Q 24.65625 -1.421875 15.125 8.703125 
Q 5.609375 18.84375 5.609375 36.375 
Q 5.609375 53.953125 15.125 64.078125 
Q 24.65625 74.21875 41.21875 74.21875 
Q 47.75 74.21875 53.53125 72.484375 
Q 59.328125 70.75 64.40625 67.28125 
z
" id="DejaVuSans-67"/>
      <path d="M 9.421875 54.6875 
L 18.40625 54.6875 
L 18.40625 0 
L 9.421875 0 
z
M 9.421875 75.984375 
L 18.40625 75.984375 
L 18.40625 64.59375 
L 9.421875 64.59375 
z
" id="DejaVuSans-105"/>
      <path d="M 45.40625 46.390625 
L 45.40625 75.984375 
L 54.390625 75.984375 
L 54.390625 0 
L 45.40625 0 
L 45.40625 8.203125 
Q 42.578125 3.328125 38.25 0.953125 
Q 33.9375 -1.421875 27.875 -1.421875 
Q 17.96875 -1.421875 11.734375 6.484375 
Q 5.515625 14.40625 5.515625 27.296875 
Q 5.515625 40.1875 11.734375 48.09375 
Q 17.96875 56 27.875 56 
Q 33.9375 56 38.25 53.625 
Q 42.578125 51.265625 45.40625 46.390625 
z
M 14.796875 27.296875 
Q 14.796875 17.390625 18.875 11.75 
Q 22.953125 6.109375 30.078125 6.109375 
Q 37.203125 6.109375 41.296875 11.75 
Q 45.40625 17.390625 45.40625 27.296875 
Q 45.40625 37.203125 41.296875 42.84375 
Q 37.203125 48.484375 30.078125 48.484375 
Q 22.953125 48.484375 18.875 42.84375 
Q 14.796875 37.203125 14.796875 27.296875 
z
" id="DejaVuSans-100"/>
      <path id="DejaVuSans-32"/>
      <path d="M 5.515625 54.6875 
L 48.1875 54.6875 
L 48.1875 46.484375 
L 14.40625 7.171875 
L 48.1875 7.171875 
L 48.1875 0 
L 4.296875 0 
L 4.296875 8.203125 
L 38.09375 47.515625 
L 5.515625 47.515625 
z
" id="DejaVuSans-122"/>
      <path d="M 54.890625 33.015625 
L 54.890625 0 
L 45.90625 0 
L 45.90625 32.71875 
Q 45.90625 40.484375 42.875 44.328125 
Q 39.84375 48.1875 33.796875 48.1875 
Q 26.515625 48.1875 22.3125 43.546875 
Q 18.109375 38.921875 18.109375 30.90625 
L 18.109375 0 
L 9.078125 0 
L 9.078125 75.984375 
L 18.109375 75.984375 
L 18.109375 46.1875 
Q 21.34375 51.125 25.703125 53.5625 
Q 30.078125 56 35.796875 56 
Q 45.21875 56 50.046875 50.171875 
Q 54.890625 44.34375 54.890625 33.015625 
z
" id="DejaVuSans-104"/>
      <path d="M 4.890625 31.390625 
L 31.203125 31.390625 
L 31.203125 23.390625 
L 4.890625 23.390625 
z
" id="DejaVuSans-45"/>
      <path d="M 52 44.1875 
Q 55.375 50.25 60.0625 53.125 
Q 64.75 56 71.09375 56 
Q 79.640625 56 84.28125 50.015625 
Q 88.921875 44.046875 88.921875 33.015625 
L 88.921875 0 
L 79.890625 0 
L 79.890625 32.71875 
Q 79.890625 40.578125 77.09375 44.375 
Q 74.3125 48.1875 68.609375 48.1875 
Q 61.625 48.1875 57.5625 43.546875 
Q 53.515625 38.921875 53.515625 30.90625 
L 53.515625 0 
L 44.484375 0 
L 44.484375 32.71875 
Q 44.484375 40.625 41.703125 44.40625 
Q 38.921875 48.1875 33.109375 48.1875 
Q 26.21875 48.1875 22.15625 43.53125 
Q 18.109375 38.875 18.109375 30.90625 
L 18.109375 0 
L 9.078125 0 
L 9.078125 54.6875 
L 18.109375 54.6875 
L 18.109375 46.1875 
Q 21.1875 51.21875 25.484375 53.609375 
Q 29.78125 56 35.6875 56 
Q 41.65625 56 45.828125 52.96875 
Q 50 49.953125 52 44.1875 
z
" id="DejaVuSans-109"/>
     </defs>
     <use xlink:href="#DejaVuSans-67"/>
     <use x="69.824219" xlink:href="#DejaVuSans-111"/>
     <use x="131.005859" xlink:href="#DejaVuSans-118"/>
     <use x="190.185547" xlink:href="#DejaVuSans-105"/>
     <use x="217.96875" xlink:href="#DejaVuSans-100"/>
     <use x="281.445312" xlink:href="#DejaVuSans-32"/>
     <use x="313.232422" xlink:href="#DejaVuSans-105"/>
     <use x="341.015625" xlink:href="#DejaVuSans-110"/>
     <use x="404.394531" xlink:href="#DejaVuSans-32"/>
     <use x="436.181641" xlink:href="#DejaVuSans-67"/>
     <use x="506.005859" xlink:href="#DejaVuSans-122"/>
     <use x="558.496094" xlink:href="#DejaVuSans-101"/>
     <use x="620.019531" xlink:href="#DejaVuSans-99"/>
     <use x="675" xlink:href="#DejaVuSans-104"/>
     <use x="738.378906" xlink:href="#DejaVuSans-32"/>
     <use x="770.166016" xlink:href="#DejaVuSans-45"/>
     <use x="806.25" xlink:href="#DejaVuSans-32"/>
     <use x="838.037109" xlink:href="#DejaVuSans-122"/>
     <use x="890.527344" xlink:href="#DejaVuSans-111"/>
     <use x="951.708984" xlink:href="#DejaVuSans-111"/>
     <use x="1012.890625" xlink:href="#DejaVuSans-109"/>
     <use x="1110.302734" xlink:href="#DejaVuSans-101"/>
     <use x="1171.826172" xlink:href="#DejaVuSans-100"/>
    </g>
   </g>
   <g id="legend_1">
    <g id="patch_7">
     <path d="M 57.137685 301.056 
L 192.445497 301.056 
Q 194.445497 301.056 194.445497 299.056 
L 194.445497 240.78725 
Q 194.445497 238.78725 192.445497 238.78725 
L 57.137685 238.78725 
Q 55.137685 238.78725 55.137685 240.78725 
L 55.137685 299.056 
Q 55.137685 301.056 57.137685 301.056 
z
" style="fill:#ffffff;opacity:0.8;stroke:#cccccc;stroke-linejoin:miter;"/>
    </g>
    <g id="line2d_57">
     <path d="M 59.137685 246.885687 
L 79.137685 246.885687 
" style="fill:none;stroke:#ff0000;stroke-linecap:square;stroke-width:1.5;"/>
    </g>
    <g id="line2d_58"/>
    <g id="text_11">
     <!-- confirmed -->
     <g transform="translate(87.137685 250.385687)scale(0.1 -0.1)">
      <defs>
       <path d="M 37.109375 75.984375 
L 37.109375 68.5 
L 28.515625 68.5 
Q 23.6875 68.5 21.796875 66.546875 
Q 19.921875 64.59375 19.921875 59.515625 
L 19.921875 54.6875 
L 34.71875 54.6875 
L 34.71875 47.703125 
L 19.921875 47.703125 
L 19.921875 0 
L 10.890625 0 
L 10.890625 47.703125 
L 2.296875 47.703125 
L 2.296875 54.6875 
L 10.890625 54.6875 
L 10.890625 58.5 
Q 10.890625 67.625 15.140625 71.796875 
Q 19.390625 75.984375 28.609375 75.984375 
z
" id="DejaVuSans-102"/>
      </defs>
      <use xlink:href="#DejaVuSans-99"/>
      <use x="54.980469" xlink:href="#DejaVuSans-111"/>
      <use x="116.162109" xlink:href="#DejaVuSans-110"/>
      <use x="179.541016" xlink:href="#DejaVuSans-102"/>
      <use x="214.746094" xlink:href="#DejaVuSans-105"/>
      <use x="242.529297" xlink:href="#DejaVuSans-114"/>
      <use x="281.892578" xlink:href="#DejaVuSans-109"/>
      <use x="379.304688" xlink:href="#DejaVuSans-101"/>
      <use x="440.828125" xlink:href="#DejaVuSans-100"/>
     </g>
    </g>
    <g id="line2d_59">
     <path d="M 59.137685 261.563812 
L 79.137685 261.563812 
" style="fill:none;stroke:#000000;stroke-linecap:square;stroke-width:1.5;"/>
    </g>
    <g id="line2d_60"/>
    <g id="text_12">
     <!-- death -->
     <g transform="translate(87.137685 265.063812)scale(0.1 -0.1)">
      <defs>
       <path d="M 18.3125 70.21875 
L 18.3125 54.6875 
L 36.8125 54.6875 
L 36.8125 47.703125 
L 18.3125 47.703125 
L 18.3125 18.015625 
Q 18.3125 11.328125 20.140625 9.421875 
Q 21.96875 7.515625 27.59375 7.515625 
L 36.8125 7.515625 
L 36.8125 0 
L 27.59375 0 
Q 17.1875 0 13.234375 3.875 
Q 9.28125 7.765625 9.28125 18.015625 
L 9.28125 47.703125 
L 2.6875 47.703125 
L 2.6875 54.6875 
L 9.28125 54.6875 
L 9.28125 70.21875 
z
" id="DejaVuSans-116"/>
      </defs>
      <use xlink:href="#DejaVuSans-100"/>
      <use x="63.476562" xlink:href="#DejaVuSans-101"/>
      <use x="125" xlink:href="#DejaVuSans-97"/>
      <use x="186.279297" xlink:href="#DejaVuSans-116"/>
      <use x="225.488281" xlink:href="#DejaVuSans-104"/>
     </g>
    </g>
    <g id="line2d_61">
     <path d="M 59.137685 276.241938 
L 79.137685 276.241938 
" style="fill:none;stroke:#663300;stroke-linecap:square;stroke-width:1.5;"/>
    </g>
    <g id="line2d_62"/>
    <g id="text_13">
     <!-- in_hosp -->
     <g transform="translate(87.137685 279.741938)scale(0.1 -0.1)">
      <defs>
       <path d="M 50.984375 -16.609375 
L 50.984375 -23.578125 
L -0.984375 -23.578125 
L -0.984375 -16.609375 
z
" id="DejaVuSans-95"/>
       <path d="M 44.28125 53.078125 
L 44.28125 44.578125 
Q 40.484375 46.53125 36.375 47.5 
Q 32.28125 48.484375 27.875 48.484375 
Q 21.1875 48.484375 17.84375 46.4375 
Q 14.5 44.390625 14.5 40.28125 
Q 14.5 37.15625 16.890625 35.375 
Q 19.28125 33.59375 26.515625 31.984375 
L 29.59375 31.296875 
Q 39.15625 29.25 43.1875 25.515625 
Q 47.21875 21.78125 47.21875 15.09375 
Q 47.21875 7.46875 41.1875 3.015625 
Q 35.15625 -1.421875 24.609375 -1.421875 
Q 20.21875 -1.421875 15.453125 -0.5625 
Q 10.6875 0.296875 5.421875 2 
L 5.421875 11.28125 
Q 10.40625 8.6875 15.234375 7.390625 
Q 20.0625 6.109375 24.8125 6.109375 
Q 31.15625 6.109375 34.5625 8.28125 
Q 37.984375 10.453125 37.984375 14.40625 
Q 37.984375 18.0625 35.515625 20.015625 
Q 33.0625 21.96875 24.703125 23.78125 
L 21.578125 24.515625 
Q 13.234375 26.265625 9.515625 29.90625 
Q 5.8125 33.546875 5.8125 39.890625 
Q 5.8125 47.609375 11.28125 51.796875 
Q 16.75 56 26.8125 56 
Q 31.78125 56 36.171875 55.265625 
Q 40.578125 54.546875 44.28125 53.078125 
z
" id="DejaVuSans-115"/>
       <path d="M 18.109375 8.203125 
L 18.109375 -20.796875 
L 9.078125 -20.796875 
L 9.078125 54.6875 
L 18.109375 54.6875 
L 18.109375 46.390625 
Q 20.953125 51.265625 25.265625 53.625 
Q 29.59375 56 35.59375 56 
Q 45.5625 56 51.78125 48.09375 
Q 58.015625 40.1875 58.015625 27.296875 
Q 58.015625 14.40625 51.78125 6.484375 
Q 45.5625 -1.421875 35.59375 -1.421875 
Q 29.59375 -1.421875 25.265625 0.953125 
Q 20.953125 3.328125 18.109375 8.203125 
z
M 48.6875 27.296875 
Q 48.6875 37.203125 44.609375 42.84375 
Q 40.53125 48.484375 33.40625 48.484375 
Q 26.265625 48.484375 22.1875 42.84375 
Q 18.109375 37.203125 18.109375 27.296875 
Q 18.109375 17.390625 22.1875 11.75 
Q 26.265625 6.109375 33.40625 6.109375 
Q 40.53125 6.109375 44.609375 11.75 
Q 48.6875 17.390625 48.6875 27.296875 
z
" id="DejaVuSans-112"/>
      </defs>
      <use xlink:href="#DejaVuSans-105"/>
      <use x="27.783203" xlink:href="#DejaVuSans-110"/>
      <use x="91.162109" xlink:href="#DejaVuSans-95"/>
      <use x="141.162109" xlink:href="#DejaVuSans-104"/>
      <use x="204.541016" xlink:href="#DejaVuSans-111"/>
      <use x="265.722656" xlink:href="#DejaVuSans-115"/>
      <use x="317.822266" xlink:href="#DejaVuSans-112"/>
     </g>
    </g>
    <g id="line2d_63">
     <path d="M 59.137685 291.198188 
L 79.137685 291.198188 
" style="fill:none;stroke:#0000ff;stroke-linecap:square;stroke-width:1.5;"/>
    </g>
    <g id="line2d_64"/>
    <g id="text_14">
     <!-- ventilation_available -->
     <g transform="translate(87.137685 294.698188)scale(0.1 -0.1)">
      <use xlink:href="#DejaVuSans-118"/>
      <use x="59.179688" xlink:href="#DejaVuSans-101"/>
      <use x="120.703125" xlink:href="#DejaVuSans-110"/>
      <use x="184.082031" xlink:href="#DejaVuSans-116"/>
      <use x="223.291016" xlink:href="#DejaVuSans-105"/>
      <use x="251.074219" xlink:href="#DejaVuSans-108"/>
      <use x="278.857422" xlink:href="#DejaVuSans-97"/>
      <use x="340.136719" xlink:href="#DejaVuSans-116"/>
      <use x="379.345703" xlink:href="#DejaVuSans-105"/>
      <use x="407.128906" xlink:href="#DejaVuSans-111"/>
      <use x="468.310547" xlink:href="#DejaVuSans-110"/>
      <use x="531.689453" xlink:href="#DejaVuSans-95"/>
      <use x="581.689453" xlink:href="#DejaVuSans-97"/>
      <use x="642.96875" xlink:href="#DejaVuSans-118"/>
      <use x="702.148438" xlink:href="#DejaVuSans-97"/>
      <use x="763.427734" xlink:href="#DejaVuSans-105"/>
      <use x="791.210938" xlink:href="#DejaVuSans-108"/>
      <use x="818.994141" xlink:href="#DejaVuSans-97"/>
      <use x="880.273438" xlink:href="#DejaVuSans-98"/>
      <use x="943.75" xlink:href="#DejaVuSans-108"/>
      <use x="971.533203" xlink:href="#DejaVuSans-101"/>
     </g>
    </g>
   </g>
  </g>
 </g>
 <defs>
  <clipPath id="p8e5209b342">
   <rect height="279.176" width="396.221741" x="50.137685" y="26.88"/>
  </clipPath>
 </defs>
</svg>
