<?xml version="1.0" encoding="utf-8" standalone="no"?>
<!DOCTYPE svg PUBLIC "-//W3C//DTD SVG 1.1//EN"
  "http://www.w3.org/Graphics/SVG/1.1/DTD/svg11.dtd">
<!-- Created with matplotlib (https://matplotlib.org/) -->
<svg height="345.6pt" version="1.1" viewBox="0 0 460.8 345.6" width="460.8pt" xmlns="http://www.w3.org/2000/svg" xmlns:xlink="http://www.w3.org/1999/xlink">
 <metadata>
  <rdf:RDF xmlns:cc="http://creativecommons.org/ns#" xmlns:dc="http://purl.org/dc/elements/1.1/" xmlns:rdf="http://www.w3.org/1999/02/22-rdf-syntax-ns#">
   <cc:Work>
    <dc:type rdf:resource="http://purl.org/dc/dcmitype/StillImage"/>
    <dc:date>2021-03-30T08:34:01.487202</dc:date>
    <dc:format>image/svg+xml</dc:format>
    <dc:creator>
     <cc:Agent>
      <dc:title>Matplotlib v3.3.4, https://matplotlib.org/</dc:title>
     </cc:Agent>
    </dc:creator>
   </cc:Work>
  </rdf:RDF>
 </metadata>
 <defs>
  <style type="text/css">*{stroke-linecap:butt;stroke-linejoin:round;}</style>
 </defs>
 <g id="figure_1">
  <g id="patch_1">
   <path d="M 0 345.6 
L 460.8 345.6 
L 460.8 0 
L 0 0 
z
" style="fill:#ffffff;"/>
  </g>
  <g id="axes_1">
   <g id="patch_2">
    <path d="M 50.137685 306.056 
L 450 306.056 
L 450 26.88 
L 50.137685 26.88 
z
" style="fill:#ffffff;"/>
   </g>
   <g id="matplotlib.axis_1">
    <g id="xtick_1">
     <g id="line2d_1">
      <path clip-path="url(#pa886c9b9c9)" d="M 50.137685 306.056 
L 50.137685 26.88 
" style="fill:none;stroke:#b0b0b0;stroke-linecap:square;stroke-width:0.8;"/>
     </g>
     <g id="line2d_2">
      <defs>
       <path d="M 0 0 
L 0 3.5 
" id="m8ef5d7b0b4" style="stroke:#000000;stroke-width:0.8;"/>
      </defs>
      <g>
       <use style="stroke:#000000;stroke-width:0.8;" x="50.137685" xlink:href="#m8ef5d7b0b4" y="306.056"/>
      </g>
     </g>
     <g id="text_1">
      <!-- Nov -->
      <g transform="translate(40.37831 320.654437)scale(0.1 -0.1)">
       <defs>
        <path d="M 9.8125 72.90625 
L 23.09375 72.90625 
L 55.421875 11.921875 
L 55.421875 72.90625 
L 64.984375 72.90625 
L 64.984375 0 
L 51.703125 0 
L 19.390625 60.984375 
L 19.390625 0 
L 9.8125 0 
z
" id="DejaVuSans-78"/>
        <path d="M 30.609375 48.390625 
Q 23.390625 48.390625 19.1875 42.75 
Q 14.984375 37.109375 14.984375 27.296875 
Q 14.984375 17.484375 19.15625 11.84375 
Q 23.34375 6.203125 30.609375 6.203125 
Q 37.796875 6.203125 41.984375 11.859375 
Q 46.1875 17.53125 46.1875 27.296875 
Q 46.1875 37.015625 41.984375 42.703125 
Q 37.796875 48.390625 30.609375 48.390625 
z
M 30.609375 56 
Q 42.328125 56 49.015625 48.375 
Q 55.71875 40.765625 55.71875 27.296875 
Q 55.71875 13.875 49.015625 6.21875 
Q 42.328125 -1.421875 30.609375 -1.421875 
Q 18.84375 -1.421875 12.171875 6.21875 
Q 5.515625 13.875 5.515625 27.296875 
Q 5.515625 40.765625 12.171875 48.375 
Q 18.84375 56 30.609375 56 
z
" id="DejaVuSans-111"/>
        <path d="M 2.984375 54.6875 
L 12.5 54.6875 
L 29.59375 8.796875 
L 46.6875 54.6875 
L 56.203125 54.6875 
L 35.6875 0 
L 23.484375 0 
z
" id="DejaVuSans-118"/>
       </defs>
       <use xlink:href="#DejaVuSans-78"/>
       <use x="74.804688" xlink:href="#DejaVuSans-111"/>
       <use x="135.986328" xlink:href="#DejaVuSans-118"/>
      </g>
     </g>
    </g>
    <g id="xtick_2">
     <g id="line2d_3">
      <path clip-path="url(#pa886c9b9c9)" d="M 131.190857 306.056 
L 131.190857 26.88 
" style="fill:none;stroke:#b0b0b0;stroke-linecap:square;stroke-width:0.8;"/>
     </g>
     <g id="line2d_4">
      <g>
       <use style="stroke:#000000;stroke-width:0.8;" x="131.190857" xlink:href="#m8ef5d7b0b4" y="306.056"/>
      </g>
     </g>
     <g id="text_2">
      <!-- Dec -->
      <g transform="translate(121.515076 320.654437)scale(0.1 -0.1)">
       <defs>
        <path d="M 19.671875 64.796875 
L 19.671875 8.109375 
L 31.59375 8.109375 
Q 46.6875 8.109375 53.6875 14.9375 
Q 60.6875 21.78125 60.6875 36.53125 
Q 60.6875 51.171875 53.6875 57.984375 
Q 46.6875 64.796875 31.59375 64.796875 
z
M 9.8125 72.90625 
L 30.078125 72.90625 
Q 51.265625 72.90625 61.171875 64.09375 
Q 71.09375 55.28125 71.09375 36.53125 
Q 71.09375 17.671875 61.125 8.828125 
Q 51.171875 0 30.078125 0 
L 9.8125 0 
z
" id="DejaVuSans-68"/>
        <path d="M 56.203125 29.59375 
L 56.203125 25.203125 
L 14.890625 25.203125 
Q 15.484375 15.921875 20.484375 11.0625 
Q 25.484375 6.203125 34.421875 6.203125 
Q 39.59375 6.203125 44.453125 7.46875 
Q 49.3125 8.734375 54.109375 11.28125 
L 54.109375 2.78125 
Q 49.265625 0.734375 44.1875 -0.34375 
Q 39.109375 -1.421875 33.890625 -1.421875 
Q 20.796875 -1.421875 13.15625 6.1875 
Q 5.515625 13.8125 5.515625 26.8125 
Q 5.515625 40.234375 12.765625 48.109375 
Q 20.015625 56 32.328125 56 
Q 43.359375 56 49.78125 48.890625 
Q 56.203125 41.796875 56.203125 29.59375 
z
M 47.21875 32.234375 
Q 47.125 39.59375 43.09375 43.984375 
Q 39.0625 48.390625 32.421875 48.390625 
Q 24.90625 48.390625 20.390625 44.140625 
Q 15.875 39.890625 15.1875 32.171875 
z
" id="DejaVuSans-101"/>
        <path d="M 48.78125 52.59375 
L 48.78125 44.1875 
Q 44.96875 46.296875 41.140625 47.34375 
Q 37.3125 48.390625 33.40625 48.390625 
Q 24.65625 48.390625 19.8125 42.84375 
Q 14.984375 37.3125 14.984375 27.296875 
Q 14.984375 17.28125 19.8125 11.734375 
Q 24.65625 6.203125 33.40625 6.203125 
Q 37.3125 6.203125 41.140625 7.25 
Q 44.96875 8.296875 48.78125 10.40625 
L 48.78125 2.09375 
Q 45.015625 0.34375 40.984375 -0.53125 
Q 36.96875 -1.421875 32.421875 -1.421875 
Q 20.0625 -1.421875 12.78125 6.34375 
Q 5.515625 14.109375 5.515625 27.296875 
Q 5.515625 40.671875 12.859375 48.328125 
Q 20.21875 56 33.015625 56 
Q 37.15625 56 41.109375 55.140625 
Q 45.0625 54.296875 48.78125 52.59375 
z
" id="DejaVuSans-99"/>
       </defs>
       <use xlink:href="#DejaVuSans-68"/>
       <use x="77.001953" xlink:href="#DejaVuSans-101"/>
       <use x="138.525391" xlink:href="#DejaVuSans-99"/>
      </g>
     </g>
    </g>
    <g id="xtick_3">
     <g id="line2d_5">
      <path clip-path="url(#pa886c9b9c9)" d="M 214.945801 306.056 
L 214.945801 26.88 
" style="fill:none;stroke:#b0b0b0;stroke-linecap:square;stroke-width:0.8;"/>
     </g>
     <g id="line2d_6">
      <g>
       <use style="stroke:#000000;stroke-width:0.8;" x="214.945801" xlink:href="#m8ef5d7b0b4" y="306.056"/>
      </g>
     </g>
     <g id="text_3">
      <!-- Jan -->
      <g transform="translate(207.237989 320.654437)scale(0.1 -0.1)">
       <defs>
        <path d="M 9.8125 72.90625 
L 19.671875 72.90625 
L 19.671875 5.078125 
Q 19.671875 -8.109375 14.671875 -14.0625 
Q 9.671875 -20.015625 -1.421875 -20.015625 
L -5.171875 -20.015625 
L -5.171875 -11.71875 
L -2.09375 -11.71875 
Q 4.4375 -11.71875 7.125 -8.046875 
Q 9.8125 -4.390625 9.8125 5.078125 
z
" id="DejaVuSans-74"/>
        <path d="M 34.28125 27.484375 
Q 23.390625 27.484375 19.1875 25 
Q 14.984375 22.515625 14.984375 16.5 
Q 14.984375 11.71875 18.140625 8.90625 
Q 21.296875 6.109375 26.703125 6.109375 
Q 34.1875 6.109375 38.703125 11.40625 
Q 43.21875 16.703125 43.21875 25.484375 
L 43.21875 27.484375 
z
M 52.203125 31.203125 
L 52.203125 0 
L 43.21875 0 
L 43.21875 8.296875 
Q 40.140625 3.328125 35.546875 0.953125 
Q 30.953125 -1.421875 24.3125 -1.421875 
Q 15.921875 -1.421875 10.953125 3.296875 
Q 6 8.015625 6 15.921875 
Q 6 25.140625 12.171875 29.828125 
Q 18.359375 34.515625 30.609375 34.515625 
L 43.21875 34.515625 
L 43.21875 35.40625 
Q 43.21875 41.609375 39.140625 45 
Q 35.0625 48.390625 27.6875 48.390625 
Q 23 48.390625 18.546875 47.265625 
Q 14.109375 46.140625 10.015625 43.890625 
L 10.015625 52.203125 
Q 14.9375 54.109375 19.578125 55.046875 
Q 24.21875 56 28.609375 56 
Q 40.484375 56 46.34375 49.84375 
Q 52.203125 43.703125 52.203125 31.203125 
z
" id="DejaVuSans-97"/>
        <path d="M 54.890625 33.015625 
L 54.890625 0 
L 45.90625 0 
L 45.90625 32.71875 
Q 45.90625 40.484375 42.875 44.328125 
Q 39.84375 48.1875 33.796875 48.1875 
Q 26.515625 48.1875 22.3125 43.546875 
Q 18.109375 38.921875 18.109375 30.90625 
L 18.109375 0 
L 9.078125 0 
L 9.078125 54.6875 
L 18.109375 54.6875 
L 18.109375 46.1875 
Q 21.34375 51.125 25.703125 53.5625 
Q 30.078125 56 35.796875 56 
Q 45.21875 56 50.046875 50.171875 
Q 54.890625 44.34375 54.890625 33.015625 
z
" id="DejaVuSans-110"/>
       </defs>
       <use xlink:href="#DejaVuSans-74"/>
       <use x="29.492188" xlink:href="#DejaVuSans-97"/>
       <use x="90.771484" xlink:href="#DejaVuSans-110"/>
      </g>
      <!-- 2021 -->
      <g transform="translate(202.220801 331.85225)scale(0.1 -0.1)">
       <defs>
        <path d="M 19.1875 8.296875 
L 53.609375 8.296875 
L 53.609375 0 
L 7.328125 0 
L 7.328125 8.296875 
Q 12.9375 14.109375 22.625 23.890625 
Q 32.328125 33.6875 34.8125 36.53125 
Q 39.546875 41.84375 41.421875 45.53125 
Q 43.3125 49.21875 43.3125 52.78125 
Q 43.3125 58.59375 39.234375 62.25 
Q 35.15625 65.921875 28.609375 65.921875 
Q 23.96875 65.921875 18.8125 64.3125 
Q 13.671875 62.703125 7.8125 59.421875 
L 7.8125 69.390625 
Q 13.765625 71.78125 18.9375 73 
Q 24.125 74.21875 28.421875 74.21875 
Q 39.75 74.21875 46.484375 68.546875 
Q 53.21875 62.890625 53.21875 53.421875 
Q 53.21875 48.921875 51.53125 44.890625 
Q 49.859375 40.875 45.40625 35.40625 
Q 44.1875 33.984375 37.640625 27.21875 
Q 31.109375 20.453125 19.1875 8.296875 
z
" id="DejaVuSans-50"/>
        <path d="M 31.78125 66.40625 
Q 24.171875 66.40625 20.328125 58.90625 
Q 16.5 51.421875 16.5 36.375 
Q 16.5 21.390625 20.328125 13.890625 
Q 24.171875 6.390625 31.78125 6.390625 
Q 39.453125 6.390625 43.28125 13.890625 
Q 47.125 21.390625 47.125 36.375 
Q 47.125 51.421875 43.28125 58.90625 
Q 39.453125 66.40625 31.78125 66.40625 
z
M 31.78125 74.21875 
Q 44.046875 74.21875 50.515625 64.515625 
Q 56.984375 54.828125 56.984375 36.375 
Q 56.984375 17.96875 50.515625 8.265625 
Q 44.046875 -1.421875 31.78125 -1.421875 
Q 19.53125 -1.421875 13.0625 8.265625 
Q 6.59375 17.96875 6.59375 36.375 
Q 6.59375 54.828125 13.0625 64.515625 
Q 19.53125 74.21875 31.78125 74.21875 
z
" id="DejaVuSans-48"/>
        <path d="M 12.40625 8.296875 
L 28.515625 8.296875 
L 28.515625 63.921875 
L 10.984375 60.40625 
L 10.984375 69.390625 
L 28.421875 72.90625 
L 38.28125 72.90625 
L 38.28125 8.296875 
L 54.390625 8.296875 
L 54.390625 0 
L 12.40625 0 
z
" id="DejaVuSans-49"/>
       </defs>
       <use xlink:href="#DejaVuSans-50"/>
       <use x="63.623047" xlink:href="#DejaVuSans-48"/>
       <use x="127.246094" xlink:href="#DejaVuSans-50"/>
       <use x="190.869141" xlink:href="#DejaVuSans-49"/>
      </g>
     </g>
    </g>
    <g id="xtick_4">
     <g id="line2d_7">
      <path clip-path="url(#pa886c9b9c9)" d="M 298.700746 306.056 
L 298.700746 26.88 
" style="fill:none;stroke:#b0b0b0;stroke-linecap:square;stroke-width:0.8;"/>
     </g>
     <g id="line2d_8">
      <g>
       <use style="stroke:#000000;stroke-width:0.8;" x="298.700746" xlink:href="#m8ef5d7b0b4" y="306.056"/>
      </g>
     </g>
     <g id="text_4">
      <!-- Feb -->
      <g transform="translate(289.849183 320.654437)scale(0.1 -0.1)">
       <defs>
        <path d="M 9.8125 72.90625 
L 51.703125 72.90625 
L 51.703125 64.59375 
L 19.671875 64.59375 
L 19.671875 43.109375 
L 48.578125 43.109375 
L 48.578125 34.8125 
L 19.671875 34.8125 
L 19.671875 0 
L 9.8125 0 
z
" id="DejaVuSans-70"/>
        <path d="M 48.6875 27.296875 
Q 48.6875 37.203125 44.609375 42.84375 
Q 40.53125 48.484375 33.40625 48.484375 
Q 26.265625 48.484375 22.1875 42.84375 
Q 18.109375 37.203125 18.109375 27.296875 
Q 18.109375 17.390625 22.1875 11.75 
Q 26.265625 6.109375 33.40625 6.109375 
Q 40.53125 6.109375 44.609375 11.75 
Q 48.6875 17.390625 48.6875 27.296875 
z
M 18.109375 46.390625 
Q 20.953125 51.265625 25.265625 53.625 
Q 29.59375 56 35.59375 56 
Q 45.5625 56 51.78125 48.09375 
Q 58.015625 40.1875 58.015625 27.296875 
Q 58.015625 14.40625 51.78125 6.484375 
Q 45.5625 -1.421875 35.59375 -1.421875 
Q 29.59375 -1.421875 25.265625 0.953125 
Q 20.953125 3.328125 18.109375 8.203125 
L 18.109375 0 
L 9.078125 0 
L 9.078125 75.984375 
L 18.109375 75.984375 
z
" id="DejaVuSans-98"/>
       </defs>
       <use xlink:href="#DejaVuSans-70"/>
       <use x="52.019531" xlink:href="#DejaVuSans-101"/>
       <use x="113.542969" xlink:href="#DejaVuSans-98"/>
      </g>
     </g>
    </g>
    <g id="xtick_5">
     <g id="line2d_9">
      <path clip-path="url(#pa886c9b9c9)" d="M 374.350373 306.056 
L 374.350373 26.88 
" style="fill:none;stroke:#b0b0b0;stroke-linecap:square;stroke-width:0.8;"/>
     </g>
     <g id="line2d_10">
      <g>
       <use style="stroke:#000000;stroke-width:0.8;" x="374.350373" xlink:href="#m8ef5d7b0b4" y="306.056"/>
      </g>
     </g>
     <g id="text_5">
      <!-- Mar -->
      <g transform="translate(364.916779 320.654437)scale(0.1 -0.1)">
       <defs>
        <path d="M 9.8125 72.90625 
L 24.515625 72.90625 
L 43.109375 23.296875 
L 61.8125 72.90625 
L 76.515625 72.90625 
L 76.515625 0 
L 66.890625 0 
L 66.890625 64.015625 
L 48.09375 14.015625 
L 38.1875 14.015625 
L 19.390625 64.015625 
L 19.390625 0 
L 9.8125 0 
z
" id="DejaVuSans-77"/>
        <path d="M 41.109375 46.296875 
Q 39.59375 47.171875 37.8125 47.578125 
Q 36.03125 48 33.890625 48 
Q 26.265625 48 22.1875 43.046875 
Q 18.109375 38.09375 18.109375 28.8125 
L 18.109375 0 
L 9.078125 0 
L 9.078125 54.6875 
L 18.109375 54.6875 
L 18.109375 46.1875 
Q 20.953125 51.171875 25.484375 53.578125 
Q 30.03125 56 36.53125 56 
Q 37.453125 56 38.578125 55.875 
Q 39.703125 55.765625 41.0625 55.515625 
z
" id="DejaVuSans-114"/>
       </defs>
       <use xlink:href="#DejaVuSans-77"/>
       <use x="86.279297" xlink:href="#DejaVuSans-97"/>
       <use x="147.558594" xlink:href="#DejaVuSans-114"/>
      </g>
     </g>
    </g>
    <g id="xtick_6">
     <g id="line2d_11">
      <path clip-path="url(#pa886c9b9c9)" d="M 450 306.056 
L 450 26.88 
" style="fill:none;stroke:#b0b0b0;stroke-linecap:square;stroke-width:0.8;"/>
     </g>
     <g id="line2d_12">
      <g>
       <use style="stroke:#000000;stroke-width:0.8;" x="450" xlink:href="#m8ef5d7b0b4" y="306.056"/>
      </g>
     </g>
    </g>
    <g id="xtick_7">
     <g id="line2d_13">
      <defs>
       <path d="M 0 0 
L 0 2 
" id="m0882a8d47e" style="stroke:#000000;stroke-width:0.6;"/>
      </defs>
      <g>
       <use style="stroke:#000000;stroke-width:0.6;" x="52.839457" xlink:href="#m0882a8d47e" y="306.056"/>
      </g>
     </g>
    </g>
    <g id="xtick_8">
     <g id="line2d_14">
      <g>
       <use style="stroke:#000000;stroke-width:0.6;" x="71.751864" xlink:href="#m0882a8d47e" y="306.056"/>
      </g>
     </g>
    </g>
    <g id="xtick_9">
     <g id="line2d_15">
      <g>
       <use style="stroke:#000000;stroke-width:0.6;" x="90.664271" xlink:href="#m0882a8d47e" y="306.056"/>
      </g>
     </g>
    </g>
    <g id="xtick_10">
     <g id="line2d_16">
      <g>
       <use style="stroke:#000000;stroke-width:0.6;" x="109.576678" xlink:href="#m0882a8d47e" y="306.056"/>
      </g>
     </g>
    </g>
    <g id="xtick_11">
     <g id="line2d_17">
      <g>
       <use style="stroke:#000000;stroke-width:0.6;" x="128.489084" xlink:href="#m0882a8d47e" y="306.056"/>
      </g>
     </g>
    </g>
    <g id="xtick_12">
     <g id="line2d_18">
      <g>
       <use style="stroke:#000000;stroke-width:0.6;" x="147.401491" xlink:href="#m0882a8d47e" y="306.056"/>
      </g>
     </g>
    </g>
    <g id="xtick_13">
     <g id="line2d_19">
      <g>
       <use style="stroke:#000000;stroke-width:0.6;" x="166.313898" xlink:href="#m0882a8d47e" y="306.056"/>
      </g>
     </g>
    </g>
    <g id="xtick_14">
     <g id="line2d_20">
      <g>
       <use style="stroke:#000000;stroke-width:0.6;" x="185.226305" xlink:href="#m0882a8d47e" y="306.056"/>
      </g>
     </g>
    </g>
    <g id="xtick_15">
     <g id="line2d_21">
      <g>
       <use style="stroke:#000000;stroke-width:0.6;" x="204.138712" xlink:href="#m0882a8d47e" y="306.056"/>
      </g>
     </g>
    </g>
    <g id="xtick_16">
     <g id="line2d_22">
      <g>
       <use style="stroke:#000000;stroke-width:0.6;" x="223.051118" xlink:href="#m0882a8d47e" y="306.056"/>
      </g>
     </g>
    </g>
    <g id="xtick_17">
     <g id="line2d_23">
      <g>
       <use style="stroke:#000000;stroke-width:0.6;" x="241.963525" xlink:href="#m0882a8d47e" y="306.056"/>
      </g>
     </g>
    </g>
    <g id="xtick_18">
     <g id="line2d_24">
      <g>
       <use style="stroke:#000000;stroke-width:0.6;" x="260.875932" xlink:href="#m0882a8d47e" y="306.056"/>
      </g>
     </g>
    </g>
    <g id="xtick_19">
     <g id="line2d_25">
      <g>
       <use style="stroke:#000000;stroke-width:0.6;" x="279.788339" xlink:href="#m0882a8d47e" y="306.056"/>
      </g>
     </g>
    </g>
    <g id="xtick_20">
     <g id="line2d_26">
      <g>
       <use style="stroke:#000000;stroke-width:0.6;" x="317.613152" xlink:href="#m0882a8d47e" y="306.056"/>
      </g>
     </g>
    </g>
    <g id="xtick_21">
     <g id="line2d_27">
      <g>
       <use style="stroke:#000000;stroke-width:0.6;" x="336.525559" xlink:href="#m0882a8d47e" y="306.056"/>
      </g>
     </g>
    </g>
    <g id="xtick_22">
     <g id="line2d_28">
      <g>
       <use style="stroke:#000000;stroke-width:0.6;" x="355.437966" xlink:href="#m0882a8d47e" y="306.056"/>
      </g>
     </g>
    </g>
    <g id="xtick_23">
     <g id="line2d_29">
      <g>
       <use style="stroke:#000000;stroke-width:0.6;" x="393.26278" xlink:href="#m0882a8d47e" y="306.056"/>
      </g>
     </g>
    </g>
    <g id="xtick_24">
     <g id="line2d_30">
      <g>
       <use style="stroke:#000000;stroke-width:0.6;" x="412.175186" xlink:href="#m0882a8d47e" y="306.056"/>
      </g>
     </g>
    </g>
    <g id="xtick_25">
     <g id="line2d_31">
      <g>
       <use style="stroke:#000000;stroke-width:0.6;" x="431.087593" xlink:href="#m0882a8d47e" y="306.056"/>
      </g>
     </g>
    </g>
   </g>
   <g id="matplotlib.axis_2">
    <g id="ytick_1">
     <g id="line2d_32">
      <path clip-path="url(#pa886c9b9c9)" d="M 50.137685 294.231066 
L 450 294.231066 
" style="fill:none;stroke:#b0b0b0;stroke-linecap:square;stroke-width:0.8;"/>
     </g>
     <g id="line2d_33">
      <defs>
       <path d="M 0 0 
L -3.5 0 
" id="m9fff944579" style="stroke:#000000;stroke-width:0.8;"/>
      </defs>
      <g>
       <use style="stroke:#000000;stroke-width:0.8;" x="50.137685" xlink:href="#m9fff944579" y="294.231066"/>
      </g>
     </g>
     <g id="text_6">
      <!-- $\mathdefault{10^{2}}$ -->
      <g transform="translate(25.537685 298.030285)scale(0.1 -0.1)">
       <use transform="translate(0 0.765625)" xlink:href="#DejaVuSans-49"/>
       <use transform="translate(63.623047 0.765625)" xlink:href="#DejaVuSans-48"/>
       <use transform="translate(128.203125 39.046875)scale(0.7)" xlink:href="#DejaVuSans-50"/>
      </g>
     </g>
    </g>
    <g id="ytick_2">
     <g id="line2d_34">
      <path clip-path="url(#pa886c9b9c9)" d="M 50.137685 172.018158 
L 450 172.018158 
" style="fill:none;stroke:#b0b0b0;stroke-linecap:square;stroke-width:0.8;"/>
     </g>
     <g id="line2d_35">
      <g>
       <use style="stroke:#000000;stroke-width:0.8;" x="50.137685" xlink:href="#m9fff944579" y="172.018158"/>
      </g>
     </g>
     <g id="text_7">
      <!-- $\mathdefault{10^{3}}$ -->
      <g transform="translate(25.537685 175.817376)scale(0.1 -0.1)">
       <defs>
        <path d="M 40.578125 39.3125 
Q 47.65625 37.796875 51.625 33 
Q 55.609375 28.21875 55.609375 21.1875 
Q 55.609375 10.40625 48.1875 4.484375 
Q 40.765625 -1.421875 27.09375 -1.421875 
Q 22.515625 -1.421875 17.65625 -0.515625 
Q 12.796875 0.390625 7.625 2.203125 
L 7.625 11.71875 
Q 11.71875 9.328125 16.59375 8.109375 
Q 21.484375 6.890625 26.8125 6.890625 
Q 36.078125 6.890625 40.9375 10.546875 
Q 45.796875 14.203125 45.796875 21.1875 
Q 45.796875 27.640625 41.28125 31.265625 
Q 36.765625 34.90625 28.71875 34.90625 
L 20.21875 34.90625 
L 20.21875 43.015625 
L 29.109375 43.015625 
Q 36.375 43.015625 40.234375 45.921875 
Q 44.09375 48.828125 44.09375 54.296875 
Q 44.09375 59.90625 40.109375 62.90625 
Q 36.140625 65.921875 28.71875 65.921875 
Q 24.65625 65.921875 20.015625 65.03125 
Q 15.375 64.15625 9.8125 62.3125 
L 9.8125 71.09375 
Q 15.4375 72.65625 20.34375 73.4375 
Q 25.25 74.21875 29.59375 74.21875 
Q 40.828125 74.21875 47.359375 69.109375 
Q 53.90625 64.015625 53.90625 55.328125 
Q 53.90625 49.265625 50.4375 45.09375 
Q 46.96875 40.921875 40.578125 39.3125 
z
" id="DejaVuSans-51"/>
       </defs>
       <use transform="translate(0 0.765625)" xlink:href="#DejaVuSans-49"/>
       <use transform="translate(63.623047 0.765625)" xlink:href="#DejaVuSans-48"/>
       <use transform="translate(128.203125 39.046875)scale(0.7)" xlink:href="#DejaVuSans-51"/>
      </g>
     </g>
    </g>
    <g id="ytick_3">
     <g id="line2d_36">
      <path clip-path="url(#pa886c9b9c9)" d="M 50.137685 49.805249 
L 450 49.805249 
" style="fill:none;stroke:#b0b0b0;stroke-linecap:square;stroke-width:0.8;"/>
     </g>
     <g id="line2d_37">
      <g>
       <use style="stroke:#000000;stroke-width:0.8;" x="50.137685" xlink:href="#m9fff944579" y="49.805249"/>
      </g>
     </g>
     <g id="text_8">
      <!-- $\mathdefault{10^{4}}$ -->
      <g transform="translate(25.537685 53.604468)scale(0.1 -0.1)">
       <defs>
        <path d="M 37.796875 64.3125 
L 12.890625 25.390625 
L 37.796875 25.390625 
z
M 35.203125 72.90625 
L 47.609375 72.90625 
L 47.609375 25.390625 
L 58.015625 25.390625 
L 58.015625 17.1875 
L 47.609375 17.1875 
L 47.609375 0 
L 37.796875 0 
L 37.796875 17.1875 
L 4.890625 17.1875 
L 4.890625 26.703125 
z
" id="DejaVuSans-52"/>
       </defs>
       <use transform="translate(0 0.684375)" xlink:href="#DejaVuSans-49"/>
       <use transform="translate(63.623047 0.684375)" xlink:href="#DejaVuSans-48"/>
       <use transform="translate(128.203125 38.965625)scale(0.7)" xlink:href="#DejaVuSans-52"/>
      </g>
     </g>
    </g>
    <g id="ytick_4">
     <g id="line2d_38">
      <defs>
       <path d="M 0 0 
L -2 0 
" id="m5476ac09c9" style="stroke:#000000;stroke-width:0.6;"/>
      </defs>
      <g>
       <use style="stroke:#000000;stroke-width:0.6;" x="50.137685" xlink:href="#m5476ac09c9" y="299.823222"/>
      </g>
     </g>
    </g>
    <g id="ytick_5">
     <g id="line2d_39">
      <g>
       <use style="stroke:#000000;stroke-width:0.6;" x="50.137685" xlink:href="#m5476ac09c9" y="257.441315"/>
      </g>
     </g>
    </g>
    <g id="ytick_6">
     <g id="line2d_40">
      <g>
       <use style="stroke:#000000;stroke-width:0.6;" x="50.137685" xlink:href="#m5476ac09c9" y="235.92069"/>
      </g>
     </g>
    </g>
    <g id="ytick_7">
     <g id="line2d_41">
      <g>
       <use style="stroke:#000000;stroke-width:0.6;" x="50.137685" xlink:href="#m5476ac09c9" y="220.651563"/>
      </g>
     </g>
    </g>
    <g id="ytick_8">
     <g id="line2d_42">
      <g>
       <use style="stroke:#000000;stroke-width:0.6;" x="50.137685" xlink:href="#m5476ac09c9" y="208.807909"/>
      </g>
     </g>
    </g>
    <g id="ytick_9">
     <g id="line2d_43">
      <g>
       <use style="stroke:#000000;stroke-width:0.6;" x="50.137685" xlink:href="#m5476ac09c9" y="199.130939"/>
      </g>
     </g>
    </g>
    <g id="ytick_10">
     <g id="line2d_44">
      <g>
       <use style="stroke:#000000;stroke-width:0.6;" x="50.137685" xlink:href="#m5476ac09c9" y="190.949177"/>
      </g>
     </g>
    </g>
    <g id="ytick_11">
     <g id="line2d_45">
      <g>
       <use style="stroke:#000000;stroke-width:0.6;" x="50.137685" xlink:href="#m5476ac09c9" y="183.861812"/>
      </g>
     </g>
    </g>
    <g id="ytick_12">
     <g id="line2d_46">
      <g>
       <use style="stroke:#000000;stroke-width:0.6;" x="50.137685" xlink:href="#m5476ac09c9" y="177.610314"/>
      </g>
     </g>
    </g>
    <g id="ytick_13">
     <g id="line2d_47">
      <g>
       <use style="stroke:#000000;stroke-width:0.6;" x="50.137685" xlink:href="#m5476ac09c9" y="135.228406"/>
      </g>
     </g>
    </g>
    <g id="ytick_14">
     <g id="line2d_48">
      <g>
       <use style="stroke:#000000;stroke-width:0.6;" x="50.137685" xlink:href="#m5476ac09c9" y="113.707782"/>
      </g>
     </g>
    </g>
    <g id="ytick_15">
     <g id="line2d_49">
      <g>
       <use style="stroke:#000000;stroke-width:0.6;" x="50.137685" xlink:href="#m5476ac09c9" y="98.438655"/>
      </g>
     </g>
    </g>
    <g id="ytick_16">
     <g id="line2d_50">
      <g>
       <use style="stroke:#000000;stroke-width:0.6;" x="50.137685" xlink:href="#m5476ac09c9" y="86.595001"/>
      </g>
     </g>
    </g>
    <g id="ytick_17">
     <g id="line2d_51">
      <g>
       <use style="stroke:#000000;stroke-width:0.6;" x="50.137685" xlink:href="#m5476ac09c9" y="76.91803"/>
      </g>
     </g>
    </g>
    <g id="ytick_18">
     <g id="line2d_52">
      <g>
       <use style="stroke:#000000;stroke-width:0.6;" x="50.137685" xlink:href="#m5476ac09c9" y="68.736268"/>
      </g>
     </g>
    </g>
    <g id="ytick_19">
     <g id="line2d_53">
      <g>
       <use style="stroke:#000000;stroke-width:0.6;" x="50.137685" xlink:href="#m5476ac09c9" y="61.648904"/>
      </g>
     </g>
    </g>
    <g id="ytick_20">
     <g id="line2d_54">
      <g>
       <use style="stroke:#000000;stroke-width:0.6;" x="50.137685" xlink:href="#m5476ac09c9" y="55.397405"/>
      </g>
     </g>
    </g>
    <g id="text_9">
     <!-- log -->
     <g transform="translate(19.457997 174.090656)rotate(-90)scale(0.1 -0.1)">
      <defs>
       <path d="M 9.421875 75.984375 
L 18.40625 75.984375 
L 18.40625 0 
L 9.421875 0 
z
" id="DejaVuSans-108"/>
       <path d="M 45.40625 27.984375 
Q 45.40625 37.75 41.375 43.109375 
Q 37.359375 48.484375 30.078125 48.484375 
Q 22.859375 48.484375 18.828125 43.109375 
Q 14.796875 37.75 14.796875 27.984375 
Q 14.796875 18.265625 18.828125 12.890625 
Q 22.859375 7.515625 30.078125 7.515625 
Q 37.359375 7.515625 41.375 12.890625 
Q 45.40625 18.265625 45.40625 27.984375 
z
M 54.390625 6.78125 
Q 54.390625 -7.171875 48.1875 -13.984375 
Q 42 -20.796875 29.203125 -20.796875 
Q 24.46875 -20.796875 20.265625 -20.09375 
Q 16.0625 -19.390625 12.109375 -17.921875 
L 12.109375 -9.1875 
Q 16.0625 -11.328125 19.921875 -12.34375 
Q 23.78125 -13.375 27.78125 -13.375 
Q 36.625 -13.375 41.015625 -8.765625 
Q 45.40625 -4.15625 45.40625 5.171875 
L 45.40625 9.625 
Q 42.625 4.78125 38.28125 2.390625 
Q 33.9375 0 27.875 0 
Q 17.828125 0 11.671875 7.65625 
Q 5.515625 15.328125 5.515625 27.984375 
Q 5.515625 40.671875 11.671875 48.328125 
Q 17.828125 56 27.875 56 
Q 33.9375 56 38.28125 53.609375 
Q 42.625 51.21875 45.40625 46.390625 
L 45.40625 54.6875 
L 54.390625 54.6875 
z
" id="DejaVuSans-103"/>
      </defs>
      <use xlink:href="#DejaVuSans-108"/>
      <use x="27.783203" xlink:href="#DejaVuSans-111"/>
      <use x="88.964844" xlink:href="#DejaVuSans-103"/>
     </g>
    </g>
   </g>
   <g id="line2d_55">
    <path clip-path="url(#pa886c9b9c9)" d="M 50.137685 40.205422 
L 52.839457 39.839044 
L 55.54123 39.806062 
L 58.243002 39.569818 
L 60.944774 39.858529 
L 63.646547 41.035121 
L 66.348319 42.584698 
L 69.050092 43.820307 
L 71.751864 45.270566 
L 74.453636 47.622675 
L 77.155409 49.119329 
L 79.857181 51.093064 
L 82.558954 53.575979 
L 85.260726 56.603971 
L 87.962498 58.651065 
L 90.664271 60.39243 
L 93.366043 64.152827 
L 96.067816 69.484588 
L 98.769588 73.336403 
L 101.47136 76.838475 
L 104.173133 79.776351 
L 106.874905 81.195482 
L 109.576678 82.351055 
L 112.27845 84.635932 
L 117.681995 90.679663 
L 120.383767 93.105784 
L 123.08554 94.432882 
L 125.787312 95.15584 
L 128.489084 96.822872 
L 131.190857 95.971048 
L 133.892629 96.840343 
L 136.594402 98.565812 
L 139.296174 99.583527 
L 141.997946 99.466472 
L 144.699719 99.851497 
L 147.401491 99.976233 
L 150.103264 99.982088 
L 152.805036 98.552512 
L 158.208581 95.26554 
L 163.612126 93.5854 
L 166.313898 92.215809 
L 169.01567 89.964696 
L 171.717443 87.058786 
L 174.419215 84.81967 
L 177.120988 81.902874 
L 179.82276 80.523086 
L 182.524532 78.995933 
L 185.226305 76.61937 
L 187.928077 73.534041 
L 190.62985 69.141845 
L 193.331622 69.966294 
L 196.033394 71.964533 
L 198.735167 72.324903 
L 201.436939 71.301616 
L 204.138712 68.12509 
L 206.840484 63.726807 
L 209.542256 59.557642 
L 212.244029 57.025362 
L 214.945801 59.419778 
L 217.647574 59.574957 
L 220.349346 58.285519 
L 223.051118 56.104728 
L 225.752891 53.404895 
L 228.454663 51.951797 
L 231.156436 47.957373 
L 233.858208 44.270295 
L 236.55998 42.455145 
L 239.261753 42.280485 
L 241.963525 42.793573 
L 244.665298 44.709664 
L 247.36707 46.868356 
L 250.068842 48.774644 
L 252.770615 46.64142 
L 255.472387 46.550061 
L 258.17416 47.858971 
L 260.875932 49.827622 
L 263.577704 52.867609 
L 266.279477 56.850603 
L 268.981249 60.132045 
L 274.384794 64.363386 
L 277.086566 65.328232 
L 279.788339 66.566118 
L 282.490111 67.411937 
L 285.191884 68.7027 
L 287.893656 68.744393 
L 293.297201 70.079491 
L 295.998973 70.117277 
L 301.402518 70.626108 
L 304.10429 69.817951 
L 306.806063 69.501619 
L 309.507835 69.416521 
L 312.209608 69.098748 
L 314.91138 69.067674 
L 317.613152 68.630762 
L 325.71847 66.964814 
L 328.420242 66.5604 
L 331.122014 65.998832 
L 333.823787 65.840642 
L 336.525559 64.981952 
L 339.227332 63.263615 
L 341.929104 62.645808 
L 344.630876 60.937166 
L 347.332649 59.705001 
L 350.034421 58.819283 
L 352.736194 58.097702 
L 355.437966 56.513124 
L 358.139738 54.174419 
L 360.841511 52.450349 
L 366.245056 48.047521 
L 368.946828 47.072854 
L 371.6486 46.462062 
L 374.350373 45.259777 
L 379.753918 42.391805 
L 382.45569 41.430273 
L 385.157462 40.824717 
L 387.859235 40.078385 
L 390.561007 40.105853 
L 395.964552 40.499211 
L 398.666324 40.264937 
L 401.368097 41.335815 
L 404.069869 41.27767 
L 406.771642 41.558644 
L 409.473414 41.968193 
L 412.175186 42.527153 
L 414.876959 43.444341 
L 417.578731 44.53808 
L 420.280504 45.926893 
L 425.684048 48.497984 
L 428.385821 49.090519 
L 431.087593 50.000855 
L 433.789366 51.697783 
L 436.491138 53.981707 
L 439.19291 55.364559 
L 441.894683 58.510619 
L 444.596455 59.863308 
L 447.298228 60.605286 
L 447.298228 60.605286 
" style="fill:none;stroke:#ff0000;stroke-linecap:square;stroke-width:1.5;"/>
   </g>
   <g id="line2d_56">
    <path clip-path="url(#pa886c9b9c9)" d="M 50.137685 269.024964 
L 52.839457 266.402807 
L 55.54123 263.075612 
L 58.243002 261.089669 
L 60.944774 259.7662 
L 63.646547 257.97475 
L 66.348319 256.875664 
L 69.050092 255.946106 
L 74.453636 255.141349 
L 77.155409 254.869765 
L 79.857181 255.377851 
L 82.558954 256.093746 
L 85.260726 256.297423 
L 87.962498 257.631213 
L 90.664271 258.591029 
L 93.366043 261.049075 
L 96.067816 262.530373 
L 98.769588 263.797173 
L 101.47136 265.978104 
L 104.173133 267.491126 
L 106.874905 269.33238 
L 109.576678 270.701704 
L 112.27845 272.634672 
L 114.980222 274.222984 
L 120.383767 276.39942 
L 123.08554 278.218416 
L 125.787312 279.841151 
L 128.489084 281.217554 
L 136.594402 284.712297 
L 139.296174 285.414038 
L 141.997946 285.54263 
L 147.401491 287.945879 
L 152.805036 290.817443 
L 155.506808 291.461235 
L 158.208581 292.625397 
L 160.910353 293.366182 
L 163.612126 292.883497 
L 169.01567 292.478472 
L 171.717443 292.588627 
L 174.419215 292.295387 
L 177.120988 292.149372 
L 179.82276 292.735857 
L 185.226305 292.076515 
L 187.928077 291.74989 
L 190.62985 290.569173 
L 193.331622 290.710899 
L 196.033394 290.710899 
L 198.735167 289.831257 
L 204.138712 289.726673 
L 206.840484 288.828808 
L 209.542256 287.576709 
L 212.244029 286.878981 
L 214.945801 285.189749 
L 220.349346 282.5697 
L 223.051118 281.128624 
L 225.752891 278.924041 
L 228.454663 277.716112 
L 231.156436 275.619465 
L 233.858208 273.269413 
L 236.55998 272.307582 
L 239.261753 270.483133 
L 241.963525 269.713199 
L 244.665298 268.69588 
L 247.36707 268.34554 
L 250.068842 267.194163 
L 252.770615 266.876203 
L 255.472387 266.876203 
L 258.17416 266.560137 
L 260.875932 266.402807 
L 263.577704 266.989542 
L 266.279477 267.239741 
L 268.981249 268.113257 
L 271.683022 269.570071 
L 274.384794 270.000617 
L 277.086566 270.945622 
L 282.490111 272.458296 
L 285.191884 272.634672 
L 287.893656 273.756944 
L 290.595428 274.119065 
L 293.297201 274.903459 
L 295.998973 275.940816 
L 298.700746 276.616613 
L 301.402518 277.108571 
L 304.10429 277.466731 
L 306.806063 278.050452 
L 309.507835 278.274522 
L 314.91138 279.094797 
L 317.613152 279.151837 
L 320.314925 279.380615 
L 323.016697 280.043899 
L 328.420242 280.364075 
L 331.122014 280.568834 
L 333.823787 279.783365 
L 336.525559 279.870068 
L 339.227332 279.437964 
L 341.929104 279.437964 
L 344.630876 278.190385 
L 347.332649 276.807389 
L 350.034421 275.566095 
L 352.736194 275.167522 
L 355.437966 274.353168 
L 358.139738 274.041259 
L 360.841511 273.885989 
L 363.543283 272.609439 
L 366.245056 271.461527 
L 368.946828 269.760994 
L 371.6486 269.095748 
L 374.350373 267.399576 
L 377.052145 266.425254 
L 379.753918 265.007436 
L 382.45569 264.075677 
L 385.157462 264.032735 
L 387.859235 263.520122 
L 390.561007 262.446985 
L 395.964552 259.548795 
L 398.666324 257.955606 
L 401.368097 257.157736 
L 404.069869 256.800697 
L 406.771642 257.063545 
L 409.473414 256.149217 
L 412.175186 255.615411 
L 414.876959 255.286764 
L 422.982276 255.707064 
L 425.684048 256.18623 
L 428.385821 256.446045 
L 433.789366 257.726417 
L 436.491138 258.746223 
L 439.19291 260.183735 
L 441.894683 261.94939 
L 444.596455 262.802292 
L 447.298228 266.447711 
L 447.298228 266.447711 
" style="fill:none;stroke:#000000;stroke-linecap:square;stroke-width:1.5;"/>
   </g>
   <g id="line2d_57">
    <path clip-path="url(#pa886c9b9c9)" d="M 50.137685 77.011628 
L 52.839457 74.614434 
L 55.54123 72.44441 
L 58.243002 70.556001 
L 60.944774 68.874012 
L 63.646547 67.484357 
L 66.348319 66.411414 
L 69.050092 65.527199 
L 71.751864 64.772448 
L 74.453636 64.278166 
L 77.155409 63.935184 
L 79.857181 64.016882 
L 85.260726 64.760889 
L 87.962498 65.333311 
L 90.664271 66.092531 
L 93.366043 67.140058 
L 96.067816 68.04003 
L 101.47136 70.192929 
L 112.27845 74.900168 
L 117.681995 77.334159 
L 123.08554 79.985478 
L 128.489084 82.37626 
L 131.190857 83.390825 
L 136.594402 86.05036 
L 139.296174 87.215053 
L 147.401491 90.074689 
L 150.103264 90.983521 
L 152.805036 91.684894 
L 155.506808 92.188842 
L 158.208581 92.532855 
L 163.612126 92.778491 
L 166.313898 92.828778 
L 171.717443 92.622818 
L 177.120988 92.137473 
L 185.226305 91.067594 
L 190.62985 90.214936 
L 196.033394 90.524302 
L 198.735167 90.240919 
L 201.436939 89.79369 
L 204.138712 89.035671 
L 206.840484 88.075826 
L 212.244029 85.936407 
L 214.945801 85.291064 
L 217.647574 84.214501 
L 220.349346 83.005341 
L 228.454663 78.188628 
L 231.156436 76.151458 
L 233.858208 74.358522 
L 236.55998 73.115377 
L 239.261753 72.018087 
L 241.963525 71.063417 
L 244.665298 70.234139 
L 252.770615 68.24569 
L 255.472387 67.963646 
L 258.17416 67.867654 
L 260.875932 68.013844 
L 266.279477 68.893564 
L 271.683022 70.06394 
L 277.086566 71.110405 
L 282.490111 72.409575 
L 293.297201 75.090295 
L 298.700746 76.178245 
L 304.10429 76.954691 
L 309.507835 77.46104 
L 314.91138 77.685579 
L 325.71847 77.916222 
L 331.122014 77.837086 
L 339.227332 77.237448 
L 347.332649 76.168276 
L 352.736194 75.457234 
L 358.139738 74.319399 
L 360.841511 73.627791 
L 366.245056 71.901834 
L 371.6486 70.094491 
L 382.45569 65.889898 
L 395.964552 61.119369 
L 398.666324 60.269004 
L 404.069869 58.888069 
L 412.175186 57.198085 
L 417.578731 56.481729 
L 422.982276 56.099179 
L 431.087593 56.070588 
L 433.789366 56.220114 
L 439.19291 56.870954 
L 441.894683 57.293169 
L 447.298228 58.465522 
L 450 59.290883 
L 450 59.290883 
" style="fill:none;stroke:#663300;stroke-linecap:square;stroke-width:1.5;"/>
   </g>
   <g id="line2d_58">
    <path clip-path="url(#pa886c9b9c9)" d="M 50.137685 176.944731 
L 52.839457 177.103044 
L 58.243002 177.770627 
L 60.944774 178.216133 
L 77.155409 180.155708 
L 85.260726 180.151288 
L 90.664271 179.860434 
L 96.067816 179.023263 
L 98.769588 178.493808 
L 106.874905 177.366554 
L 112.27845 176.679162 
L 114.980222 176.197076 
L 117.681995 176.057801 
L 133.892629 174.446127 
L 136.594402 174.295533 
L 144.699719 173.354159 
L 152.805036 172.67044 
L 160.910353 172.067466 
L 166.313898 171.957534 
L 204.138712 172.498008 
L 209.542256 173.02472 
L 217.647574 174.311365 
L 225.752891 176.082352 
L 231.156436 177.876361 
L 241.963525 181.675418 
L 252.770615 184.683238 
L 255.472387 185.332113 
L 260.875932 186.152051 
L 263.577704 186.424887 
L 268.981249 186.275893 
L 279.788339 185.91508 
L 290.595428 184.847128 
L 301.402518 183.432309 
L 314.91138 182.653029 
L 320.314925 182.666928 
L 325.71847 182.699372 
L 331.122014 183.029575 
L 344.630876 185.059976 
L 352.736194 186.899477 
L 358.139738 187.851364 
L 366.245056 189.322493 
L 371.6486 190.281811 
L 379.753918 191.597621 
L 382.45569 191.872458 
L 385.157462 192.021464 
L 390.561007 192.683224 
L 395.964552 193.512251 
L 404.069869 195.25129 
L 406.771642 195.990569 
L 409.473414 196.57143 
L 414.876959 197.568199 
L 420.280504 198.740623 
L 425.684048 200.01015 
L 436.491138 201.89998 
L 436.491138 201.89998 
" style="fill:none;stroke:#0000ff;stroke-linecap:square;stroke-width:1.5;"/>
   </g>
   <g id="patch_3">
    <path d="M 50.137685 306.056 
L 50.137685 26.88 
" style="fill:none;stroke:#000000;stroke-linecap:square;stroke-linejoin:miter;stroke-width:0.8;"/>
   </g>
   <g id="patch_4">
    <path d="M 450 306.056 
L 450 26.88 
" style="fill:none;stroke:#000000;stroke-linecap:square;stroke-linejoin:miter;stroke-width:0.8;"/>
   </g>
   <g id="patch_5">
    <path d="M 50.137685 306.056 
L 450 306.056 
" style="fill:none;stroke:#000000;stroke-linecap:square;stroke-linejoin:miter;stroke-width:0.8;"/>
   </g>
   <g id="patch_6">
    <path d="M 50.137685 26.88 
L 450 26.88 
" style="fill:none;stroke:#000000;stroke-linecap:square;stroke-linejoin:miter;stroke-width:0.8;"/>
   </g>
   <g id="text_10">
    <!-- Covid in Czech - zoomed -->
    <g transform="translate(175.950092 20.88)scale(0.12 -0.12)">
     <defs>
      <path d="M 64.40625 67.28125 
L 64.40625 56.890625 
Q 59.421875 61.53125 53.78125 63.8125 
Q 48.140625 66.109375 41.796875 66.109375 
Q 29.296875 66.109375 22.65625 58.46875 
Q 16.015625 50.828125 16.015625 36.375 
Q 16.015625 21.96875 22.65625 14.328125 
Q 29.296875 6.6875 41.796875 6.6875 
Q 48.140625 6.6875 53.78125 8.984375 
Q 59.421875 11.28125 64.40625 15.921875 
L 64.40625 5.609375 
Q 59.234375 2.09375 53.4375 0.328125 
Q 47.65625 -1.421875 41.21875 -1.421875 
Q 24.65625 -1.421875 15.125 8.703125 
Q 5.609375 18.84375 5.609375 36.375 
Q 5.609375 53.953125 15.125 64.078125 
Q 24.65625 74.21875 41.21875 74.21875 
Q 47.75 74.21875 53.53125 72.484375 
Q 59.328125 70.75 64.40625 67.28125 
z
" id="DejaVuSans-67"/>
      <path d="M 9.421875 54.6875 
L 18.40625 54.6875 
L 18.40625 0 
L 9.421875 0 
z
M 9.421875 75.984375 
L 18.40625 75.984375 
L 18.40625 64.59375 
L 9.421875 64.59375 
z
" id="DejaVuSans-105"/>
      <path d="M 45.40625 46.390625 
L 45.40625 75.984375 
L 54.390625 75.984375 
L 54.390625 0 
L 45.40625 0 
L 45.40625 8.203125 
Q 42.578125 3.328125 38.25 0.953125 
Q 33.9375 -1.421875 27.875 -1.421875 
Q 17.96875 -1.421875 11.734375 6.484375 
Q 5.515625 14.40625 5.515625 27.296875 
Q 5.515625 40.1875 11.734375 48.09375 
Q 17.96875 56 27.875 56 
Q 33.9375 56 38.25 53.625 
Q 42.578125 51.265625 45.40625 46.390625 
z
M 14.796875 27.296875 
Q 14.796875 17.390625 18.875 11.75 
Q 22.953125 6.109375 30.078125 6.109375 
Q 37.203125 6.109375 41.296875 11.75 
Q 45.40625 17.390625 45.40625 27.296875 
Q 45.40625 37.203125 41.296875 42.84375 
Q 37.203125 48.484375 30.078125 48.484375 
Q 22.953125 48.484375 18.875 42.84375 
Q 14.796875 37.203125 14.796875 27.296875 
z
" id="DejaVuSans-100"/>
      <path id="DejaVuSans-32"/>
      <path d="M 5.515625 54.6875 
L 48.1875 54.6875 
L 48.1875 46.484375 
L 14.40625 7.171875 
L 48.1875 7.171875 
L 48.1875 0 
L 4.296875 0 
L 4.296875 8.203125 
L 38.09375 47.515625 
L 5.515625 47.515625 
z
" id="DejaVuSans-122"/>
      <path d="M 54.890625 33.015625 
L 54.890625 0 
L 45.90625 0 
L 45.90625 32.71875 
Q 45.90625 40.484375 42.875 44.328125 
Q 39.84375 48.1875 33.796875 48.1875 
Q 26.515625 48.1875 22.3125 43.546875 
Q 18.109375 38.921875 18.109375 30.90625 
L 18.109375 0 
L 9.078125 0 
L 9.078125 75.984375 
L 18.109375 75.984375 
L 18.109375 46.1875 
Q 21.34375 51.125 25.703125 53.5625 
Q 30.078125 56 35.796875 56 
Q 45.21875 56 50.046875 50.171875 
Q 54.890625 44.34375 54.890625 33.015625 
z
" id="DejaVuSans-104"/>
      <path d="M 4.890625 31.390625 
L 31.203125 31.390625 
L 31.203125 23.390625 
L 4.890625 23.390625 
z
" id="DejaVuSans-45"/>
      <path d="M 52 44.1875 
Q 55.375 50.25 60.0625 53.125 
Q 64.75 56 71.09375 56 
Q 79.640625 56 84.28125 50.015625 
Q 88.921875 44.046875 88.921875 33.015625 
L 88.921875 0 
L 79.890625 0 
L 79.890625 32.71875 
Q 79.890625 40.578125 77.09375 44.375 
Q 74.3125 48.1875 68.609375 48.1875 
Q 61.625 48.1875 57.5625 43.546875 
Q 53.515625 38.921875 53.515625 30.90625 
L 53.515625 0 
L 44.484375 0 
L 44.484375 32.71875 
Q 44.484375 40.625 41.703125 44.40625 
Q 38.921875 48.1875 33.109375 48.1875 
Q 26.21875 48.1875 22.15625 43.53125 
Q 18.109375 38.875 18.109375 30.90625 
L 18.109375 0 
L 9.078125 0 
L 9.078125 54.6875 
L 18.109375 54.6875 
L 18.109375 46.1875 
Q 21.1875 51.21875 25.484375 53.609375 
Q 29.78125 56 35.6875 56 
Q 41.65625 56 45.828125 52.96875 
Q 50 49.953125 52 44.1875 
z
" id="DejaVuSans-109"/>
     </defs>
     <use xlink:href="#DejaVuSans-67"/>
     <use x="69.824219" xlink:href="#DejaVuSans-111"/>
     <use x="131.005859" xlink:href="#DejaVuSans-118"/>
     <use x="190.185547" xlink:href="#DejaVuSans-105"/>
     <use x="217.96875" xlink:href="#DejaVuSans-100"/>
     <use x="281.445312" xlink:href="#DejaVuSans-32"/>
     <use x="313.232422" xlink:href="#DejaVuSans-105"/>
     <use x="341.015625" xlink:href="#DejaVuSans-110"/>
     <use x="404.394531" xlink:href="#DejaVuSans-32"/>
     <use x="436.181641" xlink:href="#DejaVuSans-67"/>
     <use x="506.005859" xlink:href="#DejaVuSans-122"/>
     <use x="558.496094" xlink:href="#DejaVuSans-101"/>
     <use x="620.019531" xlink:href="#DejaVuSans-99"/>
     <use x="675" xlink:href="#DejaVuSans-104"/>
     <use x="738.378906" xlink:href="#DejaVuSans-32"/>
     <use x="770.166016" xlink:href="#DejaVuSans-45"/>
     <use x="806.25" xlink:href="#DejaVuSans-32"/>
     <use x="838.037109" xlink:href="#DejaVuSans-122"/>
     <use x="890.527344" xlink:href="#DejaVuSans-111"/>
     <use x="951.708984" xlink:href="#DejaVuSans-111"/>
     <use x="1012.890625" xlink:href="#DejaVuSans-109"/>
     <use x="1110.302734" xlink:href="#DejaVuSans-101"/>
     <use x="1171.826172" xlink:href="#DejaVuSans-100"/>
    </g>
   </g>
   <g id="legend_1">
    <g id="patch_7">
     <path d="M 307.692187 197.602375 
L 443 197.602375 
Q 445 197.602375 445 195.602375 
L 445 137.333625 
Q 445 135.333625 443 135.333625 
L 307.692187 135.333625 
Q 305.692187 135.333625 305.692187 137.333625 
L 305.692187 195.602375 
Q 305.692187 197.602375 307.692187 197.602375 
z
" style="fill:#ffffff;opacity:0.8;stroke:#cccccc;stroke-linejoin:miter;"/>
    </g>
    <g id="line2d_59">
     <path d="M 309.692187 143.432063 
L 329.692187 143.432063 
" style="fill:none;stroke:#ff0000;stroke-linecap:square;stroke-width:1.5;"/>
    </g>
    <g id="line2d_60"/>
    <g id="text_11">
     <!-- confirmed -->
     <g transform="translate(337.692187 146.932063)scale(0.1 -0.1)">
      <defs>
       <path d="M 37.109375 75.984375 
L 37.109375 68.5 
L 28.515625 68.5 
Q 23.6875 68.5 21.796875 66.546875 
Q 19.921875 64.59375 19.921875 59.515625 
L 19.921875 54.6875 
L 34.71875 54.6875 
L 34.71875 47.703125 
L 19.921875 47.703125 
L 19.921875 0 
L 10.890625 0 
L 10.890625 47.703125 
L 2.296875 47.703125 
L 2.296875 54.6875 
L 10.890625 54.6875 
L 10.890625 58.5 
Q 10.890625 67.625 15.140625 71.796875 
Q 19.390625 75.984375 28.609375 75.984375 
z
" id="DejaVuSans-102"/>
      </defs>
      <use xlink:href="#DejaVuSans-99"/>
      <use x="54.980469" xlink:href="#DejaVuSans-111"/>
      <use x="116.162109" xlink:href="#DejaVuSans-110"/>
      <use x="179.541016" xlink:href="#DejaVuSans-102"/>
      <use x="214.746094" xlink:href="#DejaVuSans-105"/>
      <use x="242.529297" xlink:href="#DejaVuSans-114"/>
      <use x="281.892578" xlink:href="#DejaVuSans-109"/>
      <use x="379.304688" xlink:href="#DejaVuSans-101"/>
      <use x="440.828125" xlink:href="#DejaVuSans-100"/>
     </g>
    </g>
    <g id="line2d_61">
     <path d="M 309.692187 158.110187 
L 329.692187 158.110187 
" style="fill:none;stroke:#000000;stroke-linecap:square;stroke-width:1.5;"/>
    </g>
    <g id="line2d_62"/>
    <g id="text_12">
     <!-- death -->
     <g transform="translate(337.692187 161.610187)scale(0.1 -0.1)">
      <defs>
       <path d="M 18.3125 70.21875 
L 18.3125 54.6875 
L 36.8125 54.6875 
L 36.8125 47.703125 
L 18.3125 47.703125 
L 18.3125 18.015625 
Q 18.3125 11.328125 20.140625 9.421875 
Q 21.96875 7.515625 27.59375 7.515625 
L 36.8125 7.515625 
L 36.8125 0 
L 27.59375 0 
Q 17.1875 0 13.234375 3.875 
Q 9.28125 7.765625 9.28125 18.015625 
L 9.28125 47.703125 
L 2.6875 47.703125 
L 2.6875 54.6875 
L 9.28125 54.6875 
L 9.28125 70.21875 
z
" id="DejaVuSans-116"/>
      </defs>
      <use xlink:href="#DejaVuSans-100"/>
      <use x="63.476562" xlink:href="#DejaVuSans-101"/>
      <use x="125" xlink:href="#DejaVuSans-97"/>
      <use x="186.279297" xlink:href="#DejaVuSans-116"/>
      <use x="225.488281" xlink:href="#DejaVuSans-104"/>
     </g>
    </g>
    <g id="line2d_63">
     <path d="M 309.692187 172.788313 
L 329.692187 172.788313 
" style="fill:none;stroke:#663300;stroke-linecap:square;stroke-width:1.5;"/>
    </g>
    <g id="line2d_64"/>
    <g id="text_13">
     <!-- in_hosp -->
     <g transform="translate(337.692187 176.288313)scale(0.1 -0.1)">
      <defs>
       <path d="M 50.984375 -16.609375 
L 50.984375 -23.578125 
L -0.984375 -23.578125 
L -0.984375 -16.609375 
z
" id="DejaVuSans-95"/>
       <path d="M 44.28125 53.078125 
L 44.28125 44.578125 
Q 40.484375 46.53125 36.375 47.5 
Q 32.28125 48.484375 27.875 48.484375 
Q 21.1875 48.484375 17.84375 46.4375 
Q 14.5 44.390625 14.5 40.28125 
Q 14.5 37.15625 16.890625 35.375 
Q 19.28125 33.59375 26.515625 31.984375 
L 29.59375 31.296875 
Q 39.15625 29.25 43.1875 25.515625 
Q 47.21875 21.78125 47.21875 15.09375 
Q 47.21875 7.46875 41.1875 3.015625 
Q 35.15625 -1.421875 24.609375 -1.421875 
Q 20.21875 -1.421875 15.453125 -0.5625 
Q 10.6875 0.296875 5.421875 2 
L 5.421875 11.28125 
Q 10.40625 8.6875 15.234375 7.390625 
Q 20.0625 6.109375 24.8125 6.109375 
Q 31.15625 6.109375 34.5625 8.28125 
Q 37.984375 10.453125 37.984375 14.40625 
Q 37.984375 18.0625 35.515625 20.015625 
Q 33.0625 21.96875 24.703125 23.78125 
L 21.578125 24.515625 
Q 13.234375 26.265625 9.515625 29.90625 
Q 5.8125 33.546875 5.8125 39.890625 
Q 5.8125 47.609375 11.28125 51.796875 
Q 16.75 56 26.8125 56 
Q 31.78125 56 36.171875 55.265625 
Q 40.578125 54.546875 44.28125 53.078125 
z
" id="DejaVuSans-115"/>
       <path d="M 18.109375 8.203125 
L 18.109375 -20.796875 
L 9.078125 -20.796875 
L 9.078125 54.6875 
L 18.109375 54.6875 
L 18.109375 46.390625 
Q 20.953125 51.265625 25.265625 53.625 
Q 29.59375 56 35.59375 56 
Q 45.5625 56 51.78125 48.09375 
Q 58.015625 40.1875 58.015625 27.296875 
Q 58.015625 14.40625 51.78125 6.484375 
Q 45.5625 -1.421875 35.59375 -1.421875 
Q 29.59375 -1.421875 25.265625 0.953125 
Q 20.953125 3.328125 18.109375 8.203125 
z
M 48.6875 27.296875 
Q 48.6875 37.203125 44.609375 42.84375 
Q 40.53125 48.484375 33.40625 48.484375 
Q 26.265625 48.484375 22.1875 42.84375 
Q 18.109375 37.203125 18.109375 27.296875 
Q 18.109375 17.390625 22.1875 11.75 
Q 26.265625 6.109375 33.40625 6.109375 
Q 40.53125 6.109375 44.609375 11.75 
Q 48.6875 17.390625 48.6875 27.296875 
z
" id="DejaVuSans-112"/>
      </defs>
      <use xlink:href="#DejaVuSans-105"/>
      <use x="27.783203" xlink:href="#DejaVuSans-110"/>
      <use x="91.162109" xlink:href="#DejaVuSans-95"/>
      <use x="141.162109" xlink:href="#DejaVuSans-104"/>
      <use x="204.541016" xlink:href="#DejaVuSans-111"/>
      <use x="265.722656" xlink:href="#DejaVuSans-115"/>
      <use x="317.822266" xlink:href="#DejaVuSans-112"/>
     </g>
    </g>
    <g id="line2d_65">
     <path d="M 309.692187 187.744563 
L 329.692187 187.744563 
" style="fill:none;stroke:#0000ff;stroke-linecap:square;stroke-width:1.5;"/>
    </g>
    <g id="line2d_66"/>
    <g id="text_14">
     <!-- ventilation_available -->
     <g transform="translate(337.692187 191.244563)scale(0.1 -0.1)">
      <use xlink:href="#DejaVuSans-118"/>
      <use x="59.179688" xlink:href="#DejaVuSans-101"/>
      <use x="120.703125" xlink:href="#DejaVuSans-110"/>
      <use x="184.082031" xlink:href="#DejaVuSans-116"/>
      <use x="223.291016" xlink:href="#DejaVuSans-105"/>
      <use x="251.074219" xlink:href="#DejaVuSans-108"/>
      <use x="278.857422" xlink:href="#DejaVuSans-97"/>
      <use x="340.136719" xlink:href="#DejaVuSans-116"/>
      <use x="379.345703" xlink:href="#DejaVuSans-105"/>
      <use x="407.128906" xlink:href="#DejaVuSans-111"/>
      <use x="468.310547" xlink:href="#DejaVuSans-110"/>
      <use x="531.689453" xlink:href="#DejaVuSans-95"/>
      <use x="581.689453" xlink:href="#DejaVuSans-97"/>
      <use x="642.96875" xlink:href="#DejaVuSans-118"/>
      <use x="702.148438" xlink:href="#DejaVuSans-97"/>
      <use x="763.427734" xlink:href="#DejaVuSans-105"/>
      <use x="791.210938" xlink:href="#DejaVuSans-108"/>
      <use x="818.994141" xlink:href="#DejaVuSans-97"/>
      <use x="880.273438" xlink:href="#DejaVuSans-98"/>
      <use x="943.75" xlink:href="#DejaVuSans-108"/>
      <use x="971.533203" xlink:href="#DejaVuSans-101"/>
     </g>
    </g>
   </g>
  </g>
 </g>
 <defs>
  <clipPath id="pa886c9b9c9">
   <rect height="279.176" width="399.862315" x="50.137685" y="26.88"/>
  </clipPath>
 </defs>
</svg>
